<svg enable-background="new 0 0 204.3 119.6" viewBox="0 0 204.3 119.6" xmlns="http://www.w3.org/2000/svg"><g fill="#94b9d8" opacity=".174" transform="translate(-13438.826 -2301)"><path d="m13564.6 2415.1h-48.3c-4.4 0-8.6-2.4-10.8-6.3l-24.2-41.9c-2.2-3.9-2.2-8.6 0-12.5l24.2-41.9c2.2-3.9 6.4-6.2 10.8-6.2h48.3c4.4 0 8.6 2.4 10.8 6.2l24.2 41.9c2.2 3.9 2.2 8.6 0 12.5l-24.2 41.9c-2.2 3.9-6.4 6.3-10.8 6.3zm-48.4-107.7c-4.1 0-7.9 2.2-9.9 5.7l-24.2 41.9c-2 3.5-2 7.9 0 11.5l24.2 41.9c2 3.5 5.9 5.7 9.9 5.8h48.3c4.1 0 7.9-2.2 9.9-5.7l24.2-41.9c2-3.5 2-7.9 0-11.5l-24.2-41.9c-2-3.5-5.9-5.7-9.9-5.7h-48.3z"/><path d="m13667.3 2476.4h-48.3c-4.4 0-8.6-2.4-10.8-6.2l-24.2-41.9c-2.2-3.9-2.2-8.6 0-12.5l24.2-41.9c2.2-3.9 6.4-6.2 10.8-6.2h48.3c4.4 0 8.6 2.4 10.8 6.2l24.2 41.9c2.2 3.9 2.2 8.6 0 12.5l-24.2 41.9c-2.2 3.8-6.4 6.2-10.8 6.2zm-48.4-107.7c-4.1 0-7.9 2.2-9.9 5.7l-24.2 41.9c-2 3.5-2 7.9 0 11.5l24.2 41.9c2 3.5 5.9 5.7 9.9 5.8h48.3c4.1 0 7.9-2.2 9.9-5.8l24.2-41.9c2-3.5 2-7.9 0-11.5l-24.2-41.9c-2-3.5-5.9-5.7-9.9-5.7z"/><path d="m13667.3 2357.1h-48.3c-4.4 0-8.6-2.4-10.8-6.3l-24.2-41.9c-2.2-3.9-2.2-8.6 0-12.5l24.2-41.9c2.2-3.9 6.4-6.2 10.8-6.2h48.3c4.4 0 8.6 2.4 10.8 6.2l24.2 41.9c2.2 3.9 2.2 8.6 0 12.5l-24.2 41.9c-2.2 3.9-6.4 6.3-10.8 6.3zm-48.4-107.8c-4.1 0-7.9 2.2-9.9 5.7l-24.2 41.9c-2 3.5-2 7.9 0 11.5l24.2 41.9c2 3.5 5.9 5.7 9.9 5.8h48.3c4.1 0 7.9-2.2 9.9-5.7l24.2-41.9c2-3.5 2-7.9 0-11.5l-24.2-41.9c-2-3.5-5.9-5.7-9.9-5.7h-48.3z"/><path d="m13463.5 2476.4h-48.3c-4.4 0-8.6-2.4-10.8-6.2l-24.2-41.9c-2.2-3.9-2.2-8.6 0-12.5l24.2-41.9c2.2-3.9 6.4-6.2 10.8-6.2h48.3c4.4 0 8.6 2.4 10.8 6.2l24.2 41.9c2.2 3.9 2.2 8.6 0 12.5l-24.2 41.9c-2.2 3.8-6.4 6.2-10.8 6.2zm-48.3-107.7c-4.1 0-7.9 2.2-9.9 5.7l-24.2 41.9c-2 3.5-2 7.9 0 11.5l24.2 41.9c2 3.5 5.9 5.7 9.9 5.8h48.3c4.1 0 7.9-2.2 9.9-5.8l24.2-41.9c2-3.5 2-7.9 0-11.5l-24.2-41.9c-2-3.5-5.9-5.7-9.9-5.7z"/><path d="m13463.5 2357.1h-48.3c-4.4 0-8.6-2.4-10.8-6.3l-24.2-41.9c-2.2-3.9-2.2-8.6 0-12.5l24.2-41.9c2.2-3.9 6.4-6.2 10.8-6.2h48.3c4.4 0 8.6 2.4 10.8 6.2l24.2 41.9c2.2 3.9 2.2 8.6 0 12.5l-24.2 41.9c-2.2 3.9-6.4 6.3-10.8 6.3zm-48.3-107.8c-4.1 0-7.9 2.2-9.9 5.7l-24.2 41.9c-2 3.5-2 7.9 0 11.5l24.2 41.9c2 3.5 5.9 5.7 9.9 5.8h48.3c4.1 0 7.9-2.2 9.9-5.7l24.2-41.9c2-3.5 2-7.9 0-11.5l-24.2-41.9c-2-3.5-5.9-5.7-9.9-5.7h-48.3z"/></g></svg>