<svg enable-background="new 0 0 138.9 138.9" viewBox="0 0 138.9 138.9" xmlns="http://www.w3.org/2000/svg"><path d="m124.2 29.3-47.4-27.3c-2.2-1.3-4.7-2-7.3-2-2.6 0-5.1.7-7.3 2l-47.5 27.4c-4.5 2.6-7.3 7.4-7.3 12.6v54.8c0 5.2 2.8 10.1 7.3 12.7l47.4 27.4c4.5 2.6 10.1 2.6 14.7 0l47.4-27.4c4.5-2.6 7.3-7.5 7.3-12.7v-54.8c0-5.2-2.8-10.1-7.3-12.7z" fill="#00194a"/><g fill="#fff"><path d="m122 33.1-47.5-27.4c-3.2-1.8-7.1-1.8-10.3 0l-47.4 27.4c-3.2 1.9-5.1 5.3-5.2 8.9v54.8c0 3.7 2 7.1 5.2 8.9l47.4 27.4c3.2 1.8 7.1 1.8 10.3 0l47.4-27.4c3.2-1.8 5.2-5.2 5.2-8.9v-54.8c0-3.6-1.9-7-5.1-8.9m-52.6-27.6c1.6 0 3.2.4 4.6 1.2l47.4 27.4c2.8 1.6 4.6 4.6 4.6 7.9v54.8c0 3.3-1.7 6.3-4.6 7.9l-47.4 27.4c-2.8 1.6-6.3 1.6-9.1 0l-47.4-27.4c-2.8-1.6-4.6-4.6-4.6-7.9v-54.8c0-3.3 1.7-6.3 4.6-7.9l47.3-27.3c1.4-.8 3-1.3 4.6-1.3"/><path d="m40.4 50c0-.4.4-.8.8-.8l6.9-.4c7.9-.4 14.3-6.8 14.6-14.6l.4-6.9c0-.4.4-.8.8-.8s.8.4.8.8l.4 6.9c.4 7.9 6.8 14.3 14.6 14.6l6.9.4c.4 0 .8.4.8.8s-.4.8-.8.8l-6.9.4c-7.9.4-14.3 6.8-14.6 14.6l-.4 6.9c0 .4-.4.8-.8.8s-.8-.4-.8-.8l-.4-6.9c-.4-7.9-6.8-14.3-14.6-14.6l-6.9-.4c-.4-.1-.8-.4-.8-.8"/><path d="m113.7 82.5-6.4-.4c-6.9-.4-12.6-6-13-13l-.2-6.2c0-.2-.2-.6-.6-.6s-.8.2-.8.6l-.2 6.2c-.4 6.9-6 12.6-13 13l-6.2.2c-.4.2-.6.4-.6.8s.4.8.8.8l6.2.2c6.9.4 12.6 6 13 13l.2 6.2c0 .2.2.6.6.6s.8-.2.8-.6l.4-6.2c.2-6.9 5.8-12.6 12.8-13l6.2-.2c.2 0 .6-.2.6-.6-.1-.5-.3-.8-.6-.8z"/><path d="m58.1 80.4-3.4-.2c-3.7-.2-6.6-3.2-6.7-6.8l-.2-3.4c0-.4-.4-.8-.8-.8s-.8.4-.8.8l-.2 3.4c-.2 3.8-3.2 6.6-6.8 6.8l-3.4.2c-.4 0-.8.4-.8.8s.4.8.8.8l3.4.2c3.8.2 6.6 3.2 6.8 6.8l.2 3.4c0 .4.4.8.8.8s.8-.4.8-.8l.2-3.4c.2-3.8 3.2-6.6 6.8-6.8l3.4-.2c.4 0 .8-.4.8-.8-.2-.4-.5-.8-.9-.8z"/></g></svg>