<svg height="74.304" viewBox="0 0 140.75 74.304" width="140.75" xmlns="http://www.w3.org/2000/svg"><path d="m45.954 270.375a8.508 8.508 0 0 1 -5.817 2.6 14.641 14.641 0 0 1 -14.284-14.612v-1.243h14.285a7.768 7.768 0 0 1 7.763 7.763 7 7 0 0 1 -1.947 5.488m-20.1-30.467h13.2a6.154 6.154 0 0 1 4.5 1.9 6.051 6.051 0 0 1 1.9 4.456 6.448 6.448 0 0 1 -6.4 6.356h-13.2zm19.608 14.565a10.344 10.344 0 0 0 3.073-2.627 9.568 9.568 0 0 0 1.947-5.911 10.433 10.433 0 0 0 -3.706-8.162 11.043 11.043 0 0 0 -7.341-2.674h-18.296v23.032a19.523 19.523 0 0 0 5.606 13.7 18.819 18.819 0 0 0 13.555 5.796 13.115 13.115 0 0 0 9.1-3.917 11.563 11.563 0 0 0 3.307-8.749 10.5 10.5 0 0 0 -2.6-7.247 12.225 12.225 0 0 0 -4.644-3.237m-24.863 13.51v10.039h9.546a20.092 20.092 0 0 1 -9.546-10.039m121.377-1.736a6.885 6.885 0 0 1 -2.2 5.09 7.479 7.479 0 0 1 -5.23 2.111 7.3 7.3 0 0 1 -5.23-2.134 7.226 7.226 0 0 1 -2.181-5.277v-16.63h-4.714v16.393a11.71 11.71 0 0 0 3.424 8.561 11.44 11.44 0 0 0 8.467 3.542 10.688 10.688 0 0 0 7.646-2.885v1.595a10.623 10.623 0 0 1 -2.908 7.787c-2.158 2.158-5.512 3.26-9.945 3.284a35.7 35.7 0 0 1 -4.527-.235l-.68-.094-1.155 4.645.891.094c1.994.188 3.823.281 5.465.281 5.7-.047 10.156-1.618 13.228-4.644a15.076 15.076 0 0 0 4.316-11.141v-27.183h-4.667zm-81.059-6.637a8.382 8.382 0 0 1 2.979-4.386 9.356 9.356 0 0 1 5.793-1.924h.023a7.862 7.862 0 0 1 6.051 2.533 8.407 8.407 0 0 1 1.994 3.8h-16.84zm8.8-10.953a13.733 13.733 0 0 0 -9.874 4.034 14.044 14.044 0 0 0 -4.151 10.555 14.333 14.333 0 0 0 4.151 10.578 13.589 13.589 0 0 0 9.874 4.081 18.8 18.8 0 0 0 11.328-3.776l.61-.446-2.768-3.8-.61.446a14.614 14.614 0 0 1 -8.537 2.885 9.1 9.1 0 0 1 -9.358-9.194h22.559v-.774c0-4.409-1.267-7.974-3.8-10.6a12.383 12.383 0 0 0 -9.429-3.987m27.723.751a11.316 11.316 0 0 0 -6.849 2.416v-2.416h-4.687l.047 28.427h4.691l-.023-14.518v-.094c0-6.919 4.034-9.382 7.505-9.382a11.177 11.177 0 0 1 1.173.023c.586.047 1.876.117 1.876.117h.023l.023-4.363s-.868-.164-1.548-.211a20.947 20.947 0 0 0 -2.228 0m18.271 0a11.316 11.316 0 0 0 -6.849 2.416v-2.416h-4.691l.023 28.427h4.691l-.023-14.518v-.094c0-6.919 4.034-9.382 7.505-9.382a11.177 11.177 0 0 1 1.173.023c.586.047 1.853.117 1.853.117h.023l.023-4.363s-.868-.164-1.548-.211a20.208 20.208 0 0 0 -2.181 0" fill="#0569b2" transform="translate(-20.6 -218.072)"/><path d="m519.757 162.5a21.863 21.863 0 0 1 -4.808 6.849 21.366 21.366 0 0 1 -6.849 4.785h11.657z" fill="#d2d700" transform="translate(-393.76 -162.5)"/><path d="m514.972 230.108a21.367 21.367 0 0 1 4.785 6.849v-11.657h-11.657a21.671 21.671 0 0 1 6.872 4.808" fill="#60a5d5" transform="translate(-393.76 -210.571)"/><path d="m571 237.033a21.863 21.863 0 0 1 4.808-6.849 21.366 21.366 0 0 1 6.849-4.785h-11.657z" fill="#ec634a" transform="translate(-441.907 -210.647)"/><path d="m582.633 174.233a23.913 23.913 0 0 1 -11.633-11.633v11.657l11.633-.023z" fill="#acacad" transform="translate(-441.907 -162.577)"/></svg>