<svg height="18.163" viewBox="0 0 101.67 18.163" width="101.67" xmlns="http://www.w3.org/2000/svg" xmlns:xlink="http://www.w3.org/1999/xlink"><clipPath id="a"><path d="m0 0h18.163v18.163h-18.163z"/></clipPath><g clip-path="url(#a)"><path d="m18.135 6.724a.476.476 0 0 0 -.385-.314l-5.708-.775-2.629-5.368a.468.468 0 0 0 -.434-.267.475.475 0 0 0 -.426.28l-2.473 5.449-5.68.957a.476.476 0 0 0 -.256.808l4.194 4.15-.89 5.973a.476.476 0 0 0 .707.484l5.045-2.881 5.13 2.718a.476.476 0 0 0 .691-.5l-1.062-5.943 4.073-4.282a.476.476 0 0 0 .1-.486" fill="#fff" transform="translate(.001)"/></g><g clip-path="url(#a)" transform="translate(20.877)"><path d="m18.135 6.724a.476.476 0 0 0 -.385-.314l-5.708-.775-2.629-5.368a.468.468 0 0 0 -.434-.267.475.475 0 0 0 -.426.28l-2.473 5.449-5.68.957a.476.476 0 0 0 -.256.808l4.194 4.15-.89 5.973a.476.476 0 0 0 .707.484l5.045-2.881 5.13 2.718a.476.476 0 0 0 .691-.5l-1.062-5.943 4.073-4.282a.476.476 0 0 0 .1-.486" fill="#fff" transform="translate(.001)"/></g><g clip-path="url(#a)" transform="translate(41.754)"><path d="m18.135 6.724a.476.476 0 0 0 -.385-.314l-5.708-.775-2.629-5.368a.468.468 0 0 0 -.434-.267.475.475 0 0 0 -.426.28l-2.473 5.449-5.68.957a.476.476 0 0 0 -.256.808l4.194 4.15-.89 5.973a.476.476 0 0 0 .707.484l5.045-2.881 5.13 2.718a.476.476 0 0 0 .691-.5l-1.062-5.943 4.073-4.282a.476.476 0 0 0 .1-.486" fill="#fff" transform="translate(.001)"/></g><g clip-path="url(#a)" transform="translate(62.63)"><path d="m18.135 6.724a.476.476 0 0 0 -.385-.314l-5.708-.775-2.629-5.368a.468.468 0 0 0 -.434-.267.475.475 0 0 0 -.426.28l-2.473 5.449-5.68.957a.476.476 0 0 0 -.256.808l4.194 4.15-.89 5.973a.476.476 0 0 0 .707.484l5.045-2.881 5.13 2.718a.476.476 0 0 0 .691-.5l-1.062-5.943 4.073-4.282a.476.476 0 0 0 .1-.486" fill="#fff" transform="translate(.001)"/></g><g clip-path="url(#a)" transform="translate(83.507)"><path d="m18.135 6.724a.476.476 0 0 0 -.385-.314l-5.708-.775-2.629-5.368a.468.468 0 0 0 -.434-.267.475.475 0 0 0 -.426.28l-2.473 5.449-5.68.957a.476.476 0 0 0 -.256.808l4.194 4.15-.89 5.973a.476.476 0 0 0 .707.484l5.045-2.881 5.13 2.718a.476.476 0 0 0 .691-.5l-1.062-5.943 4.073-4.282a.476.476 0 0 0 .1-.486" fill="#fff" transform="translate(.001)"/></g></svg>