<svg height="81.732" viewBox="0 0 131.511 81.732" width="131.511" xmlns="http://www.w3.org/2000/svg" xmlns:xlink="http://www.w3.org/1999/xlink"><clipPath id="a"><path d="m0 0h131.511v81.732h-131.511z"/></clipPath><g clip-path="url(#a)"><path d="m50.015 7.643c-.123-.073-.268-.021-.388-.061a.6.6 0 0 0 -.265-.039c-.106.014-.191-.049-.289-.054a1.405 1.405 0 0 1 -.393-.046c-.122-.04-.257 0-.393-.048-.118-.039-.258-.026-.389-.055s-.277-.012-.418-.051c-.124-.034-.259-.012-.392-.051s-.275-.016-.417-.052a3.76 3.76 0 0 0 -.6-.059c-.026 0-.064.011-.075 0-.085-.1-.195-.03-.29-.049s-.191-.041-.288-.051a5.157 5.157 0 0 1 -.622-.061 3.491 3.491 0 0 1 -.365-.051 1.283 1.283 0 0 0 -.394-.044c-.017 0-.042.007-.05 0-.093-.1-.211-.032-.315-.05a1.622 1.622 0 0 0 -.314-.048c-.186.006-.359-.093-.546-.055-.086-.074-.19-.042-.288-.053s-.192-.04-.288-.048a1.461 1.461 0 0 1 -.368-.047c-.121-.042-.257 0-.392-.049-.117-.044-.258-.019-.39-.053s-.276-.014-.417-.053c-.124-.034-.259-.011-.392-.05s-.277 0-.417-.054c-.078-.032-.189.01-.262-.022l.522 1.5 2.027.041-1.611 1.224.587 1.94-1.664-1.158-1.659 1.158.587-1.94-1.62-1.225 2.027-.041.533-1.535c-.088 0-.164-.051-.243-.049a3.506 3.506 0 0 1 -.417-.054 3.88 3.88 0 0 1 -.418-.047c-.249-.048-.507-.049-.757-.103a2.381 2.381 0 0 1 -.438-.063 4.13 4.13 0 0 0 -.429-.084 5.249 5.249 0 0 0 -.675-.117c-.08-.016-.164-.021-.243-.033l.254.84-1.556-1.086c-.05-.018-.1-.033-.151-.046l-1.621 1.128.406-1.339a.952.952 0 0 1 -.232-.037 4.025 4.025 0 0 0 -.687-.138c-.251-.037-.5-.092-.753-.128s-.526-.093-.789-.143c-.071-.014-.14-.038-.211-.05s-.155.026-.211-.053a2.886 2.886 0 0 1 -.577-.1 1.941 1.941 0 0 1 -.413-.062 2.261 2.261 0 0 0 -.312-.057c-.2-.061-.407-.1-.613-.14a1.821 1.821 0 0 1 -.359-.067c-.181-.079-.379-.071-.562-.137-.106-.038-.245-.007-.333-.063-.108-.068-.239.01-.327-.087a4.832 4.832 0 0 1 -.6-.114c-.015 0-.03-.005-.046-.008l-1.032.784.587 1.94-1.669-1.159-1.659 1.158.587-1.94-1.615-1.225 2.027-.041.044-.126h-.009c-.086-.107-.217-.037-.327-.082a3.941 3.941 0 0 0 -.76-.214c-.255-.048-.5-.13-.754-.184-.312-.066-.619-.165-.93-.243-.163-.041-.323-.093-.487-.132-.218-.052-.432-.122-.65-.173a6.9 6.9 0 0 0 -.919-.212c-.377-.187-.815-.172-1.192-.36a10.928 10.928 0 0 1 -1.314-.316c-.5-.129-.991-.26-1.483-.4-.192-.054-.386-.108-.58-.155s-.388-.1-.58-.159c-.299-.092-.599-.177-.899-.259l-.645-.188-.393-.13c-.017.017-.036.035-.056.058a.856.856 0 0 0 .145.6.143.143 0 0 0 .1.071 1 1 0 0 1 .459.271c0 .005 0 .023-.008.045h-.208a1.135 1.135 0 0 1 -.187.37c-.081.07-.183.24-.355.082 0 .076-.02.14 0 .174.094.136.2.263.3.389a2.136 2.136 0 0 0 .053.6.312.312 0 0 1 -.029.19c-.058.171-.119.341-.18.511l1.443-.029.666-1.915.666 1.915 2.027.041-1.614 1.227.587 1.94-1.664-1.159-1.664 1.158.587-1.939-1.159-.88-.037.1a.3.3 0 0 1 -.034-.155l-.2-.148h-.194c-.111.112-.231.223-.339.346a.649.649 0 0 1 -.35.212.777.777 0 0 0 -.378.254c.1.109.027.188-.013.272l-.215-.07c.012-.047.021-.092.035-.135a.8.8 0 0 1 .093-.269c.183-.221.382-.43.582-.637a.418.418 0 0 1 .2-.122.261.261 0 0 0 .149-.08.684.684 0 0 0 .211-.558c-.013-.171-.023-.2-.189-.19a.534.534 0 0 1 -.423-.169 1.548 1.548 0 0 0 -.469-.33c-.162-.066-.332-.111-.494-.177a2.623 2.623 0 0 1 -.723-.308c-.078-.063-.148-.136-.231-.19-.278-.182-.5-.43-.774-.622-.09-.061-.173-.125-.244-.178-.073.041-.125.065-.17.1a1.516 1.516 0 0 0 -.4.609c-.028.055 0 .136-.008.2s-.056.125-.043.185a3.04 3.04 0 0 0 .125.411 1.631 1.631 0 0 1 .13.7 7.783 7.783 0 0 1 -.045.909 3.607 3.607 0 0 0 -.009.695v.667c.15.1.177-.1.284-.076.031.2.022.275-.154.4a.462.462 0 0 0 -.181.439.223.223 0 0 0 .169.189 1.614 1.614 0 0 0 .172.014 5.466 5.466 0 0 1 -.324.862l-.063-.082c.083-.053.016-.148.056-.209.108-.163 0-.262-.091-.385a.767.767 0 0 0 -.072.172 2.063 2.063 0 0 1 -.138.511.448.448 0 0 0 .3.561c.138.042.282.066.421.106.114.033.225.078.338.117a.648.648 0 0 0 .082.13h.059l.666-1.915.662 1.912 2.027.041-1.616 1.225.589 1.94-1.666-1.158-1.664 1.158.587-1.94-.987-.749a.6.6 0 0 1 -.022.057c-.058.113-.087.238-.148.352a.211.211 0 0 0 .045.292.578.578 0 0 0 -.161.323.764.764 0 0 1 -.253.516.4.4 0 0 0 -.143.245c-.019.176-.145.3-.179.471a2.365 2.365 0 0 1 -.21.479 1.793 1.793 0 0 0 -.179.413c-.021.124-.108.212-.123.341s-.143.211-.144.35a.167.167 0 0 0 -.074.062l1.178.024-1.617 1.226.587 1.94-1.127-.784-.07.164c-.1.241-.2.486-.31.723-.01.02-.017.056-.006.068.09.1.023.21.044.3a1.3 1.3 0 0 0 -.371.133 1.627 1.627 0 0 0 -.458.58 2.886 2.886 0 0 1 -.3.548.5.5 0 0 0 -.108.392.216.216 0 0 1 0 .127.544.544 0 0 0 -.046.341 1.891 1.891 0 0 1 -.052.34c-.025.276-.037.553-.054.83 0 .017.007.04 0 .051a.438.438 0 0 0 -.046.34 2.053 2.053 0 0 1 -.056.34 1.02 1.02 0 0 1 -.052.469 3.636 3.636 0 0 1 -.044.708l.776-.016.666-1.915.666 1.915 2.027.041-1.622 1.221.587 1.94-1.664-1.157-1.663 1.158.587-1.94-.431-.323v.076a.088.088 0 0 1 0 .05c-.163.285-.241.605-.382.9-.072.151-.122.311-.187.464a1.049 1.049 0 0 1 -.335.532 6.425 6.425 0 0 0 -.585.507l-.157.309c-.005.071.01.14-.017.184-.09.148-.02.266.05.388.028.049.059.1.086.146l.484.01-.388.294c.031.113.064.225.092.339.058.243.1.491.167.731a2.135 2.135 0 0 1 .134.9l-.126.106c-.026.194-.053.358-.07.523-.022.216-.036.433-.053.649v.025c-.1.083-.034.193-.051.289s-.037.209-.051.314a1.034 1.034 0 0 1 -.042.292.362.362 0 0 0 .036.313 3.706 3.706 0 0 1 .185.413c.185.431.4.848.59 1.277a.826.826 0 0 1 .107.471 1.315 1.315 0 0 1 -.066.308.352.352 0 0 0 0 .332c.111.2.211.418.449.5.073.024.072.059.089.118.03.108.165.192.226.147.093-.068.208-.1.245-.255a.987.987 0 0 1 .205-.5 3.081 3.081 0 0 1 .494.164 3.421 3.421 0 0 1 .439.325 1.82 1.82 0 0 1 -.262.112c-.039.01-.089-.037-.135-.039a.383.383 0 0 0 -.189.026 2.242 2.242 0 0 0 -.255.185 2.132 2.132 0 0 0 .009.473c.025.105.007.232.094.32-.033.18.117.351.026.541-.074-.132-.139-.262-.211-.387a.763.763 0 0 1 -.18-.468.173.173 0 0 0 -.068-.122.611.611 0 0 0 -.152-.067c-.03.052-.059.1-.085.147a.884.884 0 0 0 -.107.447c.011.49.005.98 0 1.47a.83.83 0 0 0 .082.327.722.722 0 0 0 .472.464 1.135 1.135 0 0 1 .231.125c.095.057 0 .177.086.252.042.036 0 .134.05.209.033.052-.031.152-.05.229-.04.164-.1.336-.3.382a.25.25 0 0 0 -.2.2 2.876 2.876 0 0 0 -.052.326l.416-.008.666-1.915.666 1.915 2.027.041-1.607 1.227.587 1.94-1.664-1.158-.245.175c.053.151.135.288.187.439.062.18.155.348.234.522a1.372 1.372 0 0 1 .07.151.754.754 0 0 0 .291.47c.052.032.106.093.068.147-.066.093-.006.215-.059.284-.1.129-.014.186.06.253a1.066 1.066 0 0 1 .331.534.2.2 0 0 1 0 .179c-.011.02-.024.039-.036.059h46.125v-36.401a.972.972 0 0 0 -.174.006" fill="#2a3188"/><path d="m222.709 35.017q.076.019.151.046l-.109-.076z" fill="#2a3188" transform="translate(-188.455 -29.606)"/><path d="m72.814 23.836a.3.3 0 0 0 .034.155l.037-.1-.072-.054" fill="#2a3188" transform="translate(-61.615 -20.168)"/><path d="m45.2 50.881a2.541 2.541 0 0 0 .23.153c.013-.044.032-.072.025-.088a1.862 1.862 0 0 0 -.236-.306l-.773.016c.156.038.319.042.474.09a.767.767 0 0 1 .281.134" fill="#fffdfd" transform="translate(-37.608 -42.852)"/><path d="m25.069 286.292c-.043.071-.088.14-.122.211a.837.837 0 0 0 -.015.328v.025c-.112.113 0 .267-.068.385s-.018.266-.033.4a.242.242 0 0 0 .16.264 8.259 8.259 0 0 1 .887.474.885.885 0 0 1 .124.074c.158.135.313.275.464.409a.4.4 0 0 1 .435-.007 2.927 2.927 0 0 1 .295.224c.084.067.162.141.247.207a.8.8 0 0 1 .381.534.112.112 0 0 0 .046.082c.12.052.184.18.291.232s.154.166.251.2a.8.8 0 0 1 .266.227 2.105 2.105 0 0 1 .2.261 2.523 2.523 0 0 1 .151-.209c.076-.086.131-.087.211-.011s.146.188.226.263a.65.65 0 0 1 .216.586.681.681 0 0 0 0 .077c0 .233.01.241.226.315.127.044.251.1.374.154.044.019.1.042.119.079a4.741 4.741 0 0 0 .353.55h104.963c.066-.049.132-.1.194-.152.165-.144.324-.294.491-.435a.337.337 0 0 1 .218-.1.565.565 0 0 0 .115-.033 4.875 4.875 0 0 1 .518-.116.484.484 0 0 0 .3-.14c.169-.171.341-.34.51-.508a1.452 1.452 0 0 0 -.077-.646c-.093 0-.187.007-.281 0a.437.437 0 0 0 -.417.192c0-.116-.031-.215.005-.262a2.26 2.26 0 0 0 .271-.586c.026-.064.1-.109.173-.186-.058-.018-.1-.017-.11-.035a.432.432 0 0 0 -.35-.162 1.685 1.685 0 0 1 -.421-.127c.14-.042.279.021.381-.072.085-.077.161-.164.242-.247l.183.242c.224-.132.257.115.38.157l.187-.048a1.042 1.042 0 0 0 .3-.086c.235-.154.231-.161.359-.437a1.839 1.839 0 0 0 .078-.2 1.236 1.236 0 0 1 .353-.455c-.026-.033-.065-.06-.063-.082.018-.179-.114-.321-.116-.5 0-.062-.062-.13-.108-.184-.068-.08-.148-.151-.225-.228a3.4 3.4 0 0 0 -.338.789 2.739 2.739 0 0 1 -.276-.69c-.245.092-.491.179-.733.276a1.145 1.145 0 0 1 -.667.136c-.043-.178-.095-.34-.121-.507s-.14-.33-.093-.529c.087.179.171.34.241.508a.112.112 0 0 0 .073.076.416.416 0 0 0 .459-.042c.179-.154.355-.311.542-.475l.16-.008.017-.183a2.056 2.056 0 0 0 .505.04c.047.068.1.152.163.228.014.017.062.007.111.01a1.246 1.246 0 0 0 -.174-.366 1.133 1.133 0 0 1 -.14-.168h-113.467zm30.762 3.808c.045.007.054.011 0 0" fill="#fff" transform="translate(-21.005 -242.258)"/><path d="m361.539 492.007a.118.118 0 0 1 .051.08 1.021 1.021 0 0 0 .051.211c.055.377.235.722.264 1.1a2.4 2.4 0 0 1 .148.455 4.794 4.794 0 0 1 .11.5.725.725 0 0 0 .09.22c.22.337.423.685.633 1.027a1.038 1.038 0 0 0 .4.428 1.607 1.607 0 0 1 .394.29.778.778 0 0 0 .537.2c.11.006.212.072.312.053.144-.027.21.087.308.136.18.09.345.211.539.335a.525.525 0 0 1 .308.051 4.445 4.445 0 0 1 .727.054 2.863 2.863 0 0 1 .417.051.4.4 0 0 1 .107.051c.213.109.43.21.636.331a.806.806 0 0 0 .514.132.225.225 0 0 1 .127 0c.177.108.362.016.533.053a.15.15 0 0 0 -.061-.212.683.683 0 0 1 -.226-.345c-.047-.127-.066-.265-.108-.394a1.49 1.49 0 0 0 -.146-.351.3.3 0 0 1 -.06-.183.383.383 0 0 0 -.01-.15 4.962 4.962 0 0 1 -.14-.689 3.424 3.424 0 0 0 -.066-.463c-.05-.116 0-.247-.085-.345l.249-.186c0-.179 0-.342 0-.505 0-.066.01-.152-.026-.193a.511.511 0 0 0 -.209-.11c-.038-.014-.091.01-.126-.006a.2.2 0 0 1 -.1-.1.451.451 0 0 1 0-.152h.389l.145.146a.93.93 0 0 1 .15-.084c.059-.022.073-.053.1-.112a1.007 1.007 0 0 0 .045-.317c.01-.114.034-.227.05-.34s-.035-.219.049-.316a.1.1 0 0 0 -.007-.1c-.125-.113-.15-.283-.239-.406.111-.153.3-.028.438-.125.058-.04.167-.007.249-.007.014-.023.026-.047.038-.07h-7.993c.165.119.333.235.5.354" fill="#d90e15" transform="translate(-305.51 -416.033)"/><path d="m681.618 491.873a1.916 1.916 0 0 0 .277.323.121.121 0 0 0 .178.018c.087-.054.183-.093.291-.146l.245.854.25-.118-.113.433c.13.153.247.308.382.445a1.377 1.377 0 0 1 .27.38 2.262 2.262 0 0 0 .117.261c.091.142.148.3.252.439a.536.536 0 0 0 .465.265h.258a.184.184 0 0 1 .1.017 1.352 1.352 0 0 1 .371.331 5.056 5.056 0 0 1 .28.426c.1.183.275.323.295.548.094.1.029.229.042.343a.513.513 0 0 0 .141.355.423.423 0 0 0 .418.078c.162-.046.325-.085.486-.132a1.776 1.776 0 0 0 .834-.357c.054-.054.146-.068.208-.116a.14.14 0 0 1 .2-.014c.036.027.092.024.138.04.138.046.144.048.208-.08.056-.11.1-.226.155-.348l-.266-.147a4.569 4.569 0 0 1 .07-.694 2.985 2.985 0 0 1 .047-.34.959.959 0 0 0 .046-.342c0-.034-.014-.083 0-.1.069-.072.04-.158.05-.239s.036-.175.05-.263a2.635 2.635 0 0 0 -.062-.725 6.012 6.012 0 0 0 -.093-.6 1.374 1.374 0 0 1 -.05-.443c-.083-.074-.039-.174-.052-.262s-.038-.174-.05-.263c0-.014 0-.028 0-.042h-6.628a1.283 1.283 0 0 1 .2.219" fill="#d90e15" transform="translate(-576.614 -416.034)"/><path d="m283.234 450.592c.187.171.36.354.559.515.276.223.526.48.784.725a.516.516 0 0 0 .23.132c.272.07.546.133.817.209.232.065.227.069.353-.117.167-.248.325-.5.488-.751.184-.281.366-.564.548-.846h-3.934c.052.044.1.087.155.133" fill="#fff" transform="translate(-239.539 -381.175)"/><path d="m369.469 451.971a1.527 1.527 0 0 0 -.318-.309 2.915 2.915 0 0 0 -.5-.217.648.648 0 0 1 -.4-.271 2.82 2.82 0 0 0 -.225-.273.663.663 0 0 1 .143-.442h-32.388c.139.159.273.321.406.486.243.3.508.582.763.872.1.113.2.226.291.344a.584.584 0 0 1 .088.169c.09.264.169.534.269.792.148.379.27.765.416 1.143a1.447 1.447 0 0 0 .153.376c.2.274.436.521.647.787a1.351 1.351 0 0 1 .194.308 3.651 3.651 0 0 0 .276.634c-.016.144.1.214.185.282.064.049.131.1.2.143h7.993a1.258 1.258 0 0 1 .18-.31.384.384 0 0 0 .062-.2.187.187 0 0 0 -.045-.108c-.044-.064-.059.026-.094.022-.056-.006-.112-.008-.2-.013.04-.076.055-.154.093-.169.216-.08.381-.3.635-.229.08-.079.15-.143.212-.214.048-.055.12-.12.118-.179 0-.118.077-.162.124-.211l.536-.068a.234.234 0 0 0 .173-.186c.01-.053.02-.106.032-.169-.066-.066-.141-.15-.225-.223a.2.2 0 0 1 -.055-.229.531.531 0 0 1 .072-.122c.169.025.254.175.373.267.188-.079.071-.247.138-.379l.273.325a.5.5 0 0 0 .336-.4l.09.44a.772.772 0 0 0 .178-.012c.114-.035.222-.086.335-.124.131-.045.265-.083.4-.124a.219.219 0 0 1 -.111.1 3.687 3.687 0 0 1 -.518.242c-.14.043-.257.136-.4.166a.424.424 0 0 0 -.271.235.364.364 0 0 0 .364-.041c.251-.158.528-.271.771-.445a2.05 2.05 0 0 1 .259-.12c.086-.044.166-.1.25-.145a.779.779 0 0 1 .274-.142c.117-.009.136-.113.219-.151.21-.1.41-.214.616-.321a.214.214 0 0 0 .1-.125c.123-.293.262-.579.394-.869a.2.2 0 0 0 .014-.072c.018-.328.038-.656.051-.984.007-.172 0-.344 0-.516 0-.074-.024-.161.063-.2.111-.056.182-.2.355-.163v.618h.348c-.045.114-.081.222-.232.21-.034 0-.072.031-.105.053-.01.007-.011.029-.016.044l.031-.031.043.144c.1-.047.169-.083.241-.117.34-.155.687-.3 1.018-.469a1.625 1.625 0 0 1 .923-.2 1.015 1.015 0 0 0 .384-.005c.166-.052.339-.046.5-.1.128-.04.268-.025.389-.06a4.247 4.247 0 0 1 .5-.09c.24-.038.46.112.7.111.078.1.2 0 .3.082.079.061.221.039.333.062a2.379 2.379 0 0 1 .335.064c.328.121.682.121 1.009.241a.419.419 0 0 0 .249.023.762.762 0 0 0 .217-.158 1.207 1.207 0 0 0 .092-.091c.005-.327.005-.327.131-.493a2.63 2.63 0 0 1 .458.007 1.253 1.253 0 0 1 .322.154c.022.011.037.04.059.044a1.074 1.074 0 0 1 .6.357.54.54 0 0 0 .428.214c.022 0 .065.016.064.023 0 .12.116.156.167.24a6.229 6.229 0 0 0 .415.561h.31a.551.551 0 0 1 .413.131.907.907 0 0 0 .41.125c.033.007.075-.022.111-.038.123-.056.245-.114.35-.164l.249.159c.1-.053.184-.1.271-.14.036-.016.1-.034.117-.017.071.082.161.036.24.048.1.015.2-.031.292.047.02.017.1-.01.131-.04a1.851 1.851 0 0 0 .37-.516.164.164 0 0 0 .008-.16c-.038-.086 0-.146.077-.156a.328.328 0 0 1 .318.1 1.013 1.013 0 0 0 .579.349.864.864 0 0 1 .472.347c.1.131.219.232.317.357a.114.114 0 0 0 .139.033c.147-.061.29-.131.431-.2a.21.21 0 0 0 .115-.189c0-.043.014-.146 0-.163" fill="#fff" transform="translate(-284.135 -381.174)"/><path d="m667.97 450.623.077.355c.024.112-.054.24.051.34a2.651 2.651 0 0 0 .051.572c.007.059-.022.134.005.178.106.174.029.371.088.557a2.978 2.978 0 0 1 .063.671c0 .026-.011.063 0 .076a.28.28 0 0 1 .045.263c-.017.108.068.189.055.289-.027.212.086.406.054.613h.315v-.465a1.333 1.333 0 0 1 .409.189c-.018.1-.04.191-.052.287-.021.173-.026.348-.055.52a.97.97 0 0 0 .033.667.74.74 0 0 0 .059.207c.086.122.191.232.288.346a3.076 3.076 0 0 1 .339.4.585.585 0 0 0 .082.1h6.628c-.017-.151-.026-.3-.052-.452a.686.686 0 0 0 -.094-.218c-.149-.257-.317-.5-.451-.768s-.3-.527-.452-.791-.293-.5-.441-.748-.306-.487-.433-.748a2.567 2.567 0 0 0 -.2-.356c-.091-.128-.016-.271-.086-.405a1.372 1.372 0 0 1 -.062-.438c-.021-.154-.045-.308-.063-.433-.084-.114-.149-.21-.222-.3l-.089-.105h-.039c-.087 0-.133.021-.152.062l-.333.043-.048.014v-.007s0-.007 0-.011c-.193.031-.335.154-.515.14a2.2 2.2 0 0 0 .834-.54l-.224-.265-.009-.01h-5.6a.54.54 0 0 1 .191.165" fill="#fff" transform="translate(-565.069 -381.174)"/><path d="m124.482 368.253c.275.167.546.341.821.509s.523.315.783.475.546.342.821.51c.205.125.421.235.621.367.343.226.7.426 1.052.637.269.161.536.326.8.492s.556.359.84.526c.214.127.43.25.641.384a.9.9 0 0 0 .624.238h.025c.065.087.158.036.237.05s.175.034.262.052.157.04.237.05c.164.021.333.02.493.058a3.418 3.418 0 0 1 .363.058 1.33 1.33 0 0 0 .241.041c.079.015.157.04.237.05a2.512 2.512 0 0 1 .492.059 4.982 4.982 0 0 0 .791.137c.257.045.517.095.779.124a2.983 2.983 0 0 1 .391.047 2.963 2.963 0 0 0 .6.1c.026 0 .064-.011.075 0 .069.076.158.038.238.051s.174.039.263.049a3.768 3.768 0 0 1 .544.06 3.555 3.555 0 0 1 .389.054 1.352 1.352 0 0 0 .346.046l.1-.626a1.5 1.5 0 0 1 .871-.752.217.217 0 0 1 .068.033 1.281 1.281 0 0 1 .277.012c-.046-.009-.136-.03-.291-.069a4.522 4.522 0 0 1 .868.156 2.277 2.277 0 0 1 .445.046c.135.045.292.022.441.054a5.017 5.017 0 0 0 .648.058c.017 0 .04-.007.051 0 .113.088.247.024.366.054a1.615 1.615 0 0 0 .366.051.84.84 0 0 1 .6.229c.037.031.085.048.122.078.153.13.339.243.387.45.031.132.116.23.154.349a.305.305 0 0 0 .158.18c.124.072.253.136.378.208a.235.235 0 0 1 .089.084c.058.108.113.218.169.327h66.025c.074-.277.156-.551.235-.826.054-.191.127-.382.167-.573.077-.363.2-.71.289-1.069.069-.3.17-.583.257-.876l.133-.026c0-.045 0-.079 0-.114-.007-.081-.092-.16-.046-.233a.889.889 0 0 1 .2-.173c.007-.006.012-.013.018-.018a.486.486 0 0 1 .426-.167c.041-.082.076-.145.105-.21s.059-.153-.014-.2a.242.242 0 0 1 -.125-.133c-.024-.066-.1-.11-.146-.172-.062-.092-.113-.191-.176-.3a1.735 1.735 0 0 1 .3-.068c.167-.007.33-.046.493-.067.209-.027.421-.052.629-.094a.6.6 0 0 0 .442-.228 2.163 2.163 0 0 1 .171-.212c.151-.2.339-.365.477-.575h-90.452c.107.061.214.122.319.185" fill="#fff" transform="translate(-105.066 -311.456)"/><path d="m63.688 327.971c.137.23.3.444.453.664a3.384 3.384 0 0 0 .258.356c.114.125.094.289.157.427a.542.542 0 0 1 .051.184c.023.355-.087.705-.05 1.062v.025c-.112.173-.019.361-.056.538a1.974 1.974 0 0 0 .584.068.121.121 0 0 1 .051 0 2.683 2.683 0 0 0 .654.1c.026 0 .064-.011.075 0 .069.08.16.055.238.046s.154.051.237.057a3.753 3.753 0 0 1 .6.057 3.69 3.69 0 0 1 .415.055 2.232 2.232 0 0 0 .317.044.827.827 0 0 0 .315.05c.034 0 .085-.015.1 0 .07.08.161.054.239.045s.154.052.237.057a3.72 3.72 0 0 1 .6.057c.141.033.286.014.417.052a4.142 4.142 0 0 0 .579.09.951.951 0 0 1 .289.081v.257c.125.071.237.132.346.2q.4.244.8.492c.281.174.558.353.84.525.093.057.188.111.283.165h90.453a1.619 1.619 0 0 1 .212-.216c.154.03.19-.12.283-.176 0-.068-.024-.149.005-.183.056-.064 0-.17.095-.208a1.857 1.857 0 0 0 .614-.484.784.784 0 0 1 .029-.178.25.25 0 0 0 -.043-.318c-.063-.058-.043-.124.018-.174a1.037 1.037 0 0 0 .265-.407c.094-.21.217-.41.294-.626a.66.66 0 0 1 .242-.281c.092-.078.2-.133.3-.2a.3.3 0 0 0 .148-.3c.317-.168.653-.224.952-.377.046-.024.1-.015.158-.057a7.677 7.677 0 0 1 .636-.458.2.2 0 0 0 .109-.173 1 1 0 0 1 .082-.3c.139-.287.288-.569.436-.851.015-.029.046-.068.072-.07.111-.01.141-.116.215-.168l.04-.031h-104.972c.113.158.228.316.328.483" fill="#d90e15" transform="translate(-53.615 -277.118)"/><path d="m804.707 38.264a.736.736 0 0 0 -.225.218h.853a.682.682 0 0 0 -.627-.218" fill="#d90e15" transform="translate(-680.746 -32.37)"/><path d="m818.82 35.931c-.139-.073-.254.038-.383.035-.008 0-.02.025-.024.04-.042.155-.083.31-.12.446l-.071.043h1.685c-.361-.19-.726-.375-1.087-.564" fill="#d90e15" transform="translate(-692.373 -30.384)"/><path d="m750.715 245.171h.255.052c.233-.023.245-.017.362.161.054.082.116.158.167.241a.476.476 0 0 1 .086.195.217.217 0 0 0 .211.232.529.529 0 0 1 .147.069v.225a.237.237 0 0 0 -.2.176c-.034.158-.058.317-.1.473-.031.109 0 .248-.062.333-.078.114.011.253-.091.354a.159.159 0 0 0 0 .147 3.313 3.313 0 0 1 .191.592.722.722 0 0 0 .2.314.539.539 0 0 1 .147-.054c.093 0 .167-.018.177-.129.143-.109.055-.3.155-.426a7.472 7.472 0 0 1 .162-.812 2.281 2.281 0 0 1 .064-.333 5.679 5.679 0 0 0 .136-.614c.038-.19.079-.381.127-.568a2.467 2.467 0 0 0 .025-.348c-.1-.055 0-.188-.091-.246l.029-.058h-2.274c.039.026.079.05.122.074" fill="#d90e15" transform="translate(-635.146 -207.399)"/><path d="m326.313 251.434h67.347a1.6 1.6 0 0 1 -.164-.3c-.021-.051-.021-.126-.058-.154-.107-.081-.1-.187-.1-.3a2.155 2.155 0 0 0 -.1-.912.412.412 0 0 1 -.056-.185c0-.093-.046-.127-.144-.129-.172 0-.344 0-.516 0-.05 0-.115.01-.146-.016-.111-.092-.157.018-.22.062-.037.026-.054.093-.092.1s-.089-.024-.135-.038-.11 0-.162-.05c-.033-.032-.125.009-.151-.06a1.018 1.018 0 0 1 -.037-.186c.238-.063.494-.042.633-.279-.065-.1-.084-.217-.244-.22-.116 0-.182-.123-.225-.23a1.152 1.152 0 0 1 -.044-.187 1.112 1.112 0 0 1 .145-.108.918.918 0 0 1 .156-.042c0-.034.01-.067 0-.084q-.114-.161-.239-.314a.124.124 0 0 0 -.083-.044c-.095 0-.127-.052-.149-.136a1.829 1.829 0 0 0 -.1-.241l.159-.106c0-.2 0-.388 0-.576a.469.469 0 0 0 -.144-.353 1.341 1.341 0 0 1 -.145-.146.478.478 0 0 0 -.327-.145 2.282 2.282 0 0 1 -.414-.06c-.091-.033-.187-.015-.262-.05a1.365 1.365 0 0 1 -.356-.143 1.319 1.319 0 0 0 -.554-.278c-.155-.033-.3-.093-.457-.139-.039-.012-.092 0-.118-.024a.318.318 0 0 1 -.11-.257h-62.388z" fill="#d90e15" transform="translate(-276.124 -207.4)"/><path d="m732.591 245.148.131.127h.175a.893.893 0 0 1 .43.085.617.617 0 0 0 .458.061.17.17 0 0 1 .181.027.262.262 0 0 0 .252.085.248.248 0 0 1 .248.091.317.317 0 0 0 .14.092.738.738 0 0 0 .469.116 5.134 5.134 0 0 1 -.28-.643c0-.028-.043-.053-.071-.073l-.026-.018h-2.098l-.013.05" fill="#d90e15" transform="translate(-619.913 -207.4)"/><path d="m326.313 87.268h36.368c.1-.19.2-.38.3-.571.055-.105.1-.207.249-.205.048 0 .1-.05.143-.084.131-.1.258-.208.4-.322v.714h.241a4.839 4.839 0 0 0 .447-.537c.087-.11.157-.261.3-.309.25-.082.5-.177.754-.239.158-.038.35-.054.438-.236a.537.537 0 0 1 .48-.325c.078-.081.155-.039.247-.018.219.051.43.129.65.179a.655.655 0 0 1 .421.227.457.457 0 0 0 .067.068l.336-.062c.01-.289.01-.289.088-.434.13.087.315.111.355.309.355-.151.724-.229 1.07-.382-.109-.171-.111-.186-.247-.244-.068-.029-.11-.054-.128-.129-.008-.032-.055-.061-.091-.08-.084-.045-.172-.082-.259-.123a2.134 2.134 0 0 0 -.336-.955c-.09.016-.169.029-.248.045s-.157.036-.237.051c-.1.019-.209.039-.314.051a2.212 2.212 0 0 1 -.781-.165c0-.062 0-.114 0-.165 0-.024-.1-.376-.1-.4-.031-.085-.116-.139-.174-.093-.106.084-.215.019-.3.045-.105.08-.2.152-.29.219a.19.19 0 0 1 -.087.037c-.2.02-.4.036-.6.053-.025 0-.063-.009-.075 0-.078.086-.177.033-.265.048a1.138 1.138 0 0 1 -.262.047.8.8 0 0 0 -.467.122c-.09.053-.179.108-.267.164-.163.1-.349.179-.435.378a.36.36 0 0 1 -.144.145c-.083.05-.187.118-.274.063s-.162-.031-.242-.042a2.5 2.5 0 0 1 -.343-.041.965.965 0 0 0 -.614.085c-.1-.136-.251-.245-.357-.4a1.272 1.272 0 0 0 -.389-.359 6.936 6.936 0 0 0 -.729-.354.23.23 0 0 0 -.138.015c-.154.045-.313.068-.465.121a.194.194 0 0 1 -.233-.043l-.238.237c-.006.006-.012.017-.018.017s-.012-.011-.026-.024c0-.095.006-.2 0-.3a.546.546 0 0 1 .3-.518.22.22 0 0 0 .122-.073 3.381 3.381 0 0 1 .329-.38 5.012 5.012 0 0 1 .586-.682v-.274a.3.3 0 0 0 -.078-.007c-.071.014-.14.041-.211.048s-.172 0-.258 0a.128.128 0 0 0 -.066.026c-.073.053-.148.1-.216.164-.291.257-.617.469-.916.713-.4.329-.831.626-1.229.961a1.388 1.388 0 0 1 -.568.309c-.169.041-.339.091-.505.147a1.06 1.06 0 0 0 -.446.237 4.552 4.552 0 0 1 -.521.42.455.455 0 0 1 -.2.063.763.763 0 0 0 -.291.048.266.266 0 0 1 -.225 0 .407.407 0 0 0 -.241-.044c-.188 0-.386-.048-.566.145a3.43 3.43 0 0 0 .1-.409 3.691 3.691 0 0 0 0-.4l-.314-.314a1.391 1.391 0 0 0 -.157.083c-.341.235-.676.482-1.024.706a1.423 1.423 0 0 1 -.356.2 1.941 1.941 0 0 1 -.7.09l-.1-.143c-.054-.079-.048-.1.036-.163.047-.037.086-.082.13-.122.219-.2.416-.42.648-.608.276-.223.506-.5.783-.727.255-.209.469-.463.724-.678.285-.24.532-.524.822-.761a.633.633 0 0 1 .266-.17.564.564 0 0 0 .066-.022h-28.905z" fill="#d90e15" transform="translate(-276.124 -68.484)"/><path d="m596.024 115.121a1.334 1.334 0 0 0 -.533-.207 1.525 1.525 0 0 1 -.486-.2c-.033-.022-.07-.059-.1-.057a.665.665 0 0 1 -.334-.13c-.123-.06-.224-.162-.344-.23a.438.438 0 0 0 -.456-.07.2.2 0 0 1 -.211-.026.661.661 0 0 0 -.23-.063c-.072-.016-.149.024-.22-.031s-.154.028-.225.043c-.1.022-.236 0-.317.1a1.029 1.029 0 0 0 -.167.24c-.019.047.03.12.044.183a.559.559 0 0 1 0 .077.661.661 0 0 0 .159.347c.039.041.075.085.126.144-.047.031-.1.055-.145.081h3.626a.8.8 0 0 0 -.185-.2" fill="#d90e15" transform="translate(-501.279 -96.54)"/><path d="m355.218 51.926c.118-.043.228-.118.348-.158a.655.655 0 0 0 .262-.178c.127-.128.254-.257.384-.382.028-.026.074-.033.1-.057a1.287 1.287 0 0 0 .11-.108 1.058 1.058 0 0 0 .09-.092c.027-.034.08-.051.083-.1a1.549 1.549 0 0 1 -.252-.047c-.127-.046-.244-.122-.373-.157a.836.836 0 0 0 -.334-.071 2.97 2.97 0 0 0 -.5.047 1.142 1.142 0 0 1 -.644-.115c-.13-.039-.264-.132-.384-.114s-.26.016-.389.031a.163.163 0 0 0 -.065.03c-.108.072-.211.152-.323.217a.421.421 0 0 1 -.38.045 1.165 1.165 0 0 1 -.574-.36 1.09 1.09 0 0 0 -.108-.111.293.293 0 0 0 -.172-.086.907.907 0 0 1 -.419-.159 1.617 1.617 0 0 0 -.488-.265 1.355 1.355 0 0 0 -.223-.084.129.129 0 0 1 -.1-.072.592.592 0 0 0 -.338-.284 2.558 2.558 0 0 1 -.33-.142c-.1-.04-.209-.122-.309-.117-.289.015-.569-.068-.856-.061a.407.407 0 0 0 -.295.1.374.374 0 0 1 -.316.11.838.838 0 0 0 -.129 0c-.169.008-.223.048-.383-.149a.245.245 0 0 0 -.1-.057c-.164-.062-.328-.121-.492-.181a.227.227 0 0 0 -.067-.024c-.172 0-.344 0-.516 0-.036 0-.094.055-.1.046-.088-.087-.2-.042-.292-.045a.154.154 0 0 1 -.159-.123c-.079-.208-.169-.411-.256-.616-.028-.067-.083-.112-.112-.186-.075-.184-.128-.376-.206-.56s-.149-.385-.219-.568l-.494-.069v1.36a.037.037 0 0 1 -.011.021c-.005.006-.013.01-.007.006-.1-.015-.186-.032-.275-.041-.06-.006-.12 0-.18 0-.654 0-1.307.011-1.96 0a18.7 18.7 0 0 1 -1.94-.041c-.478-.06-.965.025-1.449-.053-.34-.055-.689.024-1.037-.05a4.084 4.084 0 0 0 -.669-.01c-.225-.009-.45-.032-.675-.05a5.435 5.435 0 0 1 -.858-.042 2.1 2.1 0 0 0 -.642-.005 17.213 17.213 0 0 0 -1.585-.1 3.883 3.883 0 0 0 -.669-.011c-.225-.009-.45-.032-.675-.05a2.06 2.06 0 0 1 -.7-.052 4.553 4.553 0 0 1 -.8-.053 1.44 1.44 0 0 1 -.472-.043 1.307 1.307 0 0 0 -.358-.01c-.122-.009-.243-.037-.366-.049a1.91 1.91 0 0 1 -.523-.046 1.308 1.308 0 0 0 -.333-.008c-.105-.008-.209-.039-.314-.048a1.677 1.677 0 0 1 -.6-.053 8.526 8.526 0 0 1 -.881-.052c-.2 0-.4-.05-.6-.057v4.811z" fill="#fff" transform="translate(-276.124 -39.478)"/><path d="m382.228 162.76a1.293 1.293 0 0 0 -.212.324.546.546 0 0 1 -.154.247.326.326 0 0 1 -.188.11c-.1.014-.124.144-.19.213-.211.221-.426.435-.622.67-.165.2-.361.368-.544.55-.34.082-.4.02-.656.289-.186.2-.4.367-.6.549-.018.016-.04.041-.06.041-.17 0-.3.114-.453.15a.378.378 0 0 0 -.174.081c-.176.151-.36.3-.545.431-.271.2-.527.417-.8.611-.214.151-.42.315-.63.472-.032.024-.068.057-.1.058a3.843 3.843 0 0 1 -.392.062.78.78 0 0 0 -.323.083c-.206.084-.41.174-.609.274a.444.444 0 0 1 -.212.049c-.214 0-.429 0-.639 0l-.059-.059c-.072-.073-.141-.164-.249-.046a.637.637 0 0 1 -.474-.1.826.826 0 0 0 -.48-.211 1.738 1.738 0 0 1 -.369-.114c.078-.115.151-.221.221-.329.123-.19.245-.379.363-.572a.214.214 0 0 0 .037-.137.91.91 0 0 1 .009-.626.9.9 0 0 1 .248-.469c.016-.012.093-.1 0-.158 0-.209-.027-.422.17-.576a.541.541 0 0 0 .1-.157c.176-.016.349.038.5-.079 0-.476 0-.957 0-1.437a.335.335 0 0 0 -.075-.226c-.005-.006-.008-.013-.013-.018h-9.226q.269.529.537 1.059a.486.486 0 0 1 .053.183 6.069 6.069 0 0 0 .052 1.114 1.15 1.15 0 0 1 -.122.62c-.1.311-.179.629-.29.936-.1.286-.174.582-.255.874a.577.577 0 0 1 -.21.351c-.259.178-.5.381-.739.583a.519.519 0 0 1 -.267.161 1.4 1.4 0 0 1 -.735-.153.125.125 0 0 1 -.061-.056c-.13-.334-.3-.651-.445-.976a5.066 5.066 0 0 0 -.243-.542 1.26 1.26 0 0 1 -.087-.61c0-.009 0-.02 0-.026-.072-.105-.023-.233-.058-.338a1.1 1.1 0 0 1 -.045-.342c0-.026.01-.062 0-.075-.093-.086-.009-.206-.053-.288a.6.6 0 0 1 -.046-.291c0-.043.018-.1 0-.126-.068-.083-.039-.176-.05-.265s-.043-.192-.047-.288-.075-.18-.059-.289c.02-.138.025-.278.046-.418.033-.21.108-.408.135-.621.008-.058.021-.118.032-.177h-35.558v6.336h69.3c0-.215-.006-.431 0-.646s0-.387-.228-.47c-.015-.005-.024-.024-.037-.036a.551.551 0 0 0 -.366-.173c-.057-.006-.107-.02-.127-.065-.031-.072-.082-.165-.059-.224a3.019 3.019 0 0 1 .144-.456 3.409 3.409 0 0 0 .211-.506c.028-.073.04-.2.159-.194.171 0 .191-.138.247-.243a.265.265 0 0 0 .041-.136c-.012-.14.087-.18.182-.232.367-.2.715-.434 1.073-.651.09-.055.177-.111.188-.2a.41.41 0 0 1 .152-.248c.048-.049.1-.1.145-.146a2.453 2.453 0 0 0 .524-.043 3.045 3.045 0 0 0 .4-.1c.265-.108.538-.195.806-.3a5.822 5.822 0 0 0 .573-.235 7.548 7.548 0 0 0 .752-.425.571.571 0 0 0 .276-.528c0-.026 0-.053 0-.08h-18.39a.338.338 0 0 0 -.05.052" fill="#d90e15" transform="translate(-276.124 -137.682)"/><path d="m693.869 122.3a2.867 2.867 0 0 0 -.572.611c-.076.128-.09.166 0 .283.056.076.128.111.212.03.01-.01.03-.009.046-.012a.261.261 0 0 1 .247.137c.022.055-.056.191-.136.222a.389.389 0 0 1 -.1 0 .41.41 0 0 0 -.063.014v.225l.135.136a1.392 1.392 0 0 1 .162.166 1.152 1.152 0 0 1 .107.213.3.3 0 0 1 .038.137 1.745 1.745 0 0 1 -.06.243 2.038 2.038 0 0 0 -.319.117 2.133 2.133 0 0 0 -.261.112 3.2 3.2 0 0 0 -.326.351 1.969 1.969 0 0 1 -.522.461 6.81 6.81 0 0 1 -.929.243.809.809 0 0 0 -.419.114.24.24 0 0 1 -.295 0 .679.679 0 0 0 -.448-.1c-.1.009-.206 0-.309 0a.969.969 0 0 0 -.712.151c-.005 0-.016 0-.024 0a6.878 6.878 0 0 0 -.775.308c-.13.059-.267.1-.4.157-.181.076-.36.156-.539.234.154.365.372.684.492 1.05.022.068.082.136.074.2a.54.54 0 0 1 -.113.209.343.343 0 0 1 -.057.06h18.385a.77.77 0 0 1 .005-.152.392.392 0 0 1 .152-.321c.055.039.144.071.148.11.01.121.107.2.126.319a.63.63 0 0 0 .226-.02 1.066 1.066 0 0 0 .435-.266 2.666 2.666 0 0 1 .345-.347.391.391 0 0 1 .129-.052l.163.256a.46.46 0 0 0 .373-.05 1.461 1.461 0 0 0 .234-.182.392.392 0 0 1 .288-.117.176.176 0 0 0 .115-.03 4.88 4.88 0 0 0 .382-.383.23.23 0 0 0 .032-.307 3.026 3.026 0 0 1 -.153-.349c-.083-.16-.068-.167-.264-.145-.006.231.151.439.1.665a1.689 1.689 0 0 1 -.179.136c-.046.027-.129.064-.152.045-.1-.084-.215-.024-.32-.042a1.873 1.873 0 0 0 -.314-.048.287.287 0 0 1 -.275-.167c-.089-.147-.166-.325-.378-.357a.119.119 0 0 1 -.081-.142c.022-.126-.142-.183-.121-.311l-.222-.151c-.126-.021-.257-.038-.386-.065a.257.257 0 0 1 -.149-.21c-.016-.174.1-.274.214-.387a.543.543 0 0 1 .212-.538l-.682-.762c0-.161 0-.342 0-.522a.214.214 0 0 1 .033-.114c.137-.194.278-.384.418-.576a.446.446 0 0 0 .063-.1c.067-.185.126-.373.2-.556h-13.09a.779.779 0 0 1 -.14.175" fill="#fff" transform="translate(-581.844 -103.344)"/><path d="m362.116 127.374a2.22 2.22 0 0 0 .113-.545 4.675 4.675 0 0 0 0-.722c-.019-.239.076-.466.054-.7a.887.887 0 0 1 .076-.382c.092-.263.187-.525.292-.781s.2-.521.3-.778a.469.469 0 0 0 -.113-.614c-.135.182-.272.362-.4.548a.55.55 0 0 0 -.1.215c-.033.2-.049.411-.072.624a.649.649 0 0 0 -.44.229 5.425 5.425 0 0 0 -.583.636.623.623 0 0 1 -.1.09c0-.091-.019-.153 0-.191.13-.223.174-.479.285-.708a.449.449 0 0 1 .092-.141 1.427 1.427 0 0 0 .315-.464c.2-.409.43-.8.647-1.2.064-.119.127-.239.191-.359h-36.359v6.242h35.561a4.021 4.021 0 0 1 .1-.409c.059-.192.074-.394.141-.586" fill="#fff" transform="translate(-276.124 -103.343)"/><path d="m583.963 126.972c-.03-.124-.028-.289-.18-.362a2.193 2.193 0 0 0 -.28-.425c-.142-.229-.316-.439-.476-.657a.368.368 0 0 1 -.067.057c-.288.134-.584.25-.868.4a.39.39 0 0 0 -.179.212 1.916 1.916 0 0 0 -.059.285.947.947 0 0 1 -.126.332 1.173 1.173 0 0 1 -.3.206c-.23.148-.223.181-.495 0a.917.917 0 0 1 .041-.389 1.017 1.017 0 0 1 .362-.7.274.274 0 0 0 .037-.036 1 1 0 0 0 .332-.559.719.719 0 0 1 .1-.243.642.642 0 0 0 .159-.721c-.037-.139-.078-.279-.115-.418a2.055 2.055 0 0 0 -.3-.857.423.423 0 0 1 -.057-.335.268.268 0 0 1 .159-.2c-.06-.1-.112-.178-.162-.261-.033-.056-.067-.111-.1-.164h-3.627a8.73 8.73 0 0 0 -.82.406v1c-.174.026-.214.172-.274.309-.094-.286-.06-.6-.279-.849-.083.061-.194.108-.243.191a.924.924 0 0 1 -.173.21c-.14.132-.287.258-.434.383a.219.219 0 0 1 -.083.026v.194a.351.351 0 0 1 -.091.275c-.131.151-.116.163-.116.388v1.165a1.99 1.99 0 0 0 -.2.351 1.471 1.471 0 0 0 -.008.307c-.008.1-.04.192-.048.288-.022.268-.036.536-.053.8 0 .017.007.042 0 .05-.12.122-.028.229.025.335l.209.412h9.226a1.513 1.513 0 0 1 -.279-.688c-.056-.236-.1-.474-.161-.708" fill="#fff" transform="translate(-486.462 -103.343)"/><path d="m42.5 50.345c-.048-.023-.108.013-.162.062l.324-.007a.825.825 0 0 1 -.162-.055" transform="translate(-35.828 -42.596)"/><path d="m41.165 43.3 1.664-1.158 1.664 1.158-.587-1.94 1.615-1.225-2.027-.035-.666-1.915-.665 1.915h-.063a1.864 1.864 0 0 1 .236.306c.008.015-.012.044-.025.088a2.574 2.574 0 0 1 -.23-.153.765.765 0 0 0 -.281-.134c-.154-.048-.318-.053-.474-.09l-.324.007a.829.829 0 0 0 -.064.065 1.3 1.3 0 0 0 -.178.429l.987.748z" fill="#fff" transform="translate(-34.495 -32.311)"/><path d="m104.959 43.305 1.664-1.158 1.664 1.158-.587-1.94 1.615-1.225-2.027-.041-.666-1.915-.666 1.915-2.027.041 1.615 1.225z" fill="#fff" transform="translate(-87.945 -32.311)"/><path d="m172.577 43.305 1.664-1.158 1.664 1.158-.587-1.94 1.615-1.225-2.027-.041-.666-1.915-.666 1.915-2.027.041 1.615 1.225z" fill="#fff" transform="translate(-145.163 -32.311)"/><path d="m239.045 42.206 1.615 1.225-.587 1.94 1.664-1.158 1.663 1.157-.587-1.94 1.615-1.225-2.027-.041-.522-1.5h-.01a.4.4 0 0 0 -.246-.028c-.007 0-.013 0-.019 0l-.534 1.535z" fill="#fff" transform="translate(-202.278 -34.377)"/><path d="m37.873 101.031 1.664-1.158 1.664 1.158-.587-1.94 1.615-1.225-2.029-.042-.666-1.915-.666 1.915-2.027.041 1.619 1.225z" fill="#fff" transform="translate(-31.178 -81.158)"/><path d="m106.787 95.91-.666 1.915-2.027.041 1.615 1.225-.587 1.94 1.664-1.158 1.664 1.158-.587-1.94 1.615-1.225-2.027-.041z" fill="#fff" transform="translate(-88.085 -81.158)"/><path d="m174.405 95.91-.666 1.915-2.027.041 1.615 1.225-.587 1.94 1.664-1.158 1.664 1.158-.587-1.94 1.615-1.225-2.027-.041z" fill="#fff" transform="translate(-145.302 -81.158)"/><path d="m240.824 99.09-.587 1.94 1.664-1.158 1.664 1.158-.587-1.94 1.615-1.225-2.027-.041-.666-1.914-.666 1.915-2.027.041z" fill="#fff" transform="translate(-202.417 -81.158)"/><path d="m1.156 166.089a.382.382 0 0 1 .031.063c.025.079.043.16.065.241l.388-.294z" transform="translate(-.978 -140.543)"/><path d="m37.873 158.557 1.664-1.158 1.664 1.158-.587-1.94 1.615-1.225-2.027-.041-.666-1.915-.666 1.915-2.027.041 1.615 1.225z" fill="#fff" transform="translate(-31.178 -129.837)"/><path d="m107.453 155.351-.666-1.915-.666 1.915-2.027.041 1.615 1.225-.587 1.94 1.664-1.158 1.664 1.158-.587-1.94 1.615-1.225z" fill="#fff" transform="translate(-88.084 -129.837)"/><path d="m175.071 155.351-.666-1.915-.666 1.915-2.027.041 1.615 1.225-.587 1.94 1.664-1.158 1.664 1.158-.587-1.94 1.615-1.225z" fill="#fff" transform="translate(-145.303 -129.837)"/><path d="m242.567 155.351-.666-1.915-.666 1.915-2.027.041 1.615 1.225-.587 1.94 1.664-1.157 1.664 1.158-.587-1.94 1.615-1.225z" fill="#fff" transform="translate(-202.417 -129.837)"/><path d="m42.221 213.229-2.027-.041-.666-1.915-.666 1.915-2.027.041 1.615 1.225-.587 1.94 1.664-1.158 1.664 1.158-.587-1.94z" fill="#fff" transform="translate(-31.171 -178.778)"/><path d="m109.471 213.229-2.027-.041-.666-1.915-.666 1.915-2.027.041 1.615 1.225-.587 1.94 1.664-1.158 1.664 1.158-.587-1.94z" fill="#fff" transform="translate(-88.077 -178.778)"/><path d="m177.089 213.229-2.027-.041-.666-1.915-.666 1.915-2.027.041 1.615 1.225-.587 1.94 1.664-1.158 1.664 1.158-.587-1.94z" fill="#fff" transform="translate(-145.296 -178.778)"/><path d="m244.587 213.229-2.027-.041-.666-1.915-.666 1.915-2.027.041 1.615 1.225-.587 1.94 1.664-1.158 1.664 1.158-.587-1.94z" fill="#fff" transform="translate(-202.411 -178.778)"/><path d="m71.581 22.864h-.045l.2.149c-.008-.112-.041-.145-.151-.149" transform="translate(-60.533 -19.347)"/><g fill="#fff"><path d="m73.281 11.523 1.159.879-.587 1.94 1.664-1.158 1.664 1.158-.587-1.94 1.615-1.225-2.027-.041-.666-1.915-.666 1.915-1.443.03-.074.209c-.018.05-.036.1-.054.149" transform="translate(-62.01 -7.803)"/><path d="m137.917 21.021 1.615 1.225-.587 1.94 1.664-1.158 1.664 1.158-.587-1.94 1.034-.784a.829.829 0 0 0 -.294-.042 1.328 1.328 0 0 0 -.557-.143 4.658 4.658 0 0 0 -.837-.167 1.309 1.309 0 0 0 -.506-.142 3.348 3.348 0 0 0 -.539-.113l-.044.126z" transform="translate(-116.704 -17.646)"/><path d="m213.789 34.01a1.125 1.125 0 0 0 -.271-.04 1.406 1.406 0 0 1 -.211-.048 1.354 1.354 0 0 1 -.214-.042c-.095-.031-.206-.036-.311-.059a1.438 1.438 0 0 0 -.209-.024l-.405 1.341z" transform="translate(-179.535 -28.6)"/><path d="m224.5 35.607a1.969 1.969 0 0 0 -.389-.059c-.063-.01-.123-.039-.186-.049a1.076 1.076 0 0 1 -.2-.012l-.03-.009 1.555 1.082-.254-.84a.657.657 0 0 1 -.119-.026c-.124-.044-.253-.039-.376-.086" transform="translate(-189.285 -30.021)"/><path d="m24.6 80.614 1.615-1.225-1.178-.024c-.05.076-.031.184-.074.265a6.086 6.086 0 0 0 -.349.809c-.048.137-.123.26-.171.393-.115.318-.249.628-.383.939l1.126.783z" transform="translate(-20.359 -67.158)"/><path d="m71.357 71.925 1.664-1.158 1.664 1.158-.587-1.94 1.615-1.225-2.027-.041-.665-1.919-.666 1.915-2.027.041 1.615 1.225z" transform="translate(-59.511 -56.529)"/><path d="m139.546 69.985-.587 1.94 1.664-1.158 1.664 1.158-.587-1.94 1.615-1.225-2.027-.041-.666-1.915-.666 1.915-2.027.041z" transform="translate(-116.716 -56.529)"/><path d="m207.111 69.985-.587 1.94 1.664-1.158 1.664 1.158-.587-1.94 1.615-1.225-2.027-.041-.666-1.915-.666 1.915-2.027.041z" transform="translate(-173.889 -56.529)"/><path d="m273.756 72.261 1.664-1.161 1.664 1.158-.587-1.94 1.615-1.225-2.027-.041-.666-1.915-.666 1.915-2.027.041 1.615 1.225z" transform="translate(-230.78 -56.814)"/><path d="m10.037 129.508 1.663-1.158 1.664 1.158-.587-1.94 1.615-1.225-2.027-.041-.666-1.915-.666 1.915-.776.016a1.352 1.352 0 0 0 -.005.148c.012.262-.07.518-.056.78l.426.323z" transform="translate(-8.493 -105.255)"/><path d="m73.312 128.35 1.664 1.158-.587-1.94 1.611-1.225-2.027-.041-.666-1.915-.666 1.915-2.027.041 1.615 1.225-.587 1.94z" transform="translate(-59.758 -105.255)"/><path d="m140.915 124.387-.666 1.915-2.027.041 1.615 1.225-.587 1.94 1.664-1.158 1.664 1.158-.587-1.94 1.615-1.225-2.027-.041z" transform="translate(-116.963 -105.255)"/><path d="m209.145 126.3-.666-1.915-.666 1.915-2.027.041 1.615 1.225-.587 1.94 1.664-1.158 1.664 1.158-.587-1.94 1.615-1.225z" transform="translate(-174.136 -105.256)"/><path d="m275.711 124.724-.665 1.915-2.027.041 1.615 1.225-.587 1.94 1.664-1.158 1.664 1.158-.587-1.94 1.615-1.225-2.027-.041z" transform="translate(-231.027 -105.54)"/><path d="m6.829 184.982 1.615-1.225-2.027-.041-.665-1.916-.666 1.915-2.027.041 1.615 1.225-.587 1.94 1.664-1.158 1.664 1.158z" transform="translate(-2.589 -153.839)"/><path d="m73.687 183.717-.666-1.915-.666 1.915-2.027.041 1.615 1.225-.587 1.94 1.664-1.158 1.664 1.158-.587-1.94 1.615-1.225z" transform="translate(-59.512 -153.839)"/><path d="m141.289 183.717-.666-1.915-.666 1.915-2.027.041 1.615 1.225-.587 1.94 1.664-1.158 1.664 1.158-.587-1.94 1.615-1.225z" transform="translate(-116.716 -153.839)"/><path d="m208.853 183.717-.666-1.915-.666 1.915-2.027.041 1.615 1.225-.587 1.94 1.664-1.158 1.664 1.158-.587-1.94 1.615-1.225z" transform="translate(-173.888 -153.839)"/><path d="m275.42 182.138-.666 1.915-2.027.041 1.615 1.225-.587 1.94 1.664-1.158 1.664 1.158-.587-1.94 1.615-1.225-2.027-.041z" transform="translate(-230.78 -154.124)"/><path d="m16.214 244.786-.587-1.94 1.615-1.225-2.027-.041-.666-1.915-.666 1.915-.416.008c0 .029-.007.057-.01.086a.575.575 0 0 0 .03.244c.046.118.1.236.145.353.145.344.3.684.454 1.024a2.473 2.473 0 0 1 .187.411.952.952 0 0 0 .03.092l.245-.17z" transform="translate(-11.388 -202.803)"/><path d="m73.687 241.58-.666-1.915-.666 1.915-2.027.041 1.615 1.225-.587 1.94 1.664-1.158 1.664 1.158-.587-1.94 1.615-1.225z" transform="translate(-59.512 -202.803)"/><path d="m141.289 241.58-.666-1.915-.666 1.915-2.027.041 1.615 1.225-.587 1.94 1.664-1.158 1.664 1.158-.587-1.94 1.615-1.225z" transform="translate(-116.716 -202.803)"/><path d="m208.853 241.58-.666-1.915-.666 1.915-2.027.041 1.615 1.225-.587 1.94 1.664-1.158 1.664 1.158-.587-1.94 1.615-1.225z" transform="translate(-173.888 -202.803)"/><path d="m276.085 241.916-.665-1.916-.666 1.915-2.027.041 1.615 1.225-.587 1.94 1.664-1.158 1.664 1.158-.587-1.94 1.615-1.225z" transform="translate(-230.78 -203.087)"/></g><path d="m226.425 311.045c.054.011.045.007 0 0" transform="translate(-191.599 -263.204)"/><path d="m395.609 203.9h-69.3v6.336h62.391a.315.315 0 0 1 0-.032.272.272 0 0 1 .2-.269l-.08.3h2.094c-.081-.055-.163-.108-.237-.157.045-.033.105-.058.13-.1.015-.027-.038-.084-.039-.128 0-.089-.061-.148-.091-.221a2 2 0 0 1 -.225-.889 2.374 2.374 0 0 0 -.046-.314c-.009-.12 0-.241 0-.361a.165.165 0 0 0 -.02-.069c-.057-.114-.116-.227-.182-.355.113-.11.24-.225.357-.349s.234-.263.347-.4a.558.558 0 0 0 .108-.161c.05-.143.087-.291.129-.436.169.008.245.069.242.207a.5.5 0 0 1 -.151.376 1.665 1.665 0 0 0 -.164.165.309.309 0 0 0 -.1.243c.017.112-.042.229.065.336a.336.336 0 0 1 .037.429c-.063.111-.137.216-.2.321l.127.133c.331 0 .329 0 .39.335.02.108.058.212.088.323-.254.253-.264.259-.242.559a.662.662 0 0 0 .343.514h2.274l.1-.191a.808.808 0 0 0 .054-.107 1.246 1.246 0 0 0 .121-.6.259.259 0 0 1 .01-.149.352.352 0 0 0 -.08-.425c-.189-.228-.379-.458-.546-.7-.226-.332-.476-.645-.715-.967-.156-.211-.31-.425-.476-.627-.085-.1-.056-.191-.026-.316.155.128.3.23.421.35a.7.7 0 0 0 .438.188.631.631 0 0 1 .36.134.314.314 0 0 0 .366.045.441.441 0 0 1 .177-.017 1.741 1.741 0 0 1 .108.425c-.185.191-.375.378-.572.575.061.068.118.113.2.057a1.145 1.145 0 0 0 .16-.11c.1-.1.2-.2.3-.294.009.015.017.031.027.045a.654.654 0 0 0 .1-.123c.014-.031.027-.062.041-.093l.044-.043a.138.138 0 0 0 .045-.16c.017-.04.035-.079.052-.119s.023-.051.034-.077l.052.078.477-.236a3.407 3.407 0 0 0 -.038-.809c0-.036 0-.071 0-.106l.02-.043a.715.715 0 0 0 .1-.439l.218-.216v-1.112l.155.062a.828.828 0 0 0 .04-.167c0-.017 0-.034 0-.051m-.686 2.709c-.107.078-.2.139-.283.208q.137-.315.284-.626v.418" fill="#fff" transform="translate(-276.124 -172.541)"/><path d="m748.594 80.938s0 0 0-.006h-8.514a.394.394 0 0 0 -.05.226c.009.116-.02.241.1.32.006 0 0 .031-.008.067a2.1 2.1 0 0 1 -.222 0c-.03 0-.044-.074-.094-.012s-.048.076-.006.129c.025.032.017.089.026.149a.608.608 0 0 1 -.144-.018.343.343 0 0 0 -.39.043 1.77 1.77 0 0 1 -.651.354.285.285 0 0 0 -.213.267c-.009.071-.04.14-.048.211s0 .155 0 .232c-.009.1-.041.226-.138.24-.242.036-.467.136-.709.158a1 1 0 0 0 -.185.054c-.063.017-.136 0-.2.024-.3.1-.607.154-.906.241-.186.054-.376.085-.562.137-.3.084-.612.139-.914.224-.194.055-.392.09-.586.138-.242.06-.489.1-.732.166-.11.029-.249 0-.333.062-.108.076-.241-.015-.327.088a5.829 5.829 0 0 0 -.733.16c-.11.029-.249 0-.333.062-.108.075-.221.029-.331.078a3.008 3.008 0 0 1 -.6.136c-.225.245-.472.514-.718.783-.159.174-.318.349-.473.527-.025.028-.025.075-.044.11a2.364 2.364 0 0 0 -.152.582 1.423 1.423 0 0 1 -.154.4h13.09c.012-.032.022-.064.036-.1a1.42 1.42 0 0 0 .13-.72.349.349 0 0 1 0-.179c.137-.269.265-.549.579-.658.137.094.168.3.366.314.129-.208.059-.45.1-.706l.245.2.314-.233c-.048-.179.05-.309.121-.457h.313c.16-.14.1-.354.2-.5l.141.183h.3v-.237c-.1-.009-.125-.085-.172-.153s.009-.175-.086-.194a.627.627 0 0 0 -.2.026c0-.15.01-.3 0-.449a.508.508 0 0 1 .271-.492l.273.486a1.46 1.46 0 0 0 .284-.04.48.48 0 0 1 .386-.017 1.5 1.5 0 0 1 .18.107c.187-.108.189-.108.258-.329a.835.835 0 0 1 .287-.394c.035-.028.1-.009.157-.057a.557.557 0 0 0 .236-.44 2.709 2.709 0 0 1 .319-.167.721.721 0 0 0 .374-.272.252.252 0 0 1 .113-.1.329.329 0 0 0 .247-.209c.007-.023.05-.039.079-.051.079-.031.159-.059.252-.092l.115-.129a.436.436 0 0 0 .038-.283" fill="#d90e15" transform="translate(-617.087 -68.484)"/><path d="m807.806 45.853c0-.062-.023-.137 0-.174.1-.135.034-.252-.019-.37a.939.939 0 0 1 -.1-.219 1.158 1.158 0 0 0 -.133-.259.233.233 0 0 1 -.232.249.879.879 0 0 1 -.863-.277.514.514 0 0 0 -.022-.168 5 5 0 0 1 -.2-.487.255.255 0 0 0 -.16-.14c-.177-.036-.36-.047-.541-.067-.022-.077-.049-.152-.067-.23a5.724 5.724 0 0 1 -.207-.766c-.111-.12-.1-.287-.145-.429a.958.958 0 0 1 -.113-.444 9.541 9.541 0 0 1 -.307-.982c-.133-.393-.243-.794-.365-1.19a.214.214 0 0 0 -.074-.122l-.08-.042h-1.678c-.091.056-.179.111-.269.157a.7.7 0 0 1 -.33.138c-.145 0-.29 0-.433 0a1.8 1.8 0 0 0 -.228-.293h-.853a.735.735 0 0 0 -.108.265c-.028.145-.078.279-.119.417-.111.375-.207.754-.343 1.121a.716.716 0 0 0 -.049.329c.006.048.03.107.032.164.022.457-.021.913.043 1.373.062.443-.021.9.052 1.346a5.028 5.028 0 0 1 .007.824.262.262 0 0 1 -.019.12 2.285 2.285 0 0 1 -.182.285.647.647 0 0 0 -.059.092h8.514c0-.246-.108-.314-.356-.22" fill="#fff" transform="translate(-676.656 -33.625)"/><path d="m326.354 415.228a2.532 2.532 0 0 0 -.353-.444.719.719 0 0 1 -.207-.328 4.888 4.888 0 0 0 -.254-.592c-.136-.33-.292-.653-.435-.981-.127-.291-.26-.58-.382-.874-.167-.4-.369-.793-.544-1.193-.076-.174-.185-.353-.057-.556a.157.157 0 0 0 0-.126c-.063-.144-.02-.3-.057-.442a.725.725 0 0 1 0-.4l.008-.029h-66.022c.031.061.062.122.1.182a.925.925 0 0 0 .164.215c.238.229.486.448.724.677.272.263.536.534.8.8.042.042.078.1.129.125.171.076.263.236.4.351.027.024.027.077.051.106.1.125-.007.3.1.423a7.942 7.942 0 0 0 .151.865c.039.191.062.385.1.577a1.45 1.45 0 0 1 .061.338.84.84 0 0 0 .126.438c.067.128.164.241.234.368a2.549 2.549 0 0 0 .529.709q.093.081.187.16h3.933c.1-.159.207-.317.309-.477.057-.089.112-.231.276-.187.009 0 .023-.025.037-.032a.793.793 0 0 1 .662.006.747.747 0 0 0 .251.076c.206.011.413 0 .619 0s.41.07.624.057c.306-.019.615 0 .928 0 .1.13.2.262.305.376.056.059.108.121.161.182h32.387a1.038 1.038 0 0 1 .127-.132l.432-.38a2.433 2.433 0 0 0 .069-.284 2.479 2.479 0 0 0 0-.283c0-.008 0-.019 0-.024.127-.129 0-.2-.072-.265a.538.538 0 0 0 -.155-.069.257.257 0 0 1 -.056.047 1.716 1.716 0 0 0 -.732.475c-.059.076-.137.042-.213.043a1.615 1.615 0 0 1 -.122-.39c-.005-.1-.153-.253-.206-.218-.1.068-.239.024-.333.141a.767.767 0 0 1 -.634.265.208.208 0 0 1 -.116-.03 1.3 1.3 0 0 1 -.355-.31c.018-.121.026-.219.05-.313a.236.236 0 0 1 .147-.194c.158-.055.31-.124.466-.182a.127.127 0 0 1 .1 0c.079.058.172.042.257.066.231.066.464.126.7.19.169.047.338.1.507.145.18-.1.366-.216.556-.32a.21.21 0 0 1 .138-.021c.084.02.163.066.247.085a.2.2 0 0 0 .138-.026 5.2 5.2 0 0 0 .463-.312.267.267 0 0 1 .18-.068h1.522c.043 0 .1-.016.125.005.074.076.161.045.241.044a.306.306 0 0 0 .3-.266 5.125 5.125 0 0 1 .1-.577c.032-.118.018-.25.06-.363a1.555 1.555 0 0 0 .052-.442 1.242 1.242 0 0 1 .1.217 5.077 5.077 0 0 0 .115.65c.034.105.017.212.059.31a.535.535 0 0 1 0 .384c-.041.135-.106.293.062.394.422-.137.84-.268 1.254-.413.08-.028.176-.027.243-.1.093-.1.194-.2.291-.293a1.921 1.921 0 0 1 .195-.142.43.43 0 0 0 .267-.164c.034-.047.071-.091.113-.145.1.211-.11.357-.06.538a1.362 1.362 0 0 0 .376-.063c.14-.029.285-.048.424-.089s.283-.062.421-.107.284-.058.424-.092a.876.876 0 0 1 .44-.058.751.751 0 0 1 .157.093c-.047.048-.072.094-.105.1-.058.013-.09.026-.083.094a.131.131 0 0 0 .106.122c.342.108.658.28.995.4.24.086.475.183.711.276a1.206 1.206 0 0 1 .654.413c.1.15.227.28.325.434a.448.448 0 0 0 .387.175c.167-.055.341-.093.5-.157s.34-.091.506-.149a2.576 2.576 0 0 0 .375-.152c.121-.065.226-.16.343-.233.151-.094.289-.219.493-.185.075.013.121-.045.125-.123s0-.137 0-.208l.229-.23a2.031 2.031 0 0 0 .5-.048.665.665 0 0 1 .452.078c.076.029.158-.008.234.063.181.17.393.309.571.481a1.435 1.435 0 0 0 .638.419c.02.149.03.281.059.409a.148.148 0 0 0 .106.087.5.5 0 0 1 .309.191c.115.116.227.236.348.345.078.071.164.168.257.181a3.07 3.07 0 0 1 .394.115 1.664 1.664 0 0 1 .377.143h5.6a4.325 4.325 0 0 1 -.316-.372" fill="#d90e15" transform="translate(-218.361 -346.316)"/></g></svg>