<svg height="216.037" viewBox="0 0 268.677 216.037" width="268.677" xmlns="http://www.w3.org/2000/svg" xmlns:xlink="http://www.w3.org/1999/xlink"><clipPath id="a"><path d="m0 0h81.34v148.398h-81.34z"/></clipPath><clipPath id="b"><path d="m0 0h125.525v134.138h-125.525z"/></clipPath><filter id="c" filterUnits="userSpaceOnUse" height="78.597" width="73.38" x="195.296" y="0"><feOffset dy="4"/><feGaussianBlur result="blur" stdDeviation="5"/><feFlood flood-opacity=".161"/><feComposite in2="blur" operator="in"/><feComposite in="SourceGraphic"/></filter><path d="m9.1 10.5v1.5h-5.816v-1.38l2.816-2.988a2.651 2.651 0 0 0 .892-1.732q0-1-1.152-1a3.22 3.22 0 0 0 -1.1.21 4.7 4.7 0 0 0 -1.128.606l-.592-1.336a3.754 3.754 0 0 1 1.3-.69 5.2 5.2 0 0 1 1.62-.258 3.249 3.249 0 0 1 2.106.636 2.079 2.079 0 0 1 .786 1.7 3.038 3.038 0 0 1 -.306 1.356 6 6 0 0 1 -1.026 1.396l-1.888 1.98zm5.6-2.856a2.015 2.015 0 0 1 1.556 2.056 2.082 2.082 0 0 1 -.852 1.758 3.742 3.742 0 0 1 -2.3.642 5.584 5.584 0 0 1 -1.68-.252 3.563 3.563 0 0 1 -1.308-.7l.584-1.332a3.983 3.983 0 0 0 2.316.816 1.831 1.831 0 0 0 1.116-.27 1 1 0 0 0 .348-.846.939.939 0 0 0 -.348-.816 1.932 1.932 0 0 0 -1.116-.252h-1.216v-1.448h1.008a1.884 1.884 0 0 0 1.092-.256.892.892 0 0 0 .354-.78 1 1 0 0 0 -.312-.792 1.317 1.317 0 0 0 -.9-.276 3.22 3.22 0 0 0 -1.1.21 4.484 4.484 0 0 0 -1.116.606l-.594-1.332a3.749 3.749 0 0 1 1.3-.69 5.292 5.292 0 0 1 1.638-.258 3.763 3.763 0 0 1 1.512.282 2.284 2.284 0 0 1 1 .8 2.069 2.069 0 0 1 .354 1.2 2.042 2.042 0 0 1 -.354 1.194 1.984 1.984 0 0 1 -.974.736zm4.728-4.1v1.232a3.132 3.132 0 0 1 -.238 1.254 3.826 3.826 0 0 1 -.834 1.158l-.708-.564a2.585 2.585 0 0 0 .732-1.164h-.888v-1.92zm2.484 0v1.232a3.132 3.132 0 0 1 -.246 1.254 3.826 3.826 0 0 1 -.834 1.158l-.708-.564a2.585 2.585 0 0 0 .732-1.164h-.888v-1.92z" fill="#00194a" transform="translate(16.333 94.282)"/><path d="m6.612 10.5v1.5h-5.82v-1.38l2.82-2.988a2.651 2.651 0 0 0 .888-1.732q0-1-1.152-1a3.22 3.22 0 0 0 -1.1.21 4.7 4.7 0 0 0 -1.128.606l-.592-1.336a3.754 3.754 0 0 1 1.3-.69 5.2 5.2 0 0 1 1.62-.258 3.249 3.249 0 0 1 2.106.636 2.079 2.079 0 0 1 .786 1.7 3.038 3.038 0 0 1 -.31 1.36 6 6 0 0 1 -1.03 1.392l-1.88 1.98zm4.716-3.972a2.8 2.8 0 0 1 1.392.342 2.391 2.391 0 0 1 .948.954 2.9 2.9 0 0 1 .332 1.416 2.786 2.786 0 0 1 -.4 1.5 2.656 2.656 0 0 1 -1.14 1 3.94 3.94 0 0 1 -1.722.354 5.125 5.125 0 0 1 -1.6-.258 3.621 3.621 0 0 1 -1.284-.69l.588-1.332a4.021 4.021 0 0 0 2.316.816 1.622 1.622 0 0 0 1.11-.336 1.263 1.263 0 0 0 .378-1 1.273 1.273 0 0 0 -.39-.984 1.5 1.5 0 0 0 -1.062-.36 2.349 2.349 0 0 0 -.834.156 2.639 2.639 0 0 0 -.75.432h-1.062v-5h5.452v1.43h-3.628v1.884a2.721 2.721 0 0 1 1.356-.324zm11.388 3.972h1.824v1.5h-5.52v-1.5h1.824v-4.884l-1.44.84-.704-1.344 2.684-1.572h1.332zm3.348 2.424-1.356-.408 3.108-9.7 1.356.408zm9.48-2.424v1.5h-5.82v-1.38l2.82-2.988a2.651 2.651 0 0 0 .888-1.732q0-1.008-1.152-1.008a3.22 3.22 0 0 0 -1.1.21 4.7 4.7 0 0 0 -1.128.606l-.592-1.328a3.754 3.754 0 0 1 1.3-.69 5.2 5.2 0 0 1 1.62-.258 3.249 3.249 0 0 1 2.106.636 2.079 2.079 0 0 1 .786 1.7 3.038 3.038 0 0 1 -.306 1.356 6 6 0 0 1 -1.03 1.396l-1.884 1.98zm3.132-6.96v1.236a3.132 3.132 0 0 1 -.246 1.254 3.826 3.826 0 0 1 -.83 1.158l-.708-.564a2.585 2.585 0 0 0 .728-1.164h-.888v-1.92zm2.484 0v1.236a3.132 3.132 0 0 1 -.246 1.254 3.826 3.826 0 0 1 -.834 1.158l-.708-.564a2.585 2.585 0 0 0 .728-1.164h-.888v-1.92zm-39.054 24.215a8.84 8.84 0 0 1 -.927-2.088 7.8 7.8 0 0 1 0-4.068 8.84 8.84 0 0 1 .927-2.088l.747.306a11.026 11.026 0 0 0 -.616 1.98 9.691 9.691 0 0 0 0 3.672 11.026 11.026 0 0 0 .616 1.98zm4.158-5.823a1.95 1.95 0 0 1 1 .257 1.789 1.789 0 0 1 .688.72 2.366 2.366 0 0 1 -.023 2.151 1.917 1.917 0 0 1 -.756.752 2.222 2.222 0 0 1 -1.1.27 2.244 2.244 0 0 1 -1.859-.814 3.641 3.641 0 0 1 -.652-2.326 4.761 4.761 0 0 1 .311-1.8 2.509 2.509 0 0 1 .9-1.161 2.393 2.393 0 0 1 1.386-.4 3.258 3.258 0 0 1 1.107.193 2.836 2.836 0 0 1 .936.545l-.387.846a2.643 2.643 0 0 0 -1.615-.665 1.223 1.223 0 0 0 -1.08.59 3.211 3.211 0 0 0 -.4 1.705 1.49 1.49 0 0 1 .621-.635 1.879 1.879 0 0 1 .923-.228zm-.243 3.231a1.023 1.023 0 0 0 .788-.315 1.194 1.194 0 0 0 .291-.848 1.17 1.17 0 0 0 -.3-.837 1.037 1.037 0 0 0 -.792-.315 1.073 1.073 0 0 0 -.806.319 1.144 1.144 0 0 0 -.302.833 1.156 1.156 0 0 0 .311.841 1.085 1.085 0 0 0 .81.322zm7.7-1.305v.9h-.891v1.242h-1.13v-1.242h-2.754v-.858l2.954-4.245h.936v4.2zm-3.7 0h1.679v-2.421zm4.428.9h1.26v1.242h-1.26zm2.241-5.1h4.419v.864l-2.875 5.478h-1.234l2.871-5.409h-3.171zm9.936 6.417a2.46 2.46 0 0 1 -1.2-.279 1.887 1.887 0 0 1 -.775-.796 2.757 2.757 0 0 1 .014-2.407 1.987 1.987 0 0 1 .806-.815 2.456 2.456 0 0 1 1.206-.288 2.87 2.87 0 0 1 .914.148 1.924 1.924 0 0 1 .715.4l-.324.792a2.139 2.139 0 0 0 -.59-.342 1.739 1.739 0 0 0 -.616-.117 1.153 1.153 0 0 0 -.909.364 1.844 1.844 0 0 0 0 2.088 1.153 1.153 0 0 0 .909.365 1.739 1.739 0 0 0 .616-.117 2.139 2.139 0 0 0 .59-.342l.324.783a2.029 2.029 0 0 1 -.738.41 2.967 2.967 0 0 1 -.937.15zm7.614-4.581a1.366 1.366 0 0 1 1.116.445 2.108 2.108 0 0 1 .374 1.361v2.7h-1.13v-2.655a1.241 1.241 0 0 0 -.171-.733.64.64 0 0 0 -.549-.229.859.859 0 0 0 -.7.306 1.309 1.309 0 0 0 -.252.855v2.456h-1.122v-2.655a1.267 1.267 0 0 0 -.167-.733.638.638 0 0 0 -.553-.229.849.849 0 0 0 -.693.306 1.309 1.309 0 0 0 -.252.855v2.456h-1.125v-4.4h1.1v.621a1.316 1.316 0 0 1 .549-.545 1.7 1.7 0 0 1 .8-.184 1.28 1.28 0 0 1 1.323.828 1.5 1.5 0 0 1 .594-.608 1.714 1.714 0 0 1 .863-.221zm2.36 5.955a11.026 11.026 0 0 0 .617-1.98 9.691 9.691 0 0 0 0-3.672 11.026 11.026 0 0 0 -.617-1.98l.747-.306a8.839 8.839 0 0 1 .927 2.088 7.8 7.8 0 0 1 0 4.068 8.839 8.839 0 0 1 -.927 2.088z" fill="#00194a" transform="translate(130.333 87.782)"/><path d="m59.271 10.5v1.5h-5.82v-1.38l2.82-2.988a2.651 2.651 0 0 0 .888-1.732q0-1.008-1.152-1.008a3.22 3.22 0 0 0 -1.1.21 4.7 4.7 0 0 0 -1.128.606l-.592-1.328a3.754 3.754 0 0 1 1.3-.69 5.2 5.2 0 0 1 1.62-.258 3.249 3.249 0 0 1 2.106.636 2.079 2.079 0 0 1 .786 1.7 3.038 3.038 0 0 1 -.306 1.356 6 6 0 0 1 -1.03 1.396l-1.884 1.98zm7.548-1.476v1.428h-1.152v1.548h-1.824v-1.548h-3.543v-1.38l3.867-5.532h1.5v5.484zm-4.812 0h1.836v-2.64zm7.593-5.484v1.236a3.132 3.132 0 0 1 -.246 1.254 3.826 3.826 0 0 1 -.834 1.158l-.708-.564a2.585 2.585 0 0 0 .732-1.164h-.888v-1.92zm2.484 0v1.236a3.132 3.132 0 0 1 -.246 1.254 3.826 3.826 0 0 1 -.834 1.158l-.704-.564a2.585 2.585 0 0 0 .732-1.164h-.888v-1.92zm-27.039 24.215a8.84 8.84 0 0 1 -.927-2.088 7.8 7.8 0 0 1 0-4.068 8.84 8.84 0 0 1 .927-2.088l.747.306a11.026 11.026 0 0 0 -.617 1.98 9.691 9.691 0 0 0 0 3.672 11.026 11.026 0 0 0 .617 1.98zm4.155-5.823a1.95 1.95 0 0 1 1 .257 1.789 1.789 0 0 1 .688.72 2.366 2.366 0 0 1 -.022 2.151 1.917 1.917 0 0 1 -.756.752 2.47 2.47 0 0 1 -2.957-.545 3.641 3.641 0 0 1 -.653-2.327 4.761 4.761 0 0 1 .311-1.8 2.509 2.509 0 0 1 .9-1.161 2.393 2.393 0 0 1 1.386-.4 3.258 3.258 0 0 1 1.107.193 2.836 2.836 0 0 1 .936.545l-.387.846a2.643 2.643 0 0 0 -1.613-.663 1.223 1.223 0 0 0 -1.08.59 3.211 3.211 0 0 0 -.4 1.705 1.49 1.49 0 0 1 .621-.635 1.879 1.879 0 0 1 .919-.228zm-.243 3.231a1.023 1.023 0 0 0 .787-.315 1.194 1.194 0 0 0 .296-.848 1.17 1.17 0 0 0 -.3-.837 1.037 1.037 0 0 0 -.792-.315 1.073 1.073 0 0 0 -.806.319 1.144 1.144 0 0 0 -.311.833 1.156 1.156 0 0 0 .311.841 1.085 1.085 0 0 0 .818.322zm5.247.918a1.981 1.981 0 0 1 -1.719-.832 4.153 4.153 0 0 1 -.594-2.426 4.094 4.094 0 0 1 .594-2.4 2.2 2.2 0 0 1 3.438 0 4.094 4.094 0 0 1 .594 2.4 4.156 4.156 0 0 1 -.594 2.421 1.977 1.977 0 0 1 -1.716.837zm0-.909a.931.931 0 0 0 .891-.562 4.254 4.254 0 0 0 .279-1.787 4.16 4.16 0 0 0 -.279-1.768.994.994 0 0 0 -1.782 0 4.16 4.16 0 0 0 -.279 1.768 4.254 4.254 0 0 0 .279 1.787.931.931 0 0 0 .894.562zm3.186-.414h1.26v1.242h-1.26zm4.239-5.184a2.244 2.244 0 0 1 1.859.814 3.641 3.641 0 0 1 .653 2.326 4.761 4.761 0 0 1 -.311 1.8 2.509 2.509 0 0 1 -.9 1.161 2.393 2.393 0 0 1 -1.386.4 3.258 3.258 0 0 1 -1.107-.193 2.836 2.836 0 0 1 -.936-.545l.387-.846a2.643 2.643 0 0 0 1.611.657 1.226 1.226 0 0 0 1.101-.588 3.288 3.288 0 0 0 .4-1.719 1.544 1.544 0 0 1 -.621.644 1.823 1.823 0 0 1 -.927.238 1.968 1.968 0 0 1 -1.008-.257 1.789 1.789 0 0 1 -.688-.72 2.21 2.21 0 0 1 -.248-1.058 2.168 2.168 0 0 1 .275-1.093 1.957 1.957 0 0 1 .756-.752 2.2 2.2 0 0 1 1.093-.269zm.063 3.231a1.085 1.085 0 0 0 .814-.319 1.144 1.144 0 0 0 .311-.833 1.156 1.156 0 0 0 -.311-.841 1.085 1.085 0 0 0 -.814-.319 1.03 1.03 0 0 0 -.792.319 1.187 1.187 0 0 0 -.3.841 1.17 1.17 0 0 0 .3.837 1.037 1.037 0 0 0 .795.315zm7.875 3.267a2.46 2.46 0 0 1 -1.2-.279 1.887 1.887 0 0 1 -.777-.793 2.757 2.757 0 0 1 .014-2.407 1.987 1.987 0 0 1 .805-.815 2.456 2.456 0 0 1 1.206-.288 2.87 2.87 0 0 1 .913.148 1.924 1.924 0 0 1 .715.4l-.324.792a2.139 2.139 0 0 0 -.59-.342 1.739 1.739 0 0 0 -.617-.117 1.153 1.153 0 0 0 -.909.364 1.844 1.844 0 0 0 0 2.088 1.153 1.153 0 0 0 .909.365 1.739 1.739 0 0 0 .617-.117 2.139 2.139 0 0 0 .59-.342l.324.783a2.03 2.03 0 0 1 -.738.41 2.967 2.967 0 0 1 -.935.15zm7.614-4.581a1.366 1.366 0 0 1 1.116.445 2.108 2.108 0 0 1 .369 1.363v2.701h-1.122v-2.655a1.241 1.241 0 0 0 -.171-.733.64.64 0 0 0 -.549-.229.859.859 0 0 0 -.7.306 1.309 1.309 0 0 0 -.252.855v2.456h-1.127v-2.655a1.267 1.267 0 0 0 -.167-.733.638.638 0 0 0 -.553-.229.849.849 0 0 0 -.693.306 1.309 1.309 0 0 0 -.252.855v2.456h-1.125v-4.4h1.1v.621a1.316 1.316 0 0 1 .549-.545 1.7 1.7 0 0 1 .8-.184 1.28 1.28 0 0 1 1.323.828 1.5 1.5 0 0 1 .594-.608 1.714 1.714 0 0 1 .863-.221zm2.358 5.958a11.026 11.026 0 0 0 .617-1.98 9.691 9.691 0 0 0 0-3.672 11.026 11.026 0 0 0 -.617-1.98l.747-.306a8.839 8.839 0 0 1 .927 2.088 7.8 7.8 0 0 1 0 4.068 8.839 8.839 0 0 1 -.927 2.088z" fill="#00194a" transform="translate(110 188.282)"/><g clip-path="url(#a)" fill="#9397aa" transform="translate(0 24.383)"><path d="m78.257 6.667c-9.85-4.162-22.979-6.667-37.587-6.667s-27.738 2.505-37.588 6.667c-1.07.452-2.092.927-3.082 1.417v132.229c.99.49 2.012.965 3.082 1.418 9.85 4.162 22.979 6.667 37.588 6.667s27.737-2.505 37.588-6.667c1.07-.452 2.092-.928 3.082-1.418v-132.228c-.99-.491-2.012-.966-3.082-1.418m0 38.993v92.676c-9.664 4.338-23.049 7.077-37.588 7.077s-27.924-2.739-37.588-7.077v-113.585c10.013-3.851 23.273-6.242 37.588-6.242s27.574 2.391 37.587 6.242v20.91zm0-31.327v7.008c-10.139-3.711-23.183-5.914-37.588-5.914s-27.45 2.203-37.588 5.915v-11.281c9.664-4.338 23.049-7.077 37.588-7.077s27.924 2.739 37.588 7.077z"/><path d="m53.825 197.045a123.037 123.037 0 0 1 -13.45-.732l-1.328-.147v-13.514l1.656.184a121.418 121.418 0 0 0 26.245 0l1.656-.184v13.514l-1.328.147a123.04 123.04 0 0 1 -13.45.732m-11.794-3.559a121.841 121.841 0 0 0 23.588 0v-7.514a124.591 124.591 0 0 1 -23.588 0z" transform="translate(-13.155 -61.536)"/></g><g fill="#00194a"><path d="m1 97h-2v-97h2z" transform="translate(12.833 57.782)"/><path d="m112 1h-112v-2h112z" transform="translate(117.833 180.782)"/><path d="m1 106h-2v-106h2z" transform="translate(124.833 46.782)"/><path d="m3.5 0 3.5 6h-7z" transform="translate(9.333 53.282)"/><path d="m3.5 0 3.5 6h-7z" transform="translate(121.333 43.282)"/><path d="m3.5 0 3.5 6h-7z" transform="matrix(-1 0 0 -1 16.333 159.282)"/><path d="m3.5 0 3.5 6h-7z" transform="matrix(-1 0 0 -1 128.333 157.282)"/><path d="m3.5 0 3.5 6h-7z" transform="matrix(0 -1 1 0 111.833 184.282)"/><path d="m3.5 0 3.5 6h-7z" transform="matrix(0 1 -1 0 232.833 177.282)"/></g><g fill="#9397aa" transform="translate(110 31.154)"><path d="m3.1 3.1h119.32v127.933h-119.32zm-3.1 131.038h125.525v-134.138h-125.525z"/><g clip-path="url(#b)"><path d="m103.737 8.606a3.145 3.145 0 0 1 -3.142 3.142h-17.065a3.145 3.145 0 0 1 -3.141-3.142v-4.124h-3.1v4.124a6.253 6.253 0 0 0 6.245 6.246h17.066a6.253 6.253 0 0 0 6.246-6.246v-4.124h-3.1z" transform="translate(-29.301 -1.699)"/><path d="m0 0h47.164v1.863h-47.164z" transform="translate(2.372 5.543)"/><path d="m0 0h47.164v1.863h-47.164z" transform="translate(75.783 5.543)"/></g></g><g filter="url(#c)" transform="translate(.004 -.004)"><path d="m34.536 133.955h-19.473a4.826 4.826 0 0 0 -4.18 2.414l-9.736 16.863a4.826 4.826 0 0 0 0 4.827l9.736 16.863a4.826 4.826 0 0 0 4.18 2.414h19.473a4.826 4.826 0 0 0 4.18-2.414l9.736-16.863a4.826 4.826 0 0 0 0-4.827l-9.736-16.863a4.826 4.826 0 0 0 -4.18-2.414z" fill="#00194a" transform="matrix(0 -1 1 0 76.34 60.1)"/></g><path d="m30.634 15.75h2.736v2.25h-8.28v-2.25h2.736v-7.326l-2.16 1.26-1.066-2.016 4.036-2.358h2zm10.872-4.284a3.022 3.022 0 0 1 2.322 3.078 3.122 3.122 0 0 1 -1.278 2.637 5.613 5.613 0 0 1 -3.456.963 8.376 8.376 0 0 1 -2.52-.378 5.344 5.344 0 0 1 -1.962-1.044l.882-2a5.975 5.975 0 0 0 3.474 1.224 2.747 2.747 0 0 0 1.674-.4 1.506 1.506 0 0 0 .522-1.269 1.408 1.408 0 0 0 -.522-1.224 2.9 2.9 0 0 0 -1.674-.378h-1.818v-2.181h1.512a2.826 2.826 0 0 0 1.629-.378 1.339 1.339 0 0 0 .531-1.17 1.5 1.5 0 0 0 -.468-1.188 1.975 1.975 0 0 0 -1.354-.414 4.83 4.83 0 0 0 -1.656.315 6.726 6.726 0 0 0 -1.674.909l-.882-2a5.623 5.623 0 0 1 1.953-1.035 7.938 7.938 0 0 1 2.459-.385 5.645 5.645 0 0 1 2.268.423 3.426 3.426 0 0 1 1.5 1.2 3.1 3.1 0 0 1 .531 1.8 3.062 3.062 0 0 1 -.531 1.791 2.975 2.975 0 0 1 -1.462 1.104z" fill="#fff" transform="translate(197.986 18.282)"/><path d="m31.2 4.888v2.76a3.978 3.978 0 0 1 -.96.312 5.7 5.7 0 0 1 -1.136.112 3.267 3.267 0 0 1 -1.552-.348 2.4 2.4 0 0 1 -1.008-1 3.213 3.213 0 0 1 -.352-1.548 3.208 3.208 0 0 1 .348-1.532 2.41 2.41 0 0 1 1-1 3.119 3.119 0 0 1 1.512-.352 3.688 3.688 0 0 1 1.132.168 2.468 2.468 0 0 1 .868.464l-.392.888a2.913 2.913 0 0 0 -.764-.4 2.528 2.528 0 0 0 -.8-.124q-1.632 0-1.632 1.9a2.148 2.148 0 0 0 .424 1.456 1.619 1.619 0 0 0 1.28.48 3.6 3.6 0 0 0 .92-.12v-1.252h-1.1v-.864zm5.36 3.112-.536-1.248h-2.624l-.536 1.248h-1.256l2.592-5.64h1l2.592 5.64zm-2.752-2.192h1.808l-.9-2.112zm4.456 2.192v-5.64h1.248v4.624h2.52v1.016z" fill="#fff" transform="translate(197.987 38.282)"/></svg>