<svg height="212.037" viewBox="0 0 270.082 212.037" width="270.082" xmlns="http://www.w3.org/2000/svg" xmlns:xlink="http://www.w3.org/1999/xlink"><filter id="a" filterUnits="userSpaceOnUse" height="78.597" width="73.38" x="196.701" y="0"><feOffset dy="4"/><feGaussianBlur result="blur" stdDeviation="5"/><feFlood flood-opacity=".161"/><feComposite in2="blur" operator="in"/><feComposite in="SourceGraphic"/></filter><clipPath id="b"><path d="m0 0h87.212v103.387h-87.212z"/></clipPath><g fill="#00194a"><path d="m7.454 10.5h1.824v1.5h-5.52v-1.5h1.824v-4.884l-1.44.84-.708-1.344 2.688-1.572h1.332zm6.456-4a2.533 2.533 0 0 1 1.326.348 2.43 2.43 0 0 1 .912.972 2.982 2.982 0 0 1 .33 1.416 2.944 2.944 0 0 1 -.372 1.482 2.636 2.636 0 0 1 -1.032 1.02 3.016 3.016 0 0 1 -1.488.366 3.111 3.111 0 0 1 -2.544-1.092 4.786 4.786 0 0 1 -.9-3.12 6.023 6.023 0 0 1 .432-2.392 3.238 3.238 0 0 1 3.144-2.07 4.715 4.715 0 0 1 1.512.246 3.581 3.581 0 0 1 1.248.7l-.6 1.332a3.57 3.57 0 0 0 -2.088-.808 1.471 1.471 0 0 0 -1.278.666 3.64 3.64 0 0 0 -.512 1.934 1.983 1.983 0 0 1 .78-.726 2.35 2.35 0 0 1 1.13-.274zm-.432 4.152a1.172 1.172 0 0 0 .906-.372 1.4 1.4 0 0 0 .342-.984 1.38 1.38 0 0 0 -.342-.972 1.172 1.172 0 0 0 -.906-.372 1.191 1.191 0 0 0 -.912.372 1.365 1.365 0 0 0 -.348.972 1.387 1.387 0 0 0 .348.978 1.182 1.182 0 0 0 .912.382zm5.952-7.112v1.236a3.132 3.132 0 0 1 -.246 1.254 3.826 3.826 0 0 1 -.834 1.158l-.708-.564a2.585 2.585 0 0 0 .732-1.164h-.888v-1.92zm2.484 0v1.236a3.132 3.132 0 0 1 -.246 1.254 3.826 3.826 0 0 1 -.834 1.158l-.708-.564a2.585 2.585 0 0 0 .732-1.164h-.888v-1.92z" transform="translate(34.606 104.282)"/><path d="m4.956 10.5h1.824v1.5h-5.52v-1.5h1.824v-4.884l-1.44.84-.708-1.344 2.688-1.572h1.332zm7.572-2.856a2.088 2.088 0 0 1 1.128.75 2.125 2.125 0 0 1 .4 1.3 2.068 2.068 0 0 1 -.864 1.764 3.957 3.957 0 0 1 -2.392.642 3.957 3.957 0 0 1 -2.388-.636 2.068 2.068 0 0 1 -.864-1.764 2.138 2.138 0 0 1 .4-1.32 2.046 2.046 0 0 1 1.14-.732 1.978 1.978 0 0 1 -1.32-1.92 1.989 1.989 0 0 1 .812-1.678 3.6 3.6 0 0 1 2.22-.618 3.615 3.615 0 0 1 2.226.612 1.99 1.99 0 0 1 .81 1.68 2.1 2.1 0 0 1 -.348 1.2 1.816 1.816 0 0 1 -.96.72zm-1.728-2.784q-1.284 0-1.284 1.068t1.284 1.08q1.284 0 1.284-1.08t-1.284-1.068zm0 5.808q1.512 0 1.512-1.116t-1.512-1.116q-1.512 0-1.512 1.116t1.512 1.116zm6.132-7.128v1.236a3.132 3.132 0 0 1 -.246 1.254 3.826 3.826 0 0 1 -.834 1.158l-.708-.564a2.585 2.585 0 0 0 .732-1.164h-.888v-1.92zm2.484 0v1.236a3.132 3.132 0 0 1 -.246 1.254 3.826 3.826 0 0 1 -.834 1.158l-.708-.564a2.585 2.585 0 0 0 .732-1.164h-.888v-1.92zm-17.31 24.215a8.84 8.84 0 0 1 -.927-2.088 7.8 7.8 0 0 1 0-4.068 8.84 8.84 0 0 1 .927-2.088l.747.306a11.026 11.026 0 0 0 -.616 1.98 9.691 9.691 0 0 0 0 3.672 11.026 11.026 0 0 0 .616 1.98zm6.219-3.9v.9h-.891v1.245h-1.134v-1.242h-2.754v-.858l2.954-4.245h.936v4.2zm-3.7 0h1.675v-2.418zm6.984-1.917a2.1 2.1 0 0 1 1.049.257 1.771 1.771 0 0 1 .7.715 2.184 2.184 0 0 1 .247 1.053 2.1 2.1 0 0 1 -.288 1.107 1.926 1.926 0 0 1 -.814.738 2.755 2.755 0 0 1 -1.238.261 3.544 3.544 0 0 1 -1.174-.2 2.853 2.853 0 0 1 -.958-.535l.387-.846a2.891 2.891 0 0 0 1.764.657 1.276 1.276 0 0 0 .909-.3 1.107 1.107 0 0 0 .317-.845 1.119 1.119 0 0 0 -.319-.842 1.193 1.193 0 0 0 -.869-.31 1.766 1.766 0 0 0 -.7.139 1.852 1.852 0 0 0 -.59.4h-.69v-3.732h3.978v.9h-2.844v1.71a1.917 1.917 0 0 1 1.134-.324zm2.844 2.817h1.26v1.245h-1.26zm2.241-5.1h4.419v.864l-2.879 5.481h-1.234l2.871-5.409h-3.171zm9.936 6.417a2.46 2.46 0 0 1 -1.2-.279 1.887 1.887 0 0 1 -.779-.793 2.757 2.757 0 0 1 .014-2.407 1.987 1.987 0 0 1 .806-.815 2.456 2.456 0 0 1 1.206-.288 2.87 2.87 0 0 1 .914.148 1.924 1.924 0 0 1 .715.4l-.324.792a2.139 2.139 0 0 0 -.59-.342 1.739 1.739 0 0 0 -.616-.117 1.153 1.153 0 0 0 -.909.364 1.844 1.844 0 0 0 0 2.088 1.153 1.153 0 0 0 .909.365 1.739 1.739 0 0 0 .616-.117 2.139 2.139 0 0 0 .59-.342l.324.783a2.029 2.029 0 0 1 -.738.41 2.967 2.967 0 0 1 -.937.15zm7.614-4.581a1.366 1.366 0 0 1 1.116.445 2.108 2.108 0 0 1 .37 1.364v2.7h-1.13v-2.655a1.241 1.241 0 0 0 -.171-.733.64.64 0 0 0 -.549-.229.859.859 0 0 0 -.7.306 1.309 1.309 0 0 0 -.252.855v2.456h-1.122v-2.655a1.267 1.267 0 0 0 -.167-.733.638.638 0 0 0 -.553-.229.849.849 0 0 0 -.693.306 1.309 1.309 0 0 0 -.252.855v2.456h-1.125v-4.4h1.1v.621a1.316 1.316 0 0 1 .549-.545 1.7 1.7 0 0 1 .8-.184 1.28 1.28 0 0 1 1.323.828 1.5 1.5 0 0 1 .594-.608 1.714 1.714 0 0 1 .863-.221zm2.356 5.958a11.026 11.026 0 0 0 .617-1.98 9.691 9.691 0 0 0 0-3.672 11.026 11.026 0 0 0 -.617-1.98l.747-.306a8.839 8.839 0 0 1 .927 2.088 7.8 7.8 0 0 1 0 4.068 8.839 8.839 0 0 1 -.927 2.088z" transform="translate(131.738 83.282)"/><path d="m46.755 10.5h1.824v1.5h-5.52v-1.5h1.824v-4.884l-1.44.84-.708-1.344 2.688-1.572h1.332zm6.456-4a2.534 2.534 0 0 1 1.326.348 2.43 2.43 0 0 1 .912.972 2.982 2.982 0 0 1 .33 1.416 2.944 2.944 0 0 1 -.372 1.482 2.636 2.636 0 0 1 -1.032 1.02 3.016 3.016 0 0 1 -1.488.366 3.111 3.111 0 0 1 -2.544-1.092 4.786 4.786 0 0 1 -.9-3.12 6.023 6.023 0 0 1 .432-2.392 3.238 3.238 0 0 1 3.144-2.07 4.715 4.715 0 0 1 1.512.246 3.581 3.581 0 0 1 1.248.7l-.6 1.332a3.57 3.57 0 0 0 -2.088-.808 1.471 1.471 0 0 0 -1.278.666 3.64 3.64 0 0 0 -.513 1.934 1.983 1.983 0 0 1 .78-.726 2.35 2.35 0 0 1 1.131-.274zm-.432 4.152a1.172 1.172 0 0 0 .906-.372 1.4 1.4 0 0 0 .342-.984 1.38 1.38 0 0 0 -.342-.972 1.172 1.172 0 0 0 -.906-.372 1.191 1.191 0 0 0 -.912.372 1.365 1.365 0 0 0 -.348.972 1.387 1.387 0 0 0 .348.978 1.182 1.182 0 0 0 .912.382zm11.721-.152h1.824v1.5h-5.52v-1.5h1.824v-4.884l-1.44.84-.708-1.344 2.691-1.572h1.329zm3.348 2.424-1.356-.408 3.108-9.696 1.356.408zm9.48-2.424v1.5h-5.82v-1.38l2.82-2.988a2.651 2.651 0 0 0 .891-1.732q0-1.008-1.152-1.008a3.22 3.22 0 0 0 -1.1.21 4.7 4.7 0 0 0 -1.128.606l-.592-1.328a3.754 3.754 0 0 1 1.3-.69 5.2 5.2 0 0 1 1.62-.258 3.249 3.249 0 0 1 2.106.636 2.079 2.079 0 0 1 .786 1.7 3.038 3.038 0 0 1 -.306 1.356 6 6 0 0 1 -1.03 1.396l-1.884 1.98zm3.132-6.96v1.236a3.132 3.132 0 0 1 -.246 1.254 3.826 3.826 0 0 1 -.834 1.158l-.708-.564a2.585 2.585 0 0 0 .732-1.164h-.888v-1.92zm2.484 0v1.236a3.132 3.132 0 0 1 -.244 1.254 3.826 3.826 0 0 1 -.834 1.158l-.708-.564a2.585 2.585 0 0 0 .732-1.164h-.89v-1.92zm-37.9 24.215a8.84 8.84 0 0 1 -.927-2.088 7.8 7.8 0 0 1 0-4.068 8.84 8.84 0 0 1 .927-2.088l.747.306a11.026 11.026 0 0 0 -.617 1.98 9.691 9.691 0 0 0 0 3.672 11.026 11.026 0 0 0 .617 1.98zm6.219-3.9v.9h-.891v1.245h-1.133v-1.242h-2.754v-.858l2.952-4.248h.936v4.2zm-3.7 0h1.674v-2.418zm7.506 1.206h1.377v.939h-3.913v-.936h1.377v-4.086l-1.089.657-.459-.846 1.881-1.134h.828zm2.322-.306h1.26v1.245h-1.26zm4.239-5.184a2.244 2.244 0 0 1 1.859.814 3.641 3.641 0 0 1 .653 2.326 4.761 4.761 0 0 1 -.311 1.8 2.509 2.509 0 0 1 -.9 1.161 2.393 2.393 0 0 1 -1.386.4 3.258 3.258 0 0 1 -1.107-.193 2.836 2.836 0 0 1 -.936-.545l.387-.846a2.643 2.643 0 0 0 1.611.657 1.226 1.226 0 0 0 1.1-.585 3.288 3.288 0 0 0 .4-1.719 1.544 1.544 0 0 1 -.621.644 1.823 1.823 0 0 1 -.927.238 1.968 1.968 0 0 1 -1.008-.257 1.789 1.789 0 0 1 -.688-.72 2.21 2.21 0 0 1 -.248-1.058 2.168 2.168 0 0 1 .275-1.093 1.957 1.957 0 0 1 .756-.752 2.2 2.2 0 0 1 1.093-.269zm.063 3.231a1.085 1.085 0 0 0 .814-.319 1.144 1.144 0 0 0 .311-.833 1.156 1.156 0 0 0 -.311-.841 1.085 1.085 0 0 0 -.814-.319 1.03 1.03 0 0 0 -.792.319 1.187 1.187 0 0 0 -.3.841 1.17 1.17 0 0 0 .3.837 1.037 1.037 0 0 0 .794.318zm7.875 3.267a2.46 2.46 0 0 1 -1.2-.279 1.887 1.887 0 0 1 -.778-.79 2.757 2.757 0 0 1 .014-2.407 1.987 1.987 0 0 1 .805-.815 2.456 2.456 0 0 1 1.206-.288 2.87 2.87 0 0 1 .913.148 1.924 1.924 0 0 1 .715.4l-.324.792a2.139 2.139 0 0 0 -.59-.342 1.739 1.739 0 0 0 -.617-.117 1.153 1.153 0 0 0 -.909.364 1.844 1.844 0 0 0 0 2.088 1.153 1.153 0 0 0 .909.365 1.739 1.739 0 0 0 .617-.117 2.139 2.139 0 0 0 .59-.342l.324.783a2.03 2.03 0 0 1 -.738.41 2.967 2.967 0 0 1 -.935.15zm7.614-4.581a1.366 1.366 0 0 1 1.116.445 2.108 2.108 0 0 1 .369 1.363v2.704h-1.123v-2.655a1.241 1.241 0 0 0 -.171-.733.64.64 0 0 0 -.549-.229.859.859 0 0 0 -.7.306 1.309 1.309 0 0 0 -.252.855v2.456h-1.127v-2.655a1.267 1.267 0 0 0 -.167-.733.638.638 0 0 0 -.553-.229.849.849 0 0 0 -.693.306 1.309 1.309 0 0 0 -.252.855v2.456h-1.125v-4.4h1.1v.621a1.316 1.316 0 0 1 .549-.545 1.7 1.7 0 0 1 .8-.184 1.28 1.28 0 0 1 1.323.828 1.5 1.5 0 0 1 .594-.608 1.714 1.714 0 0 1 .863-.221zm2.358 5.958a11.026 11.026 0 0 0 .617-1.98 9.691 9.691 0 0 0 0-3.672 11.026 11.026 0 0 0 -.617-1.98l.747-.306a8.839 8.839 0 0 1 .927 2.088 7.8 7.8 0 0 1 0 4.068 8.839 8.839 0 0 1 -.927 2.088z" transform="translate(111.405 184.282)"/><path d="m1 79.436h-2v-79.436h2z" transform="translate(31.106 70.846)"/><path d="m112 1h-112v-2h112z" transform="translate(119.238 176.782)"/><path d="m1 106h-2v-106h2z" transform="translate(126.238 44.782)"/><path d="m3.5 0 3.5 6h-7z" transform="translate(27.606 67.782)"/><path d="m3.5 0 3.5 6h-7z" transform="translate(122.738 41.282)"/><path d="m3.5 0 3.5 6h-7z" transform="matrix(-1 0 0 -1 34.606 154.782)"/><path d="m3.5 0 3.5 6h-7z" transform="matrix(-1 0 0 -1 129.738 155.282)"/><path d="m3.5 0 3.5 6h-7z" transform="matrix(0 -1 1 0 113.238 180.282)"/><path d="m3.5 0 3.5 6h-7z" transform="matrix(0 1 -1 0 234.238 173.282)"/></g><g fill="#9397aa" transform="translate(111.405 28.846)"><path d="m3.1 3.1h119.32v127.933h-119.32zm-3.1 131.038h125.525v-134.138h-125.525z"/><path d="m1.962 5.543h120.985v1.863h-120.985z"/></g><g filter="url(#a)" transform="translate(-.001 -.004)"><path d="m34.536 133.955h-19.473a4.826 4.826 0 0 0 -4.18 2.414l-9.736 16.863a4.826 4.826 0 0 0 0 4.827l9.736 16.863a4.826 4.826 0 0 0 4.18 2.414h19.473a4.826 4.826 0 0 0 4.18-2.414l9.736-16.863a4.826 4.826 0 0 0 0-4.827l-9.736-16.863a4.826 4.826 0 0 0 -4.18-2.414z" fill="#00194a" transform="matrix(0 -1 1 0 77.75 60.1)"/></g><path d="m39.022 13.536v2.142h-1.728v2.322h-2.736v-2.322h-5.31v-2.07l5.8-8.3h2.25v8.226zm-7.218 0h2.754v-3.96z" fill="#fff" transform="translate(199.391 18.282)"/><path d="m31.2 4.888v2.76a3.978 3.978 0 0 1 -.96.312 5.7 5.7 0 0 1 -1.136.112 3.267 3.267 0 0 1 -1.552-.348 2.4 2.4 0 0 1 -1.008-1 3.213 3.213 0 0 1 -.352-1.548 3.208 3.208 0 0 1 .348-1.532 2.41 2.41 0 0 1 1-1 3.119 3.119 0 0 1 1.512-.352 3.688 3.688 0 0 1 1.132.168 2.468 2.468 0 0 1 .868.464l-.392.888a2.913 2.913 0 0 0 -.764-.4 2.528 2.528 0 0 0 -.8-.124q-1.632 0-1.632 1.9a2.148 2.148 0 0 0 .424 1.456 1.619 1.619 0 0 0 1.28.48 3.6 3.6 0 0 0 .92-.12v-1.252h-1.1v-.864zm5.36 3.112-.536-1.248h-2.624l-.536 1.248h-1.256l2.592-5.64h1l2.592 5.64zm-2.752-2.192h1.808l-.9-2.112zm4.456 2.192v-5.64h1.248v4.624h2.52v1.016z" fill="#fff" transform="translate(199.392 38.282)"/><g clip-path="url(#b)" transform="translate(0 59.597)"><path d="m85.961 1.887c-11.852-1.221-26.721-1.887-42.428-1.887-15.645 0-30.453.661-42.282 1.873a1.4 1.4 0 0 0 .291 2.788c.5-.052 1.021-.1 1.536-.15 1.669 14.145 3.196 28.489 4.674 42.356 1.482 13.915 3.015 28.306 4.691 42.506l.062-.007c.384 7.889 13.868 14.02 31.027 14.02 17.03 0 30.443-6.04 31.018-13.844l.044.005c1.676-14.2 3.252-28.632 4.778-42.589 1.52-13.909 3.092-28.291 4.76-42.434.515.05 1.032.1 1.535.151a1.4 1.4 0 0 0 .293-2.789m-9.933 44.707c-1.518 13.887-3.087 28.244-4.751 42.367h-.067v.061c0 6.482-14.587 11-27.679 11s-27.679-4.517-27.679-11c0-.021 0-.041 0-.061h-.073c-1.673-14.176-3.2-28.55-4.684-42.45-1.476-13.849-3-28.167-4.668-42.3 10.838-.91 23.704-1.41 37.107-1.41 13.467 0 26.384.5 37.246 1.42-1.666 14.129-3.235 28.486-4.753 42.373" fill="#9397aa"/></g></svg>