<svg height="212.037" viewBox="0 0 265.614 212.037" width="265.614" xmlns="http://www.w3.org/2000/svg" xmlns:xlink="http://www.w3.org/1999/xlink"><filter id="a" filterUnits="userSpaceOnUse" height="78.597" width="73.38" x="192.234" y="0"><feOffset dy="4"/><feGaussianBlur result="blur" stdDeviation="5"/><feFlood flood-opacity=".161"/><feComposite in2="blur" operator="in"/><feComposite in="SourceGraphic"/></filter><clipPath id="b"><path d="m0 0h78.277v126.142h-78.277z"/></clipPath><g fill="#00194a"><path d="m9.1 10.5v1.5h-5.816v-1.38l2.816-2.988a2.651 2.651 0 0 0 .892-1.732q0-1-1.152-1a3.22 3.22 0 0 0 -1.1.21 4.7 4.7 0 0 0 -1.128.606l-.592-1.336a3.754 3.754 0 0 1 1.3-.69 5.2 5.2 0 0 1 1.62-.258 3.249 3.249 0 0 1 2.106.636 2.079 2.079 0 0 1 .786 1.7 3.038 3.038 0 0 1 -.306 1.356 6 6 0 0 1 -1.026 1.396l-1.888 1.98zm5.6-2.856a2.015 2.015 0 0 1 1.556 2.056 2.082 2.082 0 0 1 -.852 1.758 3.742 3.742 0 0 1 -2.3.642 5.584 5.584 0 0 1 -1.68-.252 3.563 3.563 0 0 1 -1.308-.7l.584-1.332a3.983 3.983 0 0 0 2.316.816 1.831 1.831 0 0 0 1.116-.27 1 1 0 0 0 .348-.846.939.939 0 0 0 -.348-.816 1.932 1.932 0 0 0 -1.116-.252h-1.216v-1.448h1.008a1.884 1.884 0 0 0 1.092-.256.892.892 0 0 0 .354-.78 1 1 0 0 0 -.312-.792 1.317 1.317 0 0 0 -.9-.276 3.22 3.22 0 0 0 -1.1.21 4.484 4.484 0 0 0 -1.116.606l-.594-1.332a3.749 3.749 0 0 1 1.3-.69 5.292 5.292 0 0 1 1.638-.258 3.763 3.763 0 0 1 1.512.282 2.284 2.284 0 0 1 1 .8 2.069 2.069 0 0 1 .354 1.2 2.042 2.042 0 0 1 -.354 1.194 1.984 1.984 0 0 1 -.974.736zm4.728-4.1v1.232a3.132 3.132 0 0 1 -.238 1.254 3.826 3.826 0 0 1 -.834 1.158l-.708-.564a2.585 2.585 0 0 0 .732-1.164h-.888v-1.92zm2.484 0v1.232a3.132 3.132 0 0 1 -.246 1.254 3.826 3.826 0 0 1 -.834 1.158l-.708-.564a2.585 2.585 0 0 0 .732-1.164h-.888v-1.92z" transform="translate(14.139 94.341)"/><path d="m6.612 10.5v1.5h-5.82v-1.38l2.82-2.988a2.651 2.651 0 0 0 .888-1.732q0-1-1.152-1a3.22 3.22 0 0 0 -1.1.21 4.7 4.7 0 0 0 -1.128.606l-.592-1.336a3.754 3.754 0 0 1 1.3-.69 5.2 5.2 0 0 1 1.62-.258 3.249 3.249 0 0 1 2.106.636 2.079 2.079 0 0 1 .786 1.7 3.038 3.038 0 0 1 -.31 1.36 6 6 0 0 1 -1.03 1.392l-1.88 1.98zm1.164-6.96h6.084v1.392l-3.768 7.068h-1.992l3.756-6.96h-4.08zm9.168 0v1.236a3.132 3.132 0 0 1 -.244 1.254 3.826 3.826 0 0 1 -.834 1.158l-.708-.564a2.585 2.585 0 0 0 .732-1.164h-.89v-1.92zm2.484 0v1.236a3.132 3.132 0 0 1 -.246 1.254 3.826 3.826 0 0 1 -.834 1.158l-.708-.564a2.585 2.585 0 0 0 .732-1.164h-.888v-1.92zm-17.322 24.215a8.84 8.84 0 0 1 -.927-2.088 7.8 7.8 0 0 1 0-4.068 8.84 8.84 0 0 1 .927-2.088l.747.306a11.026 11.026 0 0 0 -.616 1.98 9.691 9.691 0 0 0 0 3.672 11.026 11.026 0 0 0 .616 1.98zm4.158-5.823a1.95 1.95 0 0 1 1 .257 1.789 1.789 0 0 1 .688.72 2.366 2.366 0 0 1 -.023 2.151 1.917 1.917 0 0 1 -.756.752 2.222 2.222 0 0 1 -1.1.27 2.244 2.244 0 0 1 -1.859-.814 3.641 3.641 0 0 1 -.652-2.326 4.761 4.761 0 0 1 .311-1.8 2.509 2.509 0 0 1 .9-1.161 2.393 2.393 0 0 1 1.386-.4 3.258 3.258 0 0 1 1.107.193 2.836 2.836 0 0 1 .936.545l-.387.846a2.643 2.643 0 0 0 -1.615-.665 1.223 1.223 0 0 0 -1.08.59 3.211 3.211 0 0 0 -.4 1.705 1.49 1.49 0 0 1 .621-.635 1.879 1.879 0 0 1 .923-.228zm-.243 3.231a1.023 1.023 0 0 0 .788-.315 1.194 1.194 0 0 0 .291-.848 1.17 1.17 0 0 0 -.3-.837 1.037 1.037 0 0 0 -.792-.315 1.073 1.073 0 0 0 -.806.319 1.144 1.144 0 0 0 -.302.833 1.156 1.156 0 0 0 .311.841 1.085 1.085 0 0 0 .81.322zm6.462-2.421a1.538 1.538 0 0 1 .859.558 1.611 1.611 0 0 1 .3.99 1.545 1.545 0 0 1 -.63 1.309 2.854 2.854 0 0 1 -1.746.472 2.854 2.854 0 0 1 -1.744-.471 1.545 1.545 0 0 1 -.63-1.309 1.614 1.614 0 0 1 .308-.991 1.508 1.508 0 0 1 .864-.553 1.562 1.562 0 0 1 -.747-.562 1.513 1.513 0 0 1 -.27-.9 1.5 1.5 0 0 1 .594-1.251 2.6 2.6 0 0 1 1.629-.459 2.6 2.6 0 0 1 1.629.459 1.5 1.5 0 0 1 .594 1.251 1.548 1.548 0 0 1 -.27.909 1.453 1.453 0 0 1 -.74.548zm-1.215-2.259q-1.125 0-1.125.918a.86.86 0 0 0 .284.7 1.28 1.28 0 0 0 .841.239 1.28 1.28 0 0 0 .842-.239.86.86 0 0 0 .283-.7q0-.918-1.125-.918zm0 4.68q1.287 0 1.287-.963t-1.287-.963q-1.287 0-1.287.963t1.287.963zm3.186-.405h1.26v1.242h-1.26zm4.788-2.817a2.1 2.1 0 0 1 1.049.257 1.771 1.771 0 0 1 .7.715 2.184 2.184 0 0 1 .248 1.053 2.1 2.1 0 0 1 -.288 1.107 1.926 1.926 0 0 1 -.814.738 2.755 2.755 0 0 1 -1.237.261 3.544 3.544 0 0 1 -1.175-.2 2.853 2.853 0 0 1 -.958-.535l.387-.846a2.891 2.891 0 0 0 1.764.657 1.276 1.276 0 0 0 .909-.3 1.107 1.107 0 0 0 .315-.848 1.119 1.119 0 0 0 -.319-.842 1.193 1.193 0 0 0 -.868-.31 1.766 1.766 0 0 0 -.7.139 1.852 1.852 0 0 0 -.59.4h-.693v-3.732h3.978v.9h-2.842v1.71a1.917 1.917 0 0 1 1.134-.324zm7.389 4.131a2.46 2.46 0 0 1 -1.2-.279 1.887 1.887 0 0 1 -.78-.793 2.757 2.757 0 0 1 .014-2.407 1.987 1.987 0 0 1 .806-.815 2.456 2.456 0 0 1 1.206-.288 2.87 2.87 0 0 1 .914.148 1.924 1.924 0 0 1 .715.4l-.324.792a2.139 2.139 0 0 0 -.59-.342 1.739 1.739 0 0 0 -.616-.117 1.153 1.153 0 0 0 -.909.364 1.844 1.844 0 0 0 0 2.088 1.153 1.153 0 0 0 .909.365 1.739 1.739 0 0 0 .616-.117 2.139 2.139 0 0 0 .59-.342l.324.783a2.029 2.029 0 0 1 -.738.41 2.967 2.967 0 0 1 -.937.15zm7.614-4.581a1.366 1.366 0 0 1 1.116.445 2.108 2.108 0 0 1 .369 1.364v2.7h-1.13v-2.655a1.241 1.241 0 0 0 -.171-.733.64.64 0 0 0 -.549-.229.859.859 0 0 0 -.7.306 1.309 1.309 0 0 0 -.252.855v2.456h-1.122v-2.655a1.267 1.267 0 0 0 -.167-.733.638.638 0 0 0 -.553-.229.849.849 0 0 0 -.693.306 1.309 1.309 0 0 0 -.252.855v2.456h-1.125v-4.4h1.1v.621a1.316 1.316 0 0 1 .549-.545 1.7 1.7 0 0 1 .8-.184 1.28 1.28 0 0 1 1.323.828 1.5 1.5 0 0 1 .594-.608 1.714 1.714 0 0 1 .863-.221zm2.355 5.958a11.026 11.026 0 0 0 .617-1.98 9.691 9.691 0 0 0 0-3.672 11.026 11.026 0 0 0 -.617-1.98l.747-.306a8.839 8.839 0 0 1 .927 2.088 7.8 7.8 0 0 1 0 4.068 8.839 8.839 0 0 1 -.927 2.088z" transform="translate(127.271 83.282)"/><path d="m59.265 10.5v1.5h-5.82v-1.38l2.82-2.988a2.651 2.651 0 0 0 .888-1.732q0-1-1.153-1a3.22 3.22 0 0 0 -1.1.21 4.7 4.7 0 0 0 -1.128.606l-.591-1.336a3.754 3.754 0 0 1 1.3-.69 5.2 5.2 0 0 1 1.62-.258 3.249 3.249 0 0 1 2.106.636 2.079 2.079 0 0 1 .786 1.7 3.038 3.038 0 0 1 -.306 1.356 6 6 0 0 1 -1.03 1.396l-1.884 1.98zm7.212 0v1.5h-5.82v-1.38l2.82-2.988a2.651 2.651 0 0 0 .888-1.732q0-1.008-1.152-1.008a3.22 3.22 0 0 0 -1.1.21 4.7 4.7 0 0 0 -1.128.606l-.592-1.328a3.754 3.754 0 0 1 1.3-.69 5.2 5.2 0 0 1 1.62-.258 3.249 3.249 0 0 1 2.106.636 2.079 2.079 0 0 1 .786 1.7 3.038 3.038 0 0 1 -.306 1.356 6 6 0 0 1 -1.03 1.396l-1.884 1.98zm3.132-6.96v1.236a3.132 3.132 0 0 1 -.246 1.254 3.826 3.826 0 0 1 -.834 1.158l-.708-.564a2.585 2.585 0 0 0 .732-1.164h-.888v-1.92zm2.484 0v1.236a3.132 3.132 0 0 1 -.246 1.254 3.826 3.826 0 0 1 -.834 1.158l-.713-.564a2.585 2.585 0 0 0 .732-1.164h-.888v-1.92zm-27.048 24.215a8.84 8.84 0 0 1 -.927-2.088 7.8 7.8 0 0 1 0-4.068 8.84 8.84 0 0 1 .927-2.088l.747.306a11.026 11.026 0 0 0 -.617 1.98 9.691 9.691 0 0 0 0 3.672 11.026 11.026 0 0 0 .617 1.98zm4.1-5.814a2.1 2.1 0 0 1 1.055.259 1.771 1.771 0 0 1 .7.715 2.184 2.184 0 0 1 .248 1.053 2.1 2.1 0 0 1 -.288 1.107 1.926 1.926 0 0 1 -.814.738 2.755 2.755 0 0 1 -1.237.261 3.544 3.544 0 0 1 -1.174-.2 2.853 2.853 0 0 1 -.958-.535l.387-.846a2.891 2.891 0 0 0 1.764.657 1.276 1.276 0 0 0 .909-.3 1.107 1.107 0 0 0 .312-.85 1.119 1.119 0 0 0 -.319-.842 1.193 1.193 0 0 0 -.868-.31 1.766 1.766 0 0 0 -.7.139 1.852 1.852 0 0 0 -.59.4h-.693v-3.732h3.978v.9h-2.842v1.71a1.917 1.917 0 0 1 1.134-.324zm5.4 0a2.1 2.1 0 0 1 1.055.259 1.771 1.771 0 0 1 .7.715 2.184 2.184 0 0 1 .248 1.053 2.1 2.1 0 0 1 -.288 1.107 1.926 1.926 0 0 1 -.814.738 2.755 2.755 0 0 1 -1.237.261 3.544 3.544 0 0 1 -1.174-.2 2.853 2.853 0 0 1 -.958-.535l.387-.846a2.891 2.891 0 0 0 1.764.657 1.276 1.276 0 0 0 .909-.3 1.107 1.107 0 0 0 .312-.85 1.119 1.119 0 0 0 -.319-.842 1.193 1.193 0 0 0 -.868-.31 1.766 1.766 0 0 0 -.7.139 1.852 1.852 0 0 0 -.59.4h-.693v-3.732h3.978v.9h-2.842v1.71a1.917 1.917 0 0 1 1.134-.324zm2.844 2.817h1.26v1.242h-1.26zm5.661-2.016a1.538 1.538 0 0 1 .86.558 1.611 1.611 0 0 1 .3.99 1.545 1.545 0 0 1 -.63 1.309 3.462 3.462 0 0 1 -3.492 0 1.545 1.545 0 0 1 -.63-1.309 1.614 1.614 0 0 1 .306-.995 1.508 1.508 0 0 1 .864-.553 1.562 1.562 0 0 1 -.747-.562 1.513 1.513 0 0 1 -.27-.9 1.5 1.5 0 0 1 .594-1.251 3.12 3.12 0 0 1 3.258 0 1.5 1.5 0 0 1 .594 1.251 1.548 1.548 0 0 1 -.27.909 1.453 1.453 0 0 1 -.733.553zm-1.215-2.259q-1.125 0-1.125.918a.86.86 0 0 0 .284.7 1.6 1.6 0 0 0 1.683 0 .86.86 0 0 0 .284-.7q.003-.918-1.122-.918zm0 4.68q1.287 0 1.287-.963t-1.287-.963q-1.287 0-1.287.963t1.291.963zm7.731.909a2.46 2.46 0 0 1 -1.2-.279 1.887 1.887 0 0 1 -.776-.793 2.757 2.757 0 0 1 .014-2.407 1.987 1.987 0 0 1 .805-.815 2.456 2.456 0 0 1 1.206-.288 2.87 2.87 0 0 1 .913.148 1.924 1.924 0 0 1 .715.4l-.324.792a2.139 2.139 0 0 0 -.59-.342 1.739 1.739 0 0 0 -.617-.117 1.153 1.153 0 0 0 -.909.364 1.844 1.844 0 0 0 0 2.088 1.153 1.153 0 0 0 .909.365 1.739 1.739 0 0 0 .617-.117 2.139 2.139 0 0 0 .59-.342l.324.783a2.03 2.03 0 0 1 -.738.41 2.967 2.967 0 0 1 -.935.15zm7.614-4.581a1.366 1.366 0 0 1 1.116.445 2.108 2.108 0 0 1 .369 1.363v2.701h-1.121v-2.655a1.241 1.241 0 0 0 -.171-.733.64.64 0 0 0 -.549-.229.859.859 0 0 0 -.7.306 1.309 1.309 0 0 0 -.252.855v2.456h-1.127v-2.655a1.267 1.267 0 0 0 -.167-.733.638.638 0 0 0 -.553-.229.849.849 0 0 0 -.693.306 1.309 1.309 0 0 0 -.252.855v2.456h-1.125v-4.4h1.1v.621a1.316 1.316 0 0 1 .549-.545 1.7 1.7 0 0 1 .8-.184 1.28 1.28 0 0 1 1.323.828 1.5 1.5 0 0 1 .594-.608 1.714 1.714 0 0 1 .863-.221zm2.358 5.958a11.026 11.026 0 0 0 .617-1.98 9.691 9.691 0 0 0 0-3.672 11.026 11.026 0 0 0 -.617-1.98l.747-.306a8.839 8.839 0 0 1 .927 2.088 7.8 7.8 0 0 1 0 4.068 8.839 8.839 0 0 1 -.927 2.088z" transform="translate(106.938 184.282)"/><path d="m1 84.507h-2v-84.507h2z" transform="translate(10.639 63.906)"/><path d="m112 1h-112v-2h112z" transform="translate(114.771 176.782)"/><path d="m1 106h-2v-106h2z" transform="translate(121.771 44.782)"/><path d="m3.5 0 3.5 6h-7z" transform="translate(7.139 59.912)"/><path d="m3.5 0 3.5 6h-7z" transform="translate(118.271 41.282)"/><path d="m3.5 0 3.5 6h-7z" transform="matrix(-1 0 0 -1 14.139 152.912)"/><path d="m3.5 0 3.5 6h-7z" transform="matrix(-1 0 0 -1 125.271 155.282)"/><path d="m3.5 0 3.5 6h-7z" transform="matrix(0 -1 1 0 108.771 180.282)"/><path d="m3.5 0 3.5 6h-7z" transform="matrix(0 1 -1 0 229.771 173.282)"/></g><g fill="#9397aa" transform="translate(106.938 28.846)"><path d="m3.1 3.1h119.32v127.933h-119.32zm-3.1 131.038h125.525v-134.138h-125.525z"/><path d="m1.962 5.543h120.985v1.863h-120.985z"/></g><g filter="url(#a)" transform="translate(.002 -.004)"><path d="m34.536 133.955h-19.473a4.826 4.826 0 0 0 -4.18 2.414l-9.736 16.863a4.826 4.826 0 0 0 0 4.827l9.736 16.863a4.826 4.826 0 0 0 4.18 2.414h19.473a4.826 4.826 0 0 0 4.18-2.414l9.736-16.863a4.826 4.826 0 0 0 0-4.827l-9.736-16.863a4.826 4.826 0 0 0 -4.18-2.414z" fill="#00194a" transform="matrix(0 -1 1 0 73.28 60.1)"/></g><path d="m36.592 11.466a3.133 3.133 0 0 1 1.692 1.125 3.187 3.187 0 0 1 .594 1.953 3.1 3.1 0 0 1 -1.3 2.646 5.935 5.935 0 0 1 -3.578.954 5.935 5.935 0 0 1 -3.582-.954 3.1 3.1 0 0 1 -1.3-2.646 3.207 3.207 0 0 1 .594-1.98 3.069 3.069 0 0 1 1.71-1.1 2.967 2.967 0 0 1 -1.98-2.88 2.984 2.984 0 0 1 1.228-2.509 5.392 5.392 0 0 1 3.33-.927 5.423 5.423 0 0 1 3.339.918 2.986 2.986 0 0 1 1.215 2.52 3.142 3.142 0 0 1 -.522 1.8 2.723 2.723 0 0 1 -1.44 1.08zm-2.592-4.176q-1.926 0-1.926 1.6 0 1.62 1.926 1.62t1.926-1.62q0-1.6-1.926-1.6zm0 8.71q2.268 0 2.268-1.674t-2.268-1.672q-2.268 0-2.268 1.674t2.268 1.672z" fill="#fff" transform="translate(194.924 18.282)"/><path d="m31.2 4.888v2.76a3.978 3.978 0 0 1 -.96.312 5.7 5.7 0 0 1 -1.136.112 3.267 3.267 0 0 1 -1.552-.348 2.4 2.4 0 0 1 -1.008-1 3.213 3.213 0 0 1 -.352-1.548 3.208 3.208 0 0 1 .348-1.532 2.41 2.41 0 0 1 1-1 3.119 3.119 0 0 1 1.512-.352 3.688 3.688 0 0 1 1.132.168 2.468 2.468 0 0 1 .868.464l-.392.888a2.913 2.913 0 0 0 -.764-.4 2.528 2.528 0 0 0 -.8-.124q-1.632 0-1.632 1.9a2.148 2.148 0 0 0 .424 1.456 1.619 1.619 0 0 0 1.28.48 3.6 3.6 0 0 0 .92-.12v-1.252h-1.1v-.864zm5.36 3.112-.536-1.248h-2.624l-.536 1.248h-1.256l2.592-5.64h1l2.592 5.64zm-2.752-2.192h1.808l-.9-2.112zm4.456 2.192v-5.64h1.248v4.624h2.52v1.016z" fill="#fff" transform="translate(194.925 38.282)"/><g clip-path="url(#b)" transform="translate(0 36.841)"><path d="m74.9 2.269q-1.051-.139-2.111-.269-5.78-.714-11.872-1.181-1.681-.129-3.379-.24c-5.956-.379-12.103-.579-18.4-.579-6.038 0-11.93.185-17.654.535q-1.7.1-3.379.225-6.476.478-12.617 1.24-1.06.132-2.109.269c-1.138.15-2.262.311-3.379.476v120.655c1.117.164 2.241.325 3.379.476l.354.045q1.927.252 3.891.477 5.123.588 10.48.986 1.678.124 3.379.225c5.724.351 11.62.535 17.655.535 6.3 0 12.443-.2 18.4-.579q1.7-.109 3.379-.24 4.966-.38 9.735-.927 1.964-.225 3.892-.477l.354-.045c1.138-.151 2.262-.312 3.379-.476v-120.655c-1.117-.164-2.241-.325-3.379-.476m-56.798 1.902q1.682-.127 3.379-.232c5.772-.363 11.669-.559 17.655-.559 6.243 0 12.392.21 18.4.605q1.7.112 3.379.246l.585.047c-.2.03-.389.062-.585.091-1.114.166-2.238.324-3.379.466a150 150 0 0 1 -18.4 1.119 150.192 150.192 0 0 1 -17.65-1.034c-1.138-.135-2.267-.279-3.379-.439-.448-.065-.886-.137-1.329-.2.443-.036.885-.073 1.329-.107m21.033 118.589c-5.986 0-11.882-.2-17.655-.559v-8.865l.244-.118a40.461 40.461 0 0 1 34.822 0c.333.16.66.331.988.5v8.438c-6.008.395-12.156.605-18.4.605m35.76-79.1v76.757q-1.426.195-2.866.375-2.067.255-4.162.481c-2.29.243-4.611.451-6.953.635v-10.2q-1.647-.947-3.379-1.753c-.131-.061-.263-.119-.395-.179a43.694 43.694 0 0 0 -35.659-.158c-.117.052-.233.106-.35.158-1.029.466-2.043.962-3.029 1.5v10.687q-3.894-.3-7.7-.694-2.1-.223-4.162-.481c-.963-.119-1.916-.246-2.866-.375v-100.974q7.252-.475 14.725-.758 1.685-.063 3.379-.116 8.718-.273 17.655-.274 9.307 0 18.4.3 1.694.055 3.379.12 7.086.275 13.986.728v24.222zm0-31.311v3.755q-6.933-.464-13.981-.749-1.688-.068-3.379-.126c-6.119-.209-12.268-.318-18.4-.318-5.883 0-11.782.1-17.655.293q-1.691.055-3.379.122-7.413.289-14.725.779v-10.389c.585-.08 1.162-.166 1.752-.242a123.377 123.377 0 0 0 12.97 2.458q1.669.229 3.379.422a158.221 158.221 0 0 0 17.655.973 157.586 157.586 0 0 0 18.4-1.06q1.71-.2 3.379-.439a122.32 122.32 0 0 0 12.233-2.353c.589.076 1.167.162 1.752.242z" fill="#9397aa"/></g></svg>