<svg enable-background="new 0 0 106.4 95" viewBox="0 0 106.4 95" xmlns="http://www.w3.org/2000/svg"><path d="m74.1 95h-41.8c-4 0-7.8-2.2-9.8-5.7l-20.9-36.1c-2-3.5-2-7.8 0-11.3l20.9-36.2c2-3.5 5.8-5.7 9.8-5.7h41.8c4 0 7.8 2.2 9.8 5.7l20.9 36.2c2 3.5 2 7.8 0 11.3l-20.9 36.1c-2 3.5-5.8 5.7-9.8 5.7zm-41.8-2h41.8c3.3 0 6.4-1.8 8.1-4.7l20.9-36.2c1.7-2.9 1.7-6.5 0-9.3l-20.9-36.1c-1.7-2.9-4.8-4.7-8.1-4.7h-41.8c-3.3 0-6.4 1.8-8.1 4.7l-20.8 36.1c-1.7 2.9-1.7 6.5 0 9.3l20.9 36.2c1.6 2.9 4.7 4.7 8 4.7z"/><path d="m67.6 44.4-13.8-22.8c-.9-1.4-2.7-1.9-4.2-1-.4.3-.8.6-1 1l-4.5 7.3-1.5-.2c-2.7-.3-5.3 1.3-6.3 3.8-1.6 4.3-2.4 8.8-2.4 13.4-.1 4.6.8 9.2 2.4 13.5.9 2.3 3.2 3.9 5.7 3.9h.6l1.5-.2 4.5 7.3c.9 1.4 2.8 1.9 4.2 1 .4-.3.8-.6 1-1l13.8-22.8c.6-1 .6-2.2 0-3.2m-16.6-16.1c1.1 0 2 .6 2.4 1.6l-4.5-.5c.5-.7 1.3-1.1 2.1-1.1m-8.2 32.7h-.4c-1.7.2-3.4-.8-4-2.4-1-2.6-1.6-5.3-1.9-8-.4-3.1-.4-6.2 0-9.3.3-2.7.9-5.4 1.9-8 .6-1.6 2.3-2.6 4-2.4h.4l5.7.6 5.1.6v27.7l-5.1.5zm8.2 2.8c-.9 0-1.7-.4-2.2-1.2l4.6-.5c-.3 1-1.3 1.7-2.4 1.7"/></svg>