<svg height="95.015" viewBox="0 0 106.192 95.015" width="106.192" xmlns="http://www.w3.org/2000/svg" xmlns:xlink="http://www.w3.org/1999/xlink"><clipPath id="a"><path d="m0 0h34.011v46.834h-34.011z"/></clipPath><path d="m31.725 132.955h41.752a11.379 11.379 0 0 1 9.829 5.675l20.875 36.158a11.38 11.38 0 0 1 0 11.349l-20.875 36.158a11.379 11.379 0 0 1 -9.829 5.675h-41.752a11.379 11.379 0 0 1 -9.829-5.675l-20.875-36.158a11.38 11.38 0 0 1 0-11.349l20.879-36.158a11.379 11.379 0 0 1 9.825-5.675zm41.752 93.015a9.374 9.374 0 0 0 8.1-4.675l20.875-36.158a9.374 9.374 0 0 0 0-9.349l-20.878-36.158a9.374 9.374 0 0 0 -8.1-4.675h-41.749a9.374 9.374 0 0 0 -8.1 4.675l-20.872 36.158a9.374 9.374 0 0 0 0 9.349l20.875 36.158a9.374 9.374 0 0 0 8.1 4.675z" transform="translate(.495 -132.955)"/><g clip-path="url(#a)" transform="translate(36.033 20.091)"><path d="m32.459 49.975a9.8 9.8 0 0 1 -.906-1.907c-.5-1.635-.934-16.529-.934-20.737v-.326c0-3.888 0-3.888-1.849-5.134l-.309-.209c-2.233-1.51-6.43-4.353-9.225-4.194h-4.489c-.1 0-.174-.007-.251-.007-2.777 0-6.824 2.733-9 4.2l-.311.209c-1.849 1.245-1.849 1.245-1.849 5.134v.326c0 4.208-.432 19.1-.934 20.734a9.937 9.937 0 0 1 -.902 1.909 13.631 13.631 0 0 0 -1.494 3.456c-.009.033-.009.049.022.088.167.216 1.179.924 7.181.924 4.607 0 9.685-.412 9.736-.416h.033.038c.05 0 5.128.416 9.736.416 6 0 7.015-.708 7.181-.924a.086.086 0 0 0 .021-.088 13.749 13.749 0 0 0 -1.494-3.456z" transform="translate(0 -7.609)"/><path d="m29.622 8.071-2.27-.016 1.763-1.512c2.04-1.767 8.247-7.143 12.458-6.487 2.43.38 4.217 1.9 4.348 3.687.107 1.456-.888 2.654-2.66 3.2-3.579 1.116-13.23 1.128-13.639 1.128m11.159-6.382c-2.012 0-4.962 1.562-8.794 4.656 3.116-.072 8.467-.3 10.773-1.014.982-.3 1.518-.838 1.473-1.464-.06-.825-1.1-1.855-2.921-2.139a3.42 3.42 0 0 0 -.531-.039" transform="translate(-11.918)"/><path d="m19.587 8.055-2.266.016c-.409 0-10.061-.012-13.64-1.123-1.771-.548-2.766-1.748-2.659-3.205.131-1.791 1.918-3.308 4.348-3.687 4.216-.662 10.417 4.719 12.456 6.485zm-13.425-6.366a3.42 3.42 0 0 0 -.531.039c-1.816.284-2.861 1.314-2.921 2.138-.046.626.491 1.16 1.473 1.465 2.306.715 7.657.942 10.773 1.014-3.832-3.094-6.782-4.656-8.794-4.656" transform="translate(-.442)"/></g></svg>