<svg height="26.888" viewBox="0 0 24.084 26.888" width="24.084" xmlns="http://www.w3.org/2000/svg"><path d="m34.381 13.469a2.882 2.882 0 0 1 1.849 3.248c-.35 1.949-2.7 4.048-8.2 4.248a3.528 3.528 0 0 0 -1.6-2.249c3-4.9 6.047-5.9 7.946-5.247zm-8.346 10.345-.6.35a3.226 3.226 0 0 1 -.95.2 2.6 2.6 0 1 1 2.6-2.6 2.465 2.465 0 0 1 -1.05 2.05zm-3.648-15.093a2.94 2.94 0 0 1 3.748 0c1.549 1.3 2.149 4.5-.6 9.546a3.222 3.222 0 0 0 -1-.15 3.585 3.585 0 0 0 -1.449.3c-2.9-5.148-2.3-8.4-.7-9.7zm-10.145 8a2.936 2.936 0 0 1 1.849-3.248c1.949-.7 5.048.4 8.046 5.447a3.813 3.813 0 0 0 -1.249 2c-5.798-.054-8.297-2.203-8.646-4.202zm1.849 12.794a2.882 2.882 0 0 1 -1.849-3.248c.35-2 2.8-4.148 8.646-4.248a3.471 3.471 0 0 0 1.1 2.349c-3 4.8-6 5.847-7.9 5.148zm11.994 4.748a2.94 2.94 0 0 1 -3.748 0c-1.549-1.3-2.149-4.348.45-9.246a3.652 3.652 0 0 0 1.649.4 5.025 5.025 0 0 0 1.249-.2c2.549 4.748 1.9 7.8.4 9.046zm8.3-4.748c-1.849.65-4.8-.3-7.7-4.848a3.717 3.717 0 0 0 1.449-2.649c5.447.2 7.746 2.3 8.1 4.248a2.935 2.935 0 0 1 -1.849 3.248z" fill="#00194a" opacity=".558" transform="translate(-12.194 -8.047)"/></svg>