<svg enable-background="new 0 0 106.4 95" viewBox="0 0 106.4 95" xmlns="http://www.w3.org/2000/svg"><path d="m63.3 50.7c0-2.5-2-4.6-4.6-4.6h-9.1c0 2.5 2 4.6 4.6 4.6z"/><path d="m54.1 40.7h-9.1c0 2.5 2 4.6 4.6 4.6h9.1c0-2.6-2.1-4.6-4.6-4.6z"/><path d="m76.3 51.6h-16.9-5.3c0 2.5 2 4.6 4.6 4.6h.7v12.3c0 1.1.9 2 2 2s2-.9 2-2v-13h13c1.1 0 2-.9 2-2-.1-1-1-1.9-2.1-1.9z"/><path d="m48.7 39.7h5.5c0-2.5-2-4.6-4.6-4.6h-.7v-2c0-.3 0-.7 0-1 0-4.2-3.4-7.6-7.6-7.6s-7.6 3.4-7.6 7.6c0 4 3.2 7.4 7.2 7.6h.3.1.1 3.6zm-4.7-7.8v2.5h-2.8c-1.5-.1-2.6-1.3-2.5-2.8s1.3-2.6 2.8-2.5c1.4.1 2.5 1.2 2.5 2.7z"/><path d="m74.1 95h-41.8c-4 0-7.8-2.2-9.8-5.7l-20.9-36.1c-2-3.5-2-7.8 0-11.3l20.9-36.2c2-3.5 5.8-5.7 9.8-5.7h41.8c4 0 7.8 2.2 9.8 5.7l20.9 36.2c2 3.5 2 7.8 0 11.3l-20.9 36.1c-2 3.5-5.8 5.7-9.8 5.7zm-41.8-2h41.8c3.3 0 6.4-1.8 8.1-4.7l20.9-36.2c1.7-2.9 1.7-6.5 0-9.3l-20.9-36.1c-1.7-2.9-4.8-4.7-8.1-4.7h-41.8c-3.3 0-6.4 1.8-8.1 4.7l-20.8 36.1c-1.7 2.9-1.7 6.5 0 9.3l20.9 36.2c1.6 2.9 4.7 4.7 8 4.7z"/></svg>