<svg enable-background="new 0 0 106.4 95" viewBox="0 0 106.4 95" xmlns="http://www.w3.org/2000/svg"><path d="m78.9 47.4c.6-.5.7-1.5.2-2.1-.1-.1-.2-.2-.3-.3-3.4-2.2-5.5-6-5.4-10.1v-.1-2.3c0-.6-.3-1.1-.9-1.3-6-2.2-12.2-3.2-18.6-3.1-6.5-.1-13 1-19.2 3.4-.5.2-.9.7-.9 1.3v1.2 1c0 3.9-1.9 7.6-5.2 9.8-.7.5-.9 1.4-.4 2.1.1.1.2.2.2.3 1.8 1.5 3.9 2.8 6.1 3.6v10.5c.2 3.7 8.6 6.7 19 6.7s18.8-3 19-6.7v-.1s0-.1 0-.1v-10.1c2.3-.8 4.5-2 6.4-3.6m-6.4 2c-.6.3-1.3.5-1.9.7-.6.2-1.3.4-1.9.6l-.2.1c-1.3.4-2.8.7-4.2 1-.1 0-.3 0-.4.1-.6.1-1.3.2-1.9.3-.1 0-.2 0-.3 0-.7.1-1.5.2-2.3.2-.2 0-.3 0-.5 0-.6.1-1.3.1-1.9.1-.2 0-.4 0-.6 0-.8 0-1.6 0-2.4 0-.6 0-1.1 0-1.7 0h-.5c-.4 0-.9 0-1.3-.1-.1 0-.3 0-.4 0-.5 0-1.1-.1-1.6-.1-.2 0-.4 0-.5-.1-.4 0-.7-.1-1.1-.1-.2 0-.4-.1-.7-.1s-.7-.1-1-.1c-.4-.1-.7-.1-1.1-.2-.2 0-.5-.1-.7-.1-.3-.1-.6-.1-.9-.2-.2 0-.3-.1-.5-.1-1-.2-2.1-.5-3-.8l-.2-.1c-1.4-.4-2.7-.9-4-1.5-1.8-.8-3.5-1.8-5.1-3.1 2.6-1.8 4.5-4.5 5.4-7.6 0 0 0 0 0-.1.1-.3.1-.5.2-.8 0-.1 0-.2 0-.2 0-.2.1-.5.1-.7 0-.1 0-.2 0-.3 0-.3.1-.6.1-.9v-.6-2.1c5.9-2.2 12.2-3.3 18.5-3.2 6.1-.1 12.2.9 17.9 3v2.3 1 .2c0 .3.1.6.1.9v.1c.6 3.7 2.8 6.9 5.9 9-1.6 1.8-3.4 2.8-5.4 3.6"/><path d="m70.3 33.9c-.2-.4-.6-.6-1-.4-1.5.6-3 1-4.5 1.3-2.4-1.1-6.4-1.8-11.1-1.8s-8.8.7-11.2 1.9c-1.7-.3-3.3-.8-4.9-1.4-.4-.2-.8 0-1 .4s0 .8.4 1c1.2.5 2.5.9 3.8 1.2 4.2.9 8.5 1.4 12.7 1.3 4.3 0 8.7-.4 12.9-1.4 1.2-.3 2.3-.6 3.4-1 .5-.3.7-.7.5-1.1"/><path d="m74.1 95h-41.8c-4 0-7.8-2.2-9.8-5.7l-20.9-36.1c-2-3.5-2-7.8 0-11.3l20.9-36.2c2-3.5 5.8-5.7 9.8-5.7h41.8c4 0 7.8 2.2 9.8 5.7l20.9 36.2c2 3.5 2 7.8 0 11.3l-20.9 36.1c-2 3.5-5.8 5.7-9.8 5.7zm-41.8-2h41.8c3.3 0 6.4-1.8 8.1-4.7l20.9-36.2c1.7-2.9 1.7-6.5 0-9.3l-20.9-36.1c-1.7-2.9-4.8-4.7-8.1-4.7h-41.8c-3.3 0-6.4 1.8-8.1 4.7l-20.8 36.1c-1.7 2.9-1.7 6.5 0 9.3l20.9 36.2c1.6 2.9 4.7 4.7 8 4.7z"/></svg>