<svg height="95.015" viewBox="0 0 106.192 95.015" width="106.192" xmlns="http://www.w3.org/2000/svg"><path d="m31.725 132.955h41.752a11.379 11.379 0 0 1 9.829 5.675l20.875 36.158a11.38 11.38 0 0 1 0 11.349l-20.875 36.158a11.379 11.379 0 0 1 -9.829 5.675h-41.752a11.379 11.379 0 0 1 -9.829-5.675l-20.875-36.158a11.38 11.38 0 0 1 0-11.349l20.879-36.158a11.379 11.379 0 0 1 9.825-5.675zm41.752 93.015a9.374 9.374 0 0 0 8.1-4.675l20.875-36.158a9.374 9.374 0 0 0 0-9.349l-20.878-36.158a9.374 9.374 0 0 0 -8.1-4.675h-41.749a9.374 9.374 0 0 0 -8.1 4.675l-20.872 36.158a9.374 9.374 0 0 0 0 9.349l20.875 36.158a9.374 9.374 0 0 0 8.1 4.675z" transform="translate(.495 -132.955)"/><path d="m44.6 33.1c-.053-.03-.116-.051-.171-.082a6.47 6.47 0 0 0 -.59-.281c-.112-.047-.228-.089-.34-.131-.161-.059-.323-.114-.488-.161-.129-.04-.26-.074-.391-.106-.159-.038-.321-.068-.486-.095-.135-.025-.269-.049-.408-.066-.192-.023-.385-.03-.581-.036-.1 0-.2-.019-.3-.019a7.862 7.862 0 0 0 -6.323 3.239c-.07-.015-.135-.023-.2-.036a10.523 10.523 0 0 0 -5.771-1.649 10.781 10.781 0 0 0 -3.879.7 9.23 9.23 0 0 0 -2.533 1.406 5.466 5.466 0 0 0 -.6.569 3.549 3.549 0 0 1 -.77.8.846.846 0 0 1 -.23.085h-.289a.419.419 0 0 1 -.271-.169c0-.006-.009-.008-.013-.011a2.48 2.48 0 0 1 -.178-1.163c-.021-.446-.036-.892-.08-1.338 0-.038 0-.076-.008-.116-.072-.653-.131-1.306-.18-1.962-.07-.852-.125-1.714-.167-2.554l-.006-.144a26.94 26.94 0 0 1 .137-5.359 18.347 18.347 0 0 1 1.448-4.866c.123-.268.262-.535.4-.8.091-.171.184-.349.273-.528.027-.053.053-.11.083-.171a1.926 1.926 0 0 1 .556-.814.739.739 0 0 1 .376-.078c.1 0 .2.009.3.017.072.008.148.013.22.015l.444.025c.271.017.554.034.833.034a4.583 4.583 0 0 0 .677-.044 1.655 1.655 0 0 0 .5-.188c.047-.025.093-.047.137-.066.613-.279 1.239-.556 1.846-.82.233-.1.471-.2.706-.309a3.09 3.09 0 0 0 1.315-.14 1.564 1.564 0 0 0 .753-1.585 1.006 1.006 0 0 0 -.076-.332.855.855 0 0 0 -.677-.486 8.235 8.235 0 0 1 .48-1.14l.017-.034a2.181 2.181 0 0 0 .273-1.659c-.311-.852-3.839-3.293-4.568-3.792a3.393 3.393 0 0 0 -1.831-.812c-.552.013-2.361 1.514-3.391 2.408a22.476 22.476 0 0 0 -3.141 3.127 3.977 3.977 0 0 0 -.541 1.243l-.296.674c-.541 1.252-1.262 2.763-2.023 4.361-.127.268-.252.535-.378.8-.3.636-.6 1.27-.9 1.907-.08.171-.158.334-.239.507-.355.765-.7 1.537-1.046 2.309a61.511 61.511 0 0 0 -3.2 8.606c-.116.429-.211.846-.292 1.256-.074.389-.152.778-.2 1.167-.013.087-.023.173-.034.254-.091.738-.156 1.48-.176 2.218v.1a15.4 15.4 0 0 0 .116 2.344c.112.858.285 1.714.361 2.575l.015.1c-.015.074-.03.169-.049.273-.034.241-.074.482-.1.714-.006.055-.009.114-.015.173a2.893 2.893 0 0 0 .065.922 2.286 2.286 0 0 0 .846 1.15c.175.106.423.247.753.406.349.161.7.317 1.065.463.148.057.283.114.446.175.025.009.051.017.074.028.45.169.913.3 1.37.448.249.076.49.152.765.228a57.594 57.594 0 0 0 10.685 1.659c.954.068 1.911.127 2.865.171.4.017.8.038 1.194.051 1.089.034 2.18.057 3.272.063l.645.008c.566 0 1.131-.011 1.695-.017 1.583-.019 3.2-.055 4.879-.127l.3-.011s.827.025 1.361.028a11.956 11.956 0 0 0 2.28-.34c.078-.019.389-.112.715-.218.419-.137.86-.307.879-.412a8.382 8.382 0 0 0 .006-14.539z" transform="translate(25.636 16.213)"/></svg>