<svg enable-background="new 0 0 106.4 95" viewBox="0 0 106.4 95" xmlns="http://www.w3.org/2000/svg"><path d="m74.1 95h-41.8c-4 0-7.8-2.2-9.8-5.7l-20.9-36.1c-2-3.5-2-7.8 0-11.3l20.9-36.2c2-3.5 5.8-5.7 9.8-5.7h41.8c4 0 7.8 2.2 9.8 5.7l20.9 36.2c2 3.5 2 7.8 0 11.3l-20.9 36.1c-2 3.5-5.8 5.7-9.8 5.7zm-41.8-2h41.8c3.3 0 6.4-1.8 8.1-4.7l20.9-36.2c1.7-2.9 1.7-6.5 0-9.3l-20.9-36.1c-1.7-2.9-4.8-4.7-8.1-4.7h-41.8c-3.3 0-6.4 1.8-8.1 4.7l-20.8 36.1c-1.7 2.9-1.7 6.5 0 9.3l20.9 36.2c1.6 2.9 4.7 4.7 8 4.7z"/><path d="m68.6 62.5c-.4-.6-.7-1.2-.9-1.9-.5-1.6-.9-16.5-.9-20.7v-.3c0-3.9 0-3.9-1.8-5.1l-.3-.2c-2.2-1.5-6.4-4.4-9.2-4.2h-4.5c-.1 0-.2 0-.3 0-2.8 0-6.8 2.7-9 4.2l-.3.2c-1.8 1.2-1.8 1.2-1.8 5.1v.3c0 4.2-.4 19.1-.9 20.7-.2.7-.5 1.3-.9 1.9-.7 1.1-1.2 2.2-1.5 3.5v.1c.2.2 1.2.9 7.2.9 4.6 0 9.7-.4 9.7-.4.1 0 5.1.4 9.7.4 6 0 7-.7 7.2-.9v-.1c-.3-1.3-.8-2.5-1.5-3.5z"/><path d="m65.8 20.1c-4.2-.6-10.2 4.6-12.4 6.4-2.1-1.8-8.2-7.1-12.4-6.4-2.4.4-4.2 1.9-4.3 3.7-.1 1.5.9 2.7 2.7 3.2 3.6 1.1 13.2 1.1 13.6 1.1h.4.4c.4 0 10.1 0 13.6-1.1 1.8-.5 2.8-1.7 2.7-3.2-.1-1.8-1.9-3.3-4.3-3.7zm-25.9 5.3c-1-.3-1.5-.8-1.5-1.5.1-.8 1.1-1.9 2.9-2.1h.5c2 0 5 1.6 8.8 4.7-3-.1-8.4-.4-10.7-1.1zm27.1 0c-2.3.7-7.7.9-10.8 1 3.8-3.1 6.8-4.7 8.8-4.7h.5c1.8.3 2.9 1.3 2.9 2.1.1.8-.4 1.3-1.4 1.6z"/></svg>