<svg height="95.015" viewBox="0 0 106.192 95.015" width="106.192" xmlns="http://www.w3.org/2000/svg" xmlns:xlink="http://www.w3.org/1999/xlink"><clipPath id="a"><path d="m0 0h51.42v40.008h-51.42z"/></clipPath><path d="m31.725 132.955h41.752a11.379 11.379 0 0 1 9.829 5.675l20.875 36.158a11.38 11.38 0 0 1 0 11.349l-20.875 36.158a11.379 11.379 0 0 1 -9.829 5.675h-41.752a11.379 11.379 0 0 1 -9.829-5.675l-20.875-36.158a11.38 11.38 0 0 1 0-11.349l20.879-36.158a11.379 11.379 0 0 1 9.825-5.675zm41.752 93.015a9.374 9.374 0 0 0 8.1-4.675l20.875-36.158a9.374 9.374 0 0 0 0-9.349l-20.878-36.158a9.374 9.374 0 0 0 -8.1-4.675h-41.749a9.374 9.374 0 0 0 -8.1 4.675l-20.872 36.158a9.374 9.374 0 0 0 0 9.349l20.875 36.158a9.374 9.374 0 0 0 8.1 4.675z" transform="translate(.495 -132.955)"/><g clip-path="url(#a)" transform="translate(27.886 28.059)"><path d="m50.878 19.37a1.523 1.523 0 0 0 -.146-2.439 11.95 11.95 0 0 1 -5.432-10.069c0-.049.008-.1.009-.148l-.009-2.276a1.4 1.4 0 0 0 -.888-1.31 52.5 52.5 0 0 0 -18.575-3.128 51.693 51.693 0 0 0 -19.152 3.35 1.4 1.4 0 0 0 -.864 1.3v1.279h-.027l.028.981a11.973 11.973 0 0 1 -5.169 9.83 1.524 1.524 0 0 0 -.136 2.394 21.734 21.734 0 0 0 6.074 3.625v10.532h.009c.185 3.721 8.6 6.717 18.953 6.717s18.768-3 18.953-6.717v-.042c0-.028.006-.055.006-.083s0-.055-.006-.083v-10.1a22.931 22.931 0 0 0 6.369-3.609m-6.369 1.962q-.922.385-1.919.73l-.048.015c-.615.212-1.252.409-1.906.6l-.242.07c-1.345.376-2.765.7-4.243.965-.138.025-.278.048-.416.072q-.953.164-1.936.3c-.115.015-.228.033-.343.048q-1.122.144-2.277.245c-.151.013-.3.023-.456.035q-.935.075-1.887.121c-.212.01-.425.021-.639.028-.781.03-1.566.05-2.36.05-.57 0-1.136-.011-1.7-.027l-.492-.016q-.653-.024-1.3-.062c-.142-.008-.285-.015-.428-.025q-.8-.052-1.582-.125c-.181-.017-.361-.037-.541-.055q-.531-.053-1.055-.117c-.222-.027-.444-.054-.665-.083-.339-.045-.675-.095-1.01-.145q-.555-.084-1.1-.179c-.249-.043-.5-.086-.745-.132q-.434-.082-.861-.17c-.172-.035-.343-.073-.514-.11-1.046-.228-2.06-.483-3.032-.767l-.2-.058a34.619 34.619 0 0 1 -4.02-1.456 19.537 19.537 0 0 1 -5.062-3.069 13.542 13.542 0 0 0 5.353-7.559c.005-.022.01-.043.016-.064.072-.271.135-.545.192-.82.015-.077.029-.155.044-.232.042-.23.078-.461.108-.693.011-.084.023-.168.032-.252.034-.3.061-.611.073-.919v-.6l.015-2.143a50.231 50.231 0 0 1 18.478-3.2 51.062 51.062 0 0 1 17.925 2.989v2.3.038s0 .028 0 .042c0 .349.018.7.045 1.04.006.083.015.165.023.248q.042.441.112.874c.008.048.015.1.023.146a13.495 13.495 0 0 0 5.907 8.988 20.8 20.8 0 0 1 -5.363 3.126"/><path d="m44.922 7.274a.77.77 0 0 0 -1-.429 26.445 26.445 0 0 1 -4.54 1.282c-2.374-1.109-6.45-1.841-11.087-1.841-4.683 0-8.791.749-11.155 1.876a26.233 26.233 0 0 1 -4.872-1.387.769.769 0 1 0 -.589 1.421 24.933 24.933 0 0 0 3.765 1.169 57.5 57.5 0 0 0 12.739 1.312 57.267 57.267 0 0 0 12.926-1.358 25.048 25.048 0 0 0 3.383-1.045.77.77 0 0 0 .429-1" transform="translate(-2.585 -1.45)"/></g></svg>