<svg enable-background="new 0 0 106.4 95" viewBox="0 0 106.4 95" xmlns="http://www.w3.org/2000/svg"><path d="m74.1 95h-41.8c-4 0-7.8-2.2-9.8-5.7l-20.9-36.1c-2-3.5-2-7.8 0-11.3l20.9-36.2c2-3.5 5.8-5.7 9.8-5.7h41.8c4 0 7.8 2.2 9.8 5.7l20.9 36.2c2 3.5 2 7.8 0 11.3l-20.9 36.1c-2 3.5-5.8 5.7-9.8 5.7zm-41.8-2h41.8c3.3 0 6.4-1.8 8.1-4.7l20.9-36.2c1.7-2.9 1.7-6.5 0-9.3l-20.9-36.1c-1.7-2.9-4.8-4.7-8.1-4.7h-41.8c-3.3 0-6.4 1.8-8.1 4.7l-20.8 36.1c-1.7 2.9-1.7 6.5 0 9.3l20.9 36.2c1.6 2.9 4.7 4.7 8 4.7z"/><path d="m70.4 49.3c-.1 0-.1-.1-.2-.1-.2-.1-.4-.2-.6-.3-.1 0-.2-.1-.3-.1-.2-.1-.3-.1-.5-.2-.1 0-.3-.1-.4-.1-.2 0-.3-.1-.5-.1-.1 0-.3 0-.4-.1-.2 0-.4 0-.6 0-.1 0-.2 0-.3 0-2.5 0-4.9 1.2-6.3 3.2-.1 0-.1 0-.2 0-1.7-1.1-3.7-1.7-5.8-1.6-1.3 0-2.6.2-3.9.7-.9.3-1.8.8-2.5 1.4-.2.2-.4.4-.6.6-.2.3-.5.6-.8.8-.1 0-.1.1-.2.1h-.3c-.1 0-.2-.1-.3-.2-.2-.4-.2-.8-.2-1.2s0-.9-.1-1.3v-.1c-.1-.7-.1-1.3-.2-2-.1-.9-.1-1.7-.2-2.6v-.1c-.1-1.8-.1-3.6.1-5.4.3-1.7.7-3.3 1.4-4.9.1-.3.3-.5.4-.8.1-.2.2-.3.3-.5 0-.1.1-.1.1-.2.1-.3.3-.6.6-.8.1-.1.2-.1.4-.1h.3.2.4.8.7c.2 0 .3-.1.5-.2 0 0 .1 0 .1-.1.6-.3 1.2-.6 1.8-.8.2-.1.5-.2.7-.3.4 0 .9 0 1.3-.1.6-.3.8-1 .8-1.6 0-.1 0-.2-.1-.3-.1-.3-.4-.5-.7-.5.1-.4.3-.8.5-1.1.3-.5.4-1.1.3-1.7-.3-.9-3.8-3.3-4.6-3.8-.5-.4-1.2-.7-1.8-.8-.6 0-2.4 1.5-3.4 2.4-1.1.9-2.2 2-3.1 3.1-.3.4-.4.8-.5 1.2l-.3.7c-.5 1.3-1.3 2.8-2 4.4-.1.3-.3.5-.4.8-.3.6-.6 1.3-.9 1.9-.1.2-.2.3-.2.5-.4.8-.7 1.5-1 2.3-1.3 2.8-2.3 5.7-3.2 8.6-.1.4-.2.8-.3 1.3-.1.4-.2.8-.2 1.2v.3c-.1.7-.2 1.5-.2 2.2v.1c0 .8 0 1.6.1 2.3.1.9.3 1.7.4 2.6v.1.3c0 .2-.1.5-.1.7v.2c0 .3 0 .6.1.9.2.5.4.9.8 1.2.2.1.4.2.8.4.3.2.7.3 1.1.5.1.1.3.1.4.2h.1c.4.2.9.3 1.4.4.2.1.5.2.8.2 3.5.9 7.1 1.4 10.7 1.7 1 .1 1.9.1 2.9.2.4 0 .8 0 1.2.1 1.1 0 2.2.1 3.3.1h.6 1.7c1.6 0 3.2-.1 4.9-.1h.3 1.4c.8 0 1.5-.2 2.3-.3.1 0 .4-.1.7-.2.4-.1.9-.3.9-.4 4-2.3 5.4-7.4 3.1-11.4-1-1.6-2.1-2.6-3.3-3.4z"/></svg>