<svg enable-background="new 0 0 106.4 95" viewBox="0 0 106.4 95" xmlns="http://www.w3.org/2000/svg"><path d="m53.2 25.7c-11.8 0-21.4 9.6-21.4 21.4s9.6 21.4 21.4 21.4 21.5-9.5 21.5-21.4-9.6-21.4-21.5-21.4zm18.4 21.4c0 4.1-1.4 7.9-3.6 10.9l-8.7-8.7c.2-.6.5-1.2.9-1.8 1.5-2.4 2-5.2 1.4-7.9-.3-1.1-.8-2.2-1.5-3.1-.4-.5-1.1-.5-1.6-.1s-.5 1.1-.1 1.6c.5.6.9 1.4 1 2.2.5 2.2 0 4.4-1.2 6.3-.2.4-.5.8-.6 1.2l-2.4-2.4c.6-1.8.7-3.8.3-5.7-.3-1.1-.8-2.2-1.5-3.1-.2-.3-.5-.4-.9-.4-.6 0-1.1.5-1.1 1.2 0 .3.1.5.3.7.5.6.9 1.4 1 2.2.2 1.1.2 2.2 0 3.3l-3.9-3.9c-.3-1.1-.8-2.2-1.5-3.1-.4-.5-1.1-.5-1.6-.1 0 0 0 0-.1.1l-4.1-4.1c3.1-2.3 6.8-3.6 10.9-3.6 10.4 0 18.6 8.2 18.6 18.3zm-36.7 0c0-4.9 2-9.4 5.1-12.7l7.6 7.6c0 1.6-.5 3.2-1.3 4.5-1.5 2.4-2 5.2-1.4 7.9.3 1.1.8 2.2 1.5 3.1.2.2.5.4.8.4h.1c.6 0 1.1-.5 1.1-1.1 0-.3-.1-.6-.3-.8-.5-.6-.9-1.4-1-2.2-.5-2.2 0-4.4 1.2-6.3.7-1.1 1.2-2.3 1.4-3.6l2.6 2.6c-1.5 2.3-1.9 5.1-1.3 7.8.3 1.1.8 2.2 1.5 3.1.2.2.5.4.8.4h.1c.6 0 1.1-.5 1.1-1.1 0-.3-.1-.6-.3-.8-.5-.6-.9-1.4-1-2.2-.4-1.9-.1-3.9.8-5.7l2.9 2.9c-.1 1.1-.1 2.2.2 3.3s.8 2.2 1.5 3.1c.2.2.5.4.8.4h.1c.6 0 1.1-.5 1.1-1.1 0-.3-.1-.6-.3-.8-.5-.6-.9-1.4-1-2.2 0-.2-.1-.4-.1-.5l7 7c-3.3 3.2-7.8 5.1-12.7 5.1-10.4.3-18.6-7.9-18.6-18.1z"/><path d="m74.1 95h-41.8c-4 0-7.8-2.2-9.8-5.7l-20.9-36.1c-2-3.5-2-7.8 0-11.3l20.9-36.2c2-3.5 5.8-5.7 9.8-5.7h41.8c4 0 7.8 2.2 9.8 5.7l20.9 36.2c2 3.5 2 7.8 0 11.3l-20.9 36.1c-2 3.5-5.8 5.7-9.8 5.7zm-41.8-2h41.8c3.3 0 6.4-1.8 8.1-4.7l20.9-36.2c1.7-2.9 1.7-6.5 0-9.3l-20.9-36.1c-1.7-2.9-4.8-4.7-8.1-4.7h-41.8c-3.3 0-6.4 1.8-8.1 4.7l-20.8 36.1c-1.7 2.9-1.7 6.5 0 9.3l20.9 36.2c1.6 2.9 4.7 4.7 8 4.7z"/></svg>