<svg height="26.888" viewBox="0 0 26.888 26.888" width="26.888" xmlns="http://www.w3.org/2000/svg"><path d="m38.882 25.041a13.444 13.444 0 1 0 -13.482 13.443 13.44 13.44 0 0 0 13.482-13.443zm-13.442-9.841h6.74a12.369 12.369 0 0 1 2.717 2.54h-9.457zm0 4.9h10.868c.141.317.283.635.389.952.036.07.036.141.07.212a2.552 2.552 0 0 1 .141.493 2.962 2.962 0 0 1 .141.6c.036.106.036.212.07.317h-11.679zm-2.44-5.185.389-.776.389.776.846.141-.635.565.141.846-.776-.389-.776.389.141-.846-.635-.6zm1.129 9.033-.776-.389-.776.389.141-.846-.635-.6.846-.141.389-.776.389.776.846.141-.564.564zm-2.717-6.1.389.776.846.141-.635.6.141.846-.776-.389-.74.39.141-.846-.635-.6.846-.141zm-1.2 6.1-.776-.389-.776.389.141-.846-.635-.6.846-.141.389-.776.389.776.846.141-.635.6zm-1.165-9.033.389-.776.389.776.846.141-.6.565.141.846-.776-.389-.776.389.141-.846-.635-.6zm-1.941 3.7.389-.776.389.776.846.141-.635.6.141.846-.776-.389-.742.39.141-.846-.634-.6zm-1.97 3.745.389-.776.389.776.846.141-.635.6.141.846-.74-.423-.776.389.141-.846-.635-.6zm-1.446 4.9c-.036-.212-.07-.459-.106-.706 0-.141-.036-.283-.036-.389-.036-.389-.07-.742-.07-1.129h23.887c0 .389-.036.776-.07 1.129 0 .141-.036.283-.036.389-.036.247-.07.459-.106.706-.036.106-.036.212-.07.317h-23.322a1 1 0 0 1 -.07-.317zm11.71 9.74a11.893 11.893 0 0 1 -6.81-2.117h13.588a11.706 11.706 0 0 1 -6.778 2.117zm-9.31-4.479a10.416 10.416 0 0 1 -1.552-2.54h21.77a13.194 13.194 0 0 1 -1.552 2.54z" fill="#00194a" opacity=".558" transform="translate(-11.995 -11.597)"/></svg>