<svg height="95.015" viewBox="0 0 106.192 95.015" width="106.192" xmlns="http://www.w3.org/2000/svg" xmlns:xlink="http://www.w3.org/1999/xlink"><clipPath id="a"><path d="m0 0h34.135v51.753h-34.135z"/></clipPath><path d="m31.725 132.955h41.752a11.379 11.379 0 0 1 9.829 5.675l20.875 36.158a11.38 11.38 0 0 1 0 11.349l-20.875 36.158a11.379 11.379 0 0 1 -9.829 5.675h-41.752a11.379 11.379 0 0 1 -9.829-5.675l-20.875-36.158a11.38 11.38 0 0 1 0-11.349l20.879-36.158a11.379 11.379 0 0 1 9.825-5.675zm41.752 93.015a9.374 9.374 0 0 0 8.1-4.675l20.875-36.158a9.374 9.374 0 0 0 0-9.349l-20.878-36.158a9.374 9.374 0 0 0 -8.1-4.675h-41.749a9.374 9.374 0 0 0 -8.1 4.675l-20.872 36.158a9.374 9.374 0 0 0 0 9.349l20.875 36.158a9.374 9.374 0 0 0 8.1 4.675z" transform="translate(.495 -132.955)"/><g clip-path="url(#a)" transform="translate(33.748 20.091)"><path d="m33.7 24.3-13.787-22.83a3.042 3.042 0 0 0 -5.193-.024l-4.529 7.345-1.482-.161a6.134 6.134 0 0 0 -6.348 3.828 36.835 36.835 0 0 0 -2.361 13.421 36.8 36.8 0 0 0 2.377 13.458 6.147 6.147 0 0 0 5.691 3.863 6.064 6.064 0 0 0 .634-.033l1.514-.167 4.5 7.3a3.042 3.042 0 0 0 5.193-.025l13.791-22.826a3.042 3.042 0 0 0 0-3.144m-16.538-16.105a2.6 2.6 0 0 1 2.4 1.613l-4.541-.493a2.6 2.6 0 0 1 2.141-1.12m-8.253 32.682-.442.046a3.89 3.89 0 0 1 -4-2.423 31.712 31.712 0 0 1 -1.949-7.995 40.132 40.132 0 0 1 0-9.271 31.738 31.738 0 0 1 1.934-7.954 3.873 3.873 0 0 1 4.017-2.423l.419.046 5.676.617 5.148.559v27.663l-5.148.541zm8.253 2.8a2.6 2.6 0 0 1 -2.176-1.182l4.6-.483a2.6 2.6 0 0 1 -2.423 1.662"/></g></svg>