<svg height="95.015" viewBox="0 0 106.192 95.015" width="106.192" xmlns="http://www.w3.org/2000/svg" xmlns:xlink="http://www.w3.org/1999/xlink"><clipPath id="a"><path d="m0 0h42.894v42.894h-42.894z"/></clipPath><path d="m31.725 132.955h41.752a11.379 11.379 0 0 1 9.829 5.675l20.875 36.158a11.38 11.38 0 0 1 0 11.349l-20.875 36.158a11.379 11.379 0 0 1 -9.829 5.675h-41.752a11.379 11.379 0 0 1 -9.829-5.675l-20.875-36.158a11.38 11.38 0 0 1 0-11.349l20.879-36.158a11.379 11.379 0 0 1 9.825-5.675zm41.752 93.015a9.374 9.374 0 0 0 8.1-4.675l20.875-36.158a9.374 9.374 0 0 0 0-9.349l-20.878-36.158a9.374 9.374 0 0 0 -8.1-4.675h-41.749a9.374 9.374 0 0 0 -8.1 4.675l-20.872 36.158a9.374 9.374 0 0 0 0 9.349l20.875 36.158a9.374 9.374 0 0 0 8.1 4.675z" transform="translate(.495 -132.955)"/><g clip-path="url(#a)" transform="translate(31.649 25.674)"><path d="m50.709 38.084a8.33 8.33 0 0 1 1.161-6.284 10.484 10.484 0 0 0 1.4-7.933 8.038 8.038 0 0 0 -1.518-3.13 1.113 1.113 0 1 0 -1.671 1.47 5.63 5.63 0 0 1 1.034 2.2 8.33 8.33 0 0 1 -1.166 6.282 10.485 10.485 0 0 0 -1.4 7.935 7.979 7.979 0 0 0 1.517 3.116 1.12 1.12 0 0 0 .773.418h.1a1.113 1.113 0 0 0 .808-1.879 5.653 5.653 0 0 1 -1.036-2.2" transform="translate(-23.486 -9.9)"/><path d="m29.843 23.868a8.007 8.007 0 0 0 -1.525-3.13 1.113 1.113 0 1 0 -1.671 1.47 5.641 5.641 0 0 1 1.036 2.2 8.335 8.335 0 0 1 -1.167 6.282 10.487 10.487 0 0 0 -1.392 7.935 8.04 8.04 0 0 0 1.513 3.121 1.121 1.121 0 0 0 .771.4h.086a1.112 1.112 0 0 0 1.115-1.062 1.108 1.108 0 0 0 -.3-.807 5.647 5.647 0 0 1 -1.035-2.2 8.329 8.329 0 0 1 1.171-6.277 10.482 10.482 0 0 0 1.4-7.933" transform="translate(-12.091 -9.9)"/><path d="m41.556 23.868a8.007 8.007 0 0 0 -1.525-3.13 1.1 1.1 0 0 0 -.887-.386 1.112 1.112 0 0 0 -.782 1.857 5.647 5.647 0 0 1 1.034 2.2 8.337 8.337 0 0 1 -1.168 6.283 10.488 10.488 0 0 0 -1.4 7.934 7.965 7.965 0 0 0 1.517 3.116 1.118 1.118 0 0 0 .772.418h.1a1.112 1.112 0 0 0 .807-1.879 5.647 5.647 0 0 1 -1.035-2.2 8.329 8.329 0 0 1 1.169-6.281 10.486 10.486 0 0 0 1.4-7.933" transform="translate(-17.786 -9.9)"/><path d="m21.447 3.081a18.366 18.366 0 1 1 -18.366 18.366 18.387 18.387 0 0 1 18.366-18.366m0-3.081a21.447 21.447 0 1 0 21.447 21.447 21.447 21.447 0 0 0 -21.447-21.447"/><path d="m0 0h3.081v40.07h-3.081z" transform="matrix(.70710678 -.70710678 .70710678 .70710678 7.504 8.025)"/></g></svg>