<svg height="105.663" viewBox="0 0 118.277 105.663" width="118.277" xmlns="http://www.w3.org/2000/svg"><path d="m81.047 133.955h-46.083a11.421 11.421 0 0 0 -9.892 5.712l-23.041 39.908a11.422 11.422 0 0 0 0 11.422l23.04 39.908a11.421 11.421 0 0 0 9.892 5.712h46.084a11.421 11.421 0 0 0 9.893-5.712l23.04-39.905a11.422 11.422 0 0 0 0-11.422l-23.04-39.908a11.421 11.421 0 0 0 -9.893-5.715z" fill="none" stroke="#fff" stroke-miterlimit="10" stroke-width="3" transform="translate(1.134 -132.455)"/><g fill="#fff"><path d="m0 2.4v3.3a40.637 40.637 0 0 1 13.066-1.966 40.639 40.639 0 0 1 13.066 1.966v-3.3a34.084 34.084 0 0 0 -13.066-2.4 34.081 34.081 0 0 0 -13.066 2.4" transform="translate(46.073 25.936)"/><path d="m0 25.533v40.082a34.082 34.082 0 0 0 13.066 2.4 34.083 34.083 0 0 0 13.066-2.4v-40.082a38.41 38.41 0 0 0 -13.066-2.118 38.4 38.4 0 0 0 -13.066 2.118m17.712 33.876.988-.109v5.54l-.79.088a44.608 44.608 0 0 1 -9.683 0l-.79-.088v-5.54l.985.109a42.935 42.935 0 0 0 9.293 0" transform="translate(46.073 8.066)"/></g></svg>