<svg height="105.663" viewBox="0 0 118.277 105.663" width="118.277" xmlns="http://www.w3.org/2000/svg" xmlns:xlink="http://www.w3.org/1999/xlink"><clipPath id="a"><path d="m0 0h27.094v44.33h-27.094z"/></clipPath><path d="m81.047 133.955h-46.083a11.421 11.421 0 0 0 -9.892 5.712l-23.041 39.908a11.422 11.422 0 0 0 0 11.422l23.04 39.908a11.421 11.421 0 0 0 9.892 5.712h46.084a11.421 11.421 0 0 0 9.893-5.712l23.04-39.905a11.422 11.422 0 0 0 0-11.422l-23.04-39.908a11.421 11.421 0 0 0 -9.893-5.715z" fill="none" stroke="#fff" stroke-miterlimit="10" stroke-width="3" transform="translate(1.133 -132.455)"/><g clip-path="url(#a)" fill="#fff" transform="translate(45.592 28.846)"><path d="m12.913 0c-10.65 0-12.913 1.787-12.913 1.787v4.808a79.44 79.44 0 0 1 13.547-1.065 79.442 79.442 0 0 1 13.547 1.065v-4.808s-3.531-1.787-14.181-1.787"/><path d="m0 29.474v34.85a49.4 49.4 0 0 0 6.855.982v-3.306a11.24 11.24 0 0 1 1.158-.521 15.519 15.519 0 0 1 5.534-.968 15.518 15.518 0 0 1 5.534.968 11.19 11.19 0 0 1 1.158.521v3.29a53.235 53.235 0 0 0 6.855-.966v-34.85a76.727 76.727 0 0 0 -13.547-1.093 76.725 76.725 0 0 0 -13.547 1.093" transform="translate(0 -21.04)"/><path d="m42.45 163.238a20.843 20.843 0 0 0 -5.24-.743 15.869 15.869 0 0 0 -5.012.86v1.439h10.309z" transform="translate(-23.87 -120.464)"/></g></svg>