<svg height="105.663" viewBox="0 0 118.277 105.663" width="118.277" xmlns="http://www.w3.org/2000/svg" xmlns:xlink="http://www.w3.org/1999/xlink"><clipPath id="a"><path d="m0 0h37.428v44.37h-37.428z"/></clipPath><path d="m81.047 133.955h-46.083a11.421 11.421 0 0 0 -9.892 5.712l-23.041 39.908a11.422 11.422 0 0 0 0 11.422l23.04 39.908a11.421 11.421 0 0 0 9.892 5.712h46.084a11.421 11.421 0 0 0 9.893-5.712l23.04-39.905a11.422 11.422 0 0 0 0-11.422l-23.04-39.908a11.421 11.421 0 0 0 -9.893-5.715z" fill="none" stroke="#fff" stroke-miterlimit="10" stroke-width="3" transform="translate(1.134 -132.455)"/><g clip-path="url(#a)" transform="translate(40.775 29.293)"><path d="m36.892.81c-5.086-.524-11.468-.81-18.209-.81-6.714 0-13.069.284-18.146.8a.6.6 0 0 0 .125 1.2l.659-.065c.716 6.071 1.372 12.225 2.006 18.178.636 5.972 1.294 12.148 2.013 18.242h.027c.165 3.386 5.952 6.017 13.316 6.017 7.309 0 13.065-2.592 13.312-5.941h.019c.719-6.094 1.4-12.288 2.051-18.278.652-5.969 1.327-12.142 2.043-18.212l.659.065a.6.6 0 0 0 .126-1.2" fill="#fff"/></g></svg>