<svg height="105.663" viewBox="0 0 118.277 105.663" width="118.277" xmlns="http://www.w3.org/2000/svg" xmlns:xlink="http://www.w3.org/1999/xlink"><clipPath id="a"><path d="m0 0h37.298v43.883h-37.298z"/></clipPath><path d="m81.047 133.955h-46.083a11.421 11.421 0 0 0 -9.892 5.712l-23.041 39.908a11.422 11.422 0 0 0 0 11.422l23.04 39.908a11.421 11.421 0 0 0 9.892 5.712h46.084a11.421 11.421 0 0 0 9.893-5.712l23.04-39.905a11.422 11.422 0 0 0 0-11.422l-23.04-39.908a11.421 11.421 0 0 0 -9.893-5.715z" fill="none" stroke="#fff" stroke-miterlimit="10" stroke-width="3" transform="translate(1.134 -132.455)"/><g clip-path="url(#a)" fill="#fff" transform="translate(40.49 30.89)"><path d="m40.857 9.412h-33.94l1.789 38.341a3.418 3.418 0 0 0 3.414 3.259h23.534a3.418 3.418 0 0 0 3.414-3.259z" transform="translate(-5.238 -7.128)"/><path d="m37.3 2.458h-37.3v-1.233a1.225 1.225 0 0 1 1.225-1.225h34.848a1.225 1.225 0 0 1 1.227 1.225z"/></g></svg>