<svg height="22.953" viewBox="0 0 211.133 22.953" width="211.133" xmlns="http://www.w3.org/2000/svg"><g fill="#00205c"><g stroke="#00205c" stroke-miterlimit="10" stroke-width="1.12"><path d="m15.127 24.515a7.25 7.25 0 0 1 -2.467 2.1 7.748 7.748 0 0 1 -3.667.8 8.9 8.9 0 0 1 -3.384-.623 7.858 7.858 0 0 1 -2.677-1.744 8.088 8.088 0 0 1 -1.755-2.672 8.9 8.9 0 0 1 -.618-3.41 8.858 8.858 0 0 1 .641-3.435 7.7 7.7 0 0 1 1.792-2.645 8.12 8.12 0 0 1 2.708-1.713 9.22 9.22 0 0 1 3.4-.613 8.953 8.953 0 0 1 1.655.162 8.246 8.246 0 0 1 1.608.471 6.747 6.747 0 0 1 1.4.786 5.045 5.045 0 0 1 1.09 1.074l-1.765 1.362a4.427 4.427 0 0 0 -1.666-1.352 5.239 5.239 0 0 0 -2.322-.523 6.04 6.04 0 0 0 -2.525.524 5.794 5.794 0 0 0 -1.912 1.393 6.286 6.286 0 0 0 -1.226 2.048 7.114 7.114 0 0 0 -.43 2.483 7.549 7.549 0 0 0 .4 2.509 6.119 6.119 0 0 0 1.2 2.053 5.532 5.532 0 0 0 1.943 1.383 6.029 6.029 0 0 0 2.5.524 5.563 5.563 0 0 0 2.473-.524 4.715 4.715 0 0 0 1.833-1.572z" transform="translate(.002 -5.023)"/><path d="m51.982 18.962a8.806 8.806 0 0 1 -.644 3.41 7.858 7.858 0 0 1 -4.474 4.416 9.021 9.021 0 0 1 -3.4.623 8.9 8.9 0 0 1 -3.384-.623 7.858 7.858 0 0 1 -4.453-4.416 8.906 8.906 0 0 1 -.627-3.41 8.953 8.953 0 0 1 .634-3.431 7.711 7.711 0 0 1 1.76-2.645 8.025 8.025 0 0 1 2.687-1.713 9.125 9.125 0 0 1 3.384-.613 9.23 9.23 0 0 1 3.4.613 8.072 8.072 0 0 1 2.7 1.713 7.811 7.811 0 0 1 1.776 2.651 8.858 8.858 0 0 1 .641 3.425zm-2.42 0a7.114 7.114 0 0 0 -.419-2.483 6.208 6.208 0 0 0 -1.236-2.022 5.794 5.794 0 0 0 -1.907-1.42 6.045 6.045 0 0 0 -2.53-.524 5.977 5.977 0 0 0 -2.5.524 5.647 5.647 0 0 0 -1.907 1.42 6.365 6.365 0 0 0 -1.21 2.048 7.114 7.114 0 0 0 -.43 2.483 7.245 7.245 0 0 0 .43 2.514 6.056 6.056 0 0 0 1.221 2.048 5.605 5.605 0 0 0 1.9 1.372 5.988 5.988 0 0 0 2.494.524 6.124 6.124 0 0 0 2.514-.524 5.558 5.558 0 0 0 1.928-1.372 6.056 6.056 0 0 0 1.236-2.074 7.25 7.25 0 0 0 .419-2.514z" transform="translate(-16.397 -5.022)"/><path d="m79.832 25.38h7.156v2.02h-9.4v-16.07h2.242z" transform="translate(-36.677 -5.39)"/><path d="m118.148 18.962a8.806 8.806 0 0 1 -.644 3.41 7.858 7.858 0 0 1 -4.474 4.416 9.021 9.021 0 0 1 -3.4.623 8.9 8.9 0 0 1 -3.384-.623 7.858 7.858 0 0 1 -4.453-4.416 8.906 8.906 0 0 1 -.634-3.41 8.953 8.953 0 0 1 .634-3.431 7.711 7.711 0 0 1 1.765-2.645 8.025 8.025 0 0 1 2.687-1.713 9.125 9.125 0 0 1 3.384-.613 9.23 9.23 0 0 1 3.4.613 8.073 8.073 0 0 1 2.714 1.713 7.81 7.81 0 0 1 1.776 2.651 8.858 8.858 0 0 1 .629 3.425zm-2.42 0a7.114 7.114 0 0 0 -.435-2.483 6.208 6.208 0 0 0 -1.221-2.022 5.794 5.794 0 0 0 -1.912-1.393 6.045 6.045 0 0 0 -2.53-.524 5.977 5.977 0 0 0 -2.5.524 5.7 5.7 0 0 0 -1.9 1.393 6.365 6.365 0 0 0 -1.21 2.048 7.114 7.114 0 0 0 -.43 2.483 7.245 7.245 0 0 0 .43 2.514 6.056 6.056 0 0 0 1.221 2.048 5.574 5.574 0 0 0 1.907 1.372 5.946 5.946 0 0 0 2.488.524 6.124 6.124 0 0 0 2.514-.524 5.558 5.558 0 0 0 1.928-1.372 6.056 6.056 0 0 0 1.221-2.048 7.25 7.25 0 0 0 .451-2.541z" transform="translate(-47.899 -5.022)"/><path d="m145.572 27.4h-2.242v-16.07h5.139a9.665 9.665 0 0 1 2.2.241 5.38 5.38 0 0 1 1.823.76 3.745 3.745 0 0 1 1.236 1.367 4.4 4.4 0 0 1 .451 2.1 3.861 3.861 0 0 1 -1.069 2.834 5.118 5.118 0 0 1 -2.81 1.378l4.474 7.386h-2.708l-4.081-7.135h-2.4zm0-9.015h2.583a7.643 7.643 0 0 0 1.472-.136 3.667 3.667 0 0 0 1.189-.44 2.2 2.2 0 0 0 1.1-2.006 2.205 2.205 0 0 0 -1.079-2.022 3.515 3.515 0 0 0 -1.142-.419 7.858 7.858 0 0 0 -1.383-.12h-2.74z" transform="translate(-67.979 -5.389)"/></g><path d="m228.02 13.525a3.95 3.95 0 0 0 -1.352-1.184 4.023 4.023 0 0 0 -1.97-.445 4.227 4.227 0 0 0 -1.2.183 3.4 3.4 0 0 0 -1.111.555 2.855 2.855 0 0 0 -.807.938 2.824 2.824 0 0 0 -.3 1.336 2.5 2.5 0 0 0 .293 1.273 2.8 2.8 0 0 0 .78.875 4.506 4.506 0 0 0 1.105.576c.414.152.849.3 1.3.456.561.178 1.121.377 1.687.587a6.287 6.287 0 0 1 1.524.828 3.8 3.8 0 0 1 1.535 3.274 4.427 4.427 0 0 1 -.456 2.1 4.38 4.38 0 0 1 -1.189 1.435 4.945 4.945 0 0 1 -1.676.838 6.684 6.684 0 0 1 -1.891.272 7.13 7.13 0 0 1 -1.446-.147 6.658 6.658 0 0 1 -1.383-.44 5.653 5.653 0 0 1 -1.226-.749 5.521 5.521 0 0 1 -1-1.048l1.4-1.048a4.274 4.274 0 0 0 1.462 1.451 4.358 4.358 0 0 0 3.452.382 3.5 3.5 0 0 0 1.147-.587 3.337 3.337 0 0 0 .838-.974 3.007 3.007 0 0 0 0-2.74 2.913 2.913 0 0 0 -.875-.932 5.438 5.438 0 0 0 -1.268-.65c-.466-.162-.959-.33-1.472-.5s-1.048-.356-1.572-.566a5.238 5.238 0 0 1 -1.383-.828 3.892 3.892 0 0 1 -.985-1.257 4.043 4.043 0 0 1 -.351-1.828 4.07 4.07 0 0 1 .461-2 4.3 4.3 0 0 1 1.215-1.383 5.113 5.113 0 0 1 1.661-.812 6.716 6.716 0 0 1 1.792-.251 6.134 6.134 0 0 1 2.787.581 4.8 4.8 0 0 1 1.744 1.367z" transform="translate(-104.123 -5.002)"/><path d="m260.394 24.405a6.722 6.722 0 0 1 -.985 1.158 6.4 6.4 0 0 1 -1.357.938 7.443 7.443 0 0 1 -1.676.655 7.8 7.8 0 0 1 -2.006.241 8.685 8.685 0 0 1 -3.353-.634 7.915 7.915 0 0 1 -2.651-1.755 8.015 8.015 0 0 1 -1.734-2.661 8.958 8.958 0 0 1 -.623-3.379 8.853 8.853 0 0 1 .634-3.374 8.025 8.025 0 0 1 4.406-4.421 8.659 8.659 0 0 1 3.337-.623 7.958 7.958 0 0 1 1.734.189 8.141 8.141 0 0 1 1.6.524 7.069 7.069 0 0 1 1.383.791 4.752 4.752 0 0 1 1.048 1.048l-1.362 1a4.124 4.124 0 0 0 -.733-.76 4.536 4.536 0 0 0 -.985-.676 6 6 0 0 0 -1.236-.477 5.505 5.505 0 0 0 -1.444-.189 6.637 6.637 0 0 0 -2.8.566 6.344 6.344 0 0 0 -2.1 1.524 6.736 6.736 0 0 0 -1.315 2.226 7.91 7.91 0 0 0 -.451 2.661 7.553 7.553 0 0 0 .466 2.666 6.81 6.81 0 0 0 1.346 2.237 6.233 6.233 0 0 0 2.1 1.524 6.564 6.564 0 0 0 2.771.571 6.286 6.286 0 0 0 2.619-.566 4.961 4.961 0 0 0 2.1-1.813z" transform="translate(-116.87 -5.018)"/><path d="m284.789 25.924h8.586v1.476h-10.215v-16.07h9.953v1.451h-8.324v5.506h7.774v1.451h-7.774z" transform="translate(-134.559 -5.39)"/><path d="m324.463 24.992h.047v-13.662h1.629v16.07h-2.039l-9.335-13.824h-.047v13.824h-1.628v-16.07h2.048z" transform="translate(-148.81 -5.39)"/><path d="m353.909 27.4h-1.629v-14.619h-5.37v-1.451h12.368v1.451h-5.369z" transform="translate(-164.914 -5.39)"/><path d="m384.12 13.525a3.882 3.882 0 0 0 -1.336-1.184 4.039 4.039 0 0 0 -1.97-.445 4.227 4.227 0 0 0 -1.2.183 3.4 3.4 0 0 0 -1.111.555 2.8 2.8 0 0 0 -.807.938 2.766 2.766 0 0 0 -.3 1.336 2.452 2.452 0 0 0 .293 1.273 2.8 2.8 0 0 0 .781.875 4.506 4.506 0 0 0 1.105.576c.414.152.849.3 1.3.456.561.178 1.116.377 1.682.587a6.218 6.218 0 0 1 1.514.822 4.06 4.06 0 0 1 1.105 1.289 4.142 4.142 0 0 1 .43 1.985 4.364 4.364 0 0 1 -.461 2.1 4.317 4.317 0 0 1 -1.189 1.435 4.872 4.872 0 0 1 -1.671.838 6.71 6.71 0 0 1 -1.891.272 7.218 7.218 0 0 1 -1.451-.147 6.863 6.863 0 0 1 -1.383-.44 5.761 5.761 0 0 1 -1.221-.749 5.364 5.364 0 0 1 -1-1.048l1.4-1.048a4.275 4.275 0 0 0 1.477 1.456 4.144 4.144 0 0 0 2.205.576 4.191 4.191 0 0 0 1.247-.194 3.5 3.5 0 0 0 1.147-.587 3.337 3.337 0 0 0 .838-.974 3.05 3.05 0 0 0 0-2.74 2.97 2.97 0 0 0 -.875-.932 5.438 5.438 0 0 0 -1.247-.623c-.466-.162-.959-.33-1.472-.5s-1.048-.356-1.572-.566a5.239 5.239 0 0 1 -1.383-.828 3.825 3.825 0 0 1 -.985-1.257 4.044 4.044 0 0 1 -.372-1.833 4.07 4.07 0 0 1 .461-2 4.28 4.28 0 0 1 1.21-1.383 5.192 5.192 0 0 1 1.666-.833 6.69 6.69 0 0 1 1.792-.251 6.134 6.134 0 0 1 2.787.581 4.8 4.8 0 0 1 1.744 1.367z" transform="translate(-178.451 -5.002)"/><path d="m396.839 12.236a1.415 1.415 0 0 1 .115-.576 1.5 1.5 0 0 1 .8-.765 1.514 1.514 0 0 1 1.158 0 1.48 1.48 0 0 1 .8 1.943 1.536 1.536 0 0 1 -.32.466 1.4 1.4 0 0 1 -.477.314 1.514 1.514 0 0 1 -1.158 0 1.4 1.4 0 0 1 -.477-.314 1.536 1.536 0 0 1 -.32-.466 1.415 1.415 0 0 1 -.115-.6zm.236 0a1.262 1.262 0 0 0 .094.487 1.314 1.314 0 0 0 .272.4 1.1 1.1 0 0 0 .4.272 1.257 1.257 0 0 0 .98 0 1.1 1.1 0 0 0 .4-.272 1.239 1.239 0 0 0 .272-1.372 1.273 1.273 0 0 0 -.272-.4 1.33 1.33 0 0 0 -.4-.267 1.257 1.257 0 0 0 -.98 0 1.33 1.33 0 0 0 -.4.267 1.229 1.229 0 0 0 -.367.891zm1.613.817-.361-.644h-.23v.644h-.4v-1.67h.723a.806.806 0 0 1 .225.026.524.524 0 0 1 .2.084.424.424 0 0 1 .147.157.524.524 0 0 1 .058.257.414.414 0 0 1 -.094.278.524.524 0 0 1 -.241.162l.445.707zm-.288-.932a.246.246 0 0 0 .168-.063.173.173 0 0 0 .073-.152.157.157 0 0 0 -.084-.152.335.335 0 0 0 -.157-.047h-.3v.414z" transform="translate(-188.687 -5.128)"/><path d="m178.22 6.329a.2.2 0 0 1 .194-.2l1.9-.084a4.144 4.144 0 0 0 3.955-3.95l.084-1.9a.2.2 0 1 1 .409 0l.084 1.9a4.138 4.138 0 0 0 3.95 3.955l1.9.084a.2.2 0 0 1 0 .409l-1.9.084a4.128 4.128 0 0 0 -3.95 3.95l-.084 1.9a.2.2 0 1 1 -.409 0l-.084-1.9a4.138 4.138 0 0 0 -3.955-3.95l-1.9-.084a.2.2 0 0 1 -.194-.21zm6.333-3.368a4.51 4.51 0 0 1 -1.21 2.158 4.51 4.51 0 0 1 -2.158 1.21 4.547 4.547 0 0 1 3.368 3.363 4.531 4.531 0 0 1 3.363-3.363 4.547 4.547 0 0 1 -3.363-3.368z" transform="translate(-84.592 .01)"/><path d="m200.759 27.866-.073 1.666-.073-1.666a3.824 3.824 0 0 0 -3.667-3.667l-1.666-.073 1.666-.073a3.824 3.824 0 0 0 3.667-3.667l.073-1.666.073 1.666a3.824 3.824 0 0 0 3.667 3.667l1.666.073-1.666.073a3.824 3.824 0 0 0 -3.667 3.667z" transform="translate(-92.715 -8.908)"/><path d="m195 24.037a.183.183 0 0 1 .173-.178l1.666-.073a3.667 3.667 0 0 0 2.415-1.048 3.609 3.609 0 0 0 1.048-2.415l.073-1.671a.183.183 0 0 1 .361 0l.073 1.671a3.667 3.667 0 0 0 3.478 3.478l1.671.073a.178.178 0 0 1 .168.178.173.173 0 0 1 -.168.178l-1.671.079a3.615 3.615 0 0 0 -2.415 1.048 3.667 3.667 0 0 0 -1.048 2.415l-.073 1.671a.183.183 0 0 1 -.361 0l-.073-1.671a3.635 3.635 0 0 0 -3.478-3.473l-1.666-.079a.178.178 0 0 1 -.173-.183zm5.574-2.96a4.013 4.013 0 0 1 -2.955 2.96 4.013 4.013 0 0 1 2.96 2.96 4.013 4.013 0 0 1 2.96-2.96 4.013 4.013 0 0 1 -2.96-2.96z" transform="translate(-92.582 -8.803)"/><path d="m178.965 27.458-.042.911-.042-.911a2.1 2.1 0 0 0 -2-2l-.881-.043.911-.042a2.1 2.1 0 0 0 2-2l.042-.917.042.917a2.1 2.1 0 0 0 1.97 1.985l.911.042-.911.037a2.1 2.1 0 0 0 -2 2.021z" transform="translate(-83.535 -10.689)"/><path d="m175.56 25.224a.2.2 0 0 1 .194-.2l.911-.042a1.875 1.875 0 0 0 1.8-1.8l.042-.911a.2.2 0 1 1 .409 0l.042.911a1.875 1.875 0 0 0 1.8 1.8l.911.042a.2.2 0 0 1 0 .409l-.911.037a1.881 1.881 0 0 0 -1.8 1.8l-.026.917a.2.2 0 0 1 -.409 0l-.058-.917a1.881 1.881 0 0 0 -1.8-1.8l-.911-.037a.2.2 0 0 1 -.194-.209zm3.143-1.273a2.321 2.321 0 0 1 -1.273 1.273 2.31 2.31 0 0 1 .765.524 2.347 2.347 0 0 1 .524.77 2.268 2.268 0 0 1 .524-.77 2.31 2.31 0 0 1 .765-.524 2.326 2.326 0 0 1 -.765-.524 2.248 2.248 0 0 1 -.529-.749z" transform="translate(-83.325 -10.499)"/></g></svg>