<svg height="145.865" viewBox="0 0 124.188 145.865" width="124.188" xmlns="http://www.w3.org/2000/svg" xmlns:xlink="http://www.w3.org/1999/xlink"><clipPath id="a"><path d="m0 0h124.188v145.865h-124.188z"/></clipPath><filter id="b" filterUnits="userSpaceOnUse" height="140.865" width="124.187" x="0" y="0"><feOffset dy="2"/><feGaussianBlur result="blur"/><feFlood flood-opacity=".161"/><feComposite in2="blur" operator="in"/><feComposite in="SourceGraphic"/></filter><g clip-path="url(#a)"><path d="m6.157 99.488v-57.888a7.022 7.022 0 0 1 3.512-6.082l50.131-28.939a7.024 7.024 0 0 1 7.023 0l50.13 28.943a7.022 7.022 0 0 1 3.512 6.082v57.884a7.024 7.024 0 0 1 -3.512 6.082l-50.13 28.942a7.024 7.024 0 0 1 -7.023 0l-50.131-28.941a7.024 7.024 0 0 1 -3.512-6.082" fill="#00194a" transform="translate(-1.216 -1.113)"/><g filter="url(#b)"><path d="m62.094 4.941a9.707 9.707 0 0 1 4.857 1.3l47.439 27.389a9.714 9.714 0 0 1 4.857 8.413v54.778a9.714 9.714 0 0 1 -4.857 8.413l-47.439 27.389a9.712 9.712 0 0 1 -9.714 0l-47.437-27.389a9.714 9.714 0 0 1 -4.857-8.413v-54.777a9.714 9.714 0 0 1 4.857-8.413l47.437-27.388a9.707 9.707 0 0 1 4.857-1.3m0-4.941a14.674 14.674 0 0 0 -7.328 1.964l-47.439 27.386a14.7 14.7 0 0 0 -7.327 12.692v54.777a14.694 14.694 0 0 0 7.327 12.692l47.439 27.387a14.659 14.659 0 0 0 14.656 0l47.439-27.389a14.694 14.694 0 0 0 7.327-12.692v-54.775a14.7 14.7 0 0 0 -7.327-12.692l-47.439-27.388a14.674 14.674 0 0 0 -7.328-1.964" fill="#00194a"/></g><g fill="#fff"><path d="m115.757 34.184-47.438-27.384a10.344 10.344 0 0 0 -10.311 0l-47.439 27.384a10.341 10.341 0 0 0 -5.156 8.93v54.777a10.34 10.34 0 0 0 5.156 8.929l47.439 27.389a10.328 10.328 0 0 0 10.311 0l47.438-27.389a10.336 10.336 0 0 0 5.156-8.929v-54.777a10.339 10.339 0 0 0 -5.156-8.93m-52.594-27.572a9.125 9.125 0 0 1 4.559 1.218l47.438 27.388a9.142 9.142 0 0 1 4.559 7.9v54.773a9.143 9.143 0 0 1 -4.559 7.9l-47.438 27.385a9.141 9.141 0 0 1 -9.117 0l-47.44-27.389a9.145 9.145 0 0 1 -4.558-7.9v-54.773a9.144 9.144 0 0 1 4.558-7.9l47.44-27.384a9.117 9.117 0 0 1 4.558-1.217" transform="translate(-1.069 -1.07)"/><path d="m59.792 31.463a.4.4 0 0 1 .386-.4l3.749-.166a8.188 8.188 0 0 0 7.818-7.818l.166-3.749a.4.4 0 0 1 .808 0l.166 3.749a8.188 8.188 0 0 0 7.815 7.815l3.749.166a.4.4 0 0 1 0 .807l-3.749.166a8.188 8.188 0 0 0 -7.818 7.818l-.162 3.749a.4.4 0 0 1 -.808 0l-.166-3.749a8.188 8.188 0 0 0 -7.818-7.818l-3.749-.166a.4.4 0 0 1 -.386-.4" transform="translate(-11.808 -3.74)"/><path d="m92.66 61.213-.146 3.3-.146-3.3a7.561 7.561 0 0 0 -7.219-7.219l-3.3-.146 3.3-.146a7.561 7.561 0 0 0 7.219-7.219l.146-3.3.146 3.3a7.561 7.561 0 0 0 7.219 7.217l3.3.146-3.3.146a7.56 7.56 0 0 0 -7.219 7.219" transform="translate(-16.163 -8.528)"/><path d="m81.407 53.76a.356.356 0 0 1 .34-.356l3.3-.146a7.206 7.206 0 0 0 6.879-6.879l.146-3.3a.356.356 0 0 1 .711 0l.146 3.3a7.206 7.206 0 0 0 6.879 6.879l3.3.146a.356.356 0 0 1 0 .711l-3.3.146a7.2 7.2 0 0 0 -6.879 6.879l-.146 3.3a.356.356 0 0 1 -.711 0l-.146-3.3a7.2 7.2 0 0 0 -6.879-6.879l-3.3-.146a.356.356 0 0 1 -.34-.356m11.019-5.859a7.922 7.922 0 0 1 -5.855 5.856 7.92 7.92 0 0 1 5.855 5.855 7.92 7.92 0 0 1 5.855-5.855 7.922 7.922 0 0 1 -5.855-5.856" transform="translate(-16.076 -8.44)"/><path d="m62.773 57.809-.08 1.806-.079-1.806a4.139 4.139 0 0 0 -3.951-3.951l-1.806-.08 1.806-.079a4.139 4.139 0 0 0 3.951-3.951l.079-1.806.08 1.806a4.139 4.139 0 0 0 3.951 3.952l1.806.079-1.806.08a4.138 4.138 0 0 0 -3.951 3.951" transform="translate(-11.228 -9.467)"/><path d="m56.354 53.678a.4.4 0 0 1 .386-.4l1.806-.079a3.715 3.715 0 0 0 3.564-3.569l.08-1.8a.4.4 0 0 1 .807 0l.08 1.806a3.715 3.715 0 0 0 3.566 3.564l1.806.079a.4.4 0 0 1 0 .808l-1.806.079a3.715 3.715 0 0 0 -3.565 3.565l-.078 1.802a.4.4 0 0 1 -.807 0l-.08-1.806a3.715 3.715 0 0 0 -3.565-3.565l-1.806-.079a.4.4 0 0 1 -.386-.4m6.24-2.516a4.552 4.552 0 0 1 -2.516 2.516 4.557 4.557 0 0 1 2.514 2.517 4.557 4.557 0 0 1 2.516-2.517 4.552 4.552 0 0 1 -2.516-2.516" transform="translate(-11.129 -9.368)"/><path d="m32.131 91.011a8.31 8.31 0 0 1 -2.854 2.42 8.884 8.884 0 0 1 -4.214.929 10.412 10.412 0 0 1 -3.915-.72 9.118 9.118 0 0 1 -3.089-2.015 9.279 9.279 0 0 1 -2.029-3.09 10.929 10.929 0 0 1 .013-7.906 8.986 8.986 0 0 1 2.068-3.062 9.393 9.393 0 0 1 3.128-1.976 10.673 10.673 0 0 1 3.928-.707 10.278 10.278 0 0 1 1.911.183 9.449 9.449 0 0 1 1.858.55 7.758 7.758 0 0 1 1.624.9 5.886 5.886 0 0 1 1.257 1.244l-2.043 1.571a5.1 5.1 0 0 0 -1.924-1.558 5.98 5.98 0 0 0 -2.683-.615 6.977 6.977 0 0 0 -2.919.588 6.6 6.6 0 0 0 -2.213 1.611 7.28 7.28 0 0 0 -1.414 2.369 8.219 8.219 0 0 0 -.5 2.866 8.671 8.671 0 0 0 .485 2.932 7.018 7.018 0 0 0 1.394 2.375 6.4 6.4 0 0 0 2.2 1.584 7.053 7.053 0 0 0 2.892.576 6.4 6.4 0 0 0 2.854-.628 5.5 5.5 0 0 0 2.117-1.832z" transform="translate(-3.021 -14.788)"/><path d="m24.979 94.615a10.794 10.794 0 0 1 -4.041-.745 9.5 9.5 0 0 1 -3.2-2.09 9.634 9.634 0 0 1 -2.1-3.2 11.267 11.267 0 0 1 .014-8.165 9.35 9.35 0 0 1 2.145-3.176 9.794 9.794 0 0 1 3.24-2.048 10.962 10.962 0 0 1 6.024-.541 9.785 9.785 0 0 1 1.926.571 7.987 7.987 0 0 1 1.694.942 6.273 6.273 0 0 1 1.329 1.314l.2.266-2.583 1.988-.2-.282a4.781 4.781 0 0 0 -1.81-1.449 5.651 5.651 0 0 0 -2.534-.58 6.662 6.662 0 0 0 -2.779.558 6.268 6.268 0 0 0 -2.104 1.522 6.992 6.992 0 0 0 -1.347 2.26 7.935 7.935 0 0 0 -.476 2.749 8.388 8.388 0 0 0 .464 2.819 6.739 6.739 0 0 0 1.32 2.256 6.121 6.121 0 0 0 2.084 1.5 6.755 6.755 0 0 0 2.755.551 6.093 6.093 0 0 0 2.705-.594 5.2 5.2 0 0 0 1.995-1.722l.192-.277 2.634 1.8-.208.282a8.7 8.7 0 0 1 -2.968 2.519 9.257 9.257 0 0 1 -4.373.969m.105-19.476a10.4 10.4 0 0 0 -3.8.683 9.075 9.075 0 0 0 -3.017 1.906 8.665 8.665 0 0 0 -1.989 2.946 10.6 10.6 0 0 0 -.013 7.65 8.992 8.992 0 0 0 1.953 2.979 8.818 8.818 0 0 0 2.975 1.94 10.108 10.108 0 0 0 3.788.7 8.6 8.6 0 0 0 4.057-.89 8.1 8.1 0 0 0 2.523-2.05l-1.5-1.027a5.8 5.8 0 0 1 -2.05 1.673 6.753 6.753 0 0 1 -3 .664 7.392 7.392 0 0 1 -3.03-.607 6.774 6.774 0 0 1 -2.314-1.667 7.409 7.409 0 0 1 -1.454-2.481 9.054 9.054 0 0 1 -.5-3.046 8.578 8.578 0 0 1 .518-2.983 7.618 7.618 0 0 1 1.48-2.477 6.954 6.954 0 0 1 2.324-1.693 7.331 7.331 0 0 1 3.059-.62 6.339 6.339 0 0 1 2.833.65 5.646 5.646 0 0 1 1.834 1.388l1.5-1.157a5.72 5.72 0 0 0 -.979-.911 7.367 7.367 0 0 0 -1.552-.862 9.059 9.059 0 0 0 -1.793-.531 9.967 9.967 0 0 0 -1.847-.177" transform="translate(-2.937 -14.703)"/><path d="m60.9 84.6a10.146 10.146 0 0 1 -.746 3.94 9.339 9.339 0 0 1 -2.054 3.09 9.239 9.239 0 0 1 -3.115 2.015 11.035 11.035 0 0 1 -7.841 0 9.079 9.079 0 0 1 -5.144-5.109 11.018 11.018 0 0 1 0-7.906 8.9 8.9 0 0 1 2.042-3.062 9.283 9.283 0 0 1 3.1-1.977 11.234 11.234 0 0 1 7.841 0 9.271 9.271 0 0 1 3.117 1.977 9.052 9.052 0 0 1 2.054 3.062 10.229 10.229 0 0 1 .746 3.97m-2.8 0a8.235 8.235 0 0 0 -.5-2.866 7.271 7.271 0 0 0 -1.414-2.369 6.6 6.6 0 0 0 -2.212-1.611 7.472 7.472 0 0 0 -5.812 0 6.46 6.46 0 0 0 -2.2 1.611 7.4 7.4 0 0 0 -1.4 2.369 8.2 8.2 0 0 0 -.5 2.866 8.384 8.384 0 0 0 .5 2.906 7.109 7.109 0 0 0 1.413 2.37 6.563 6.563 0 0 0 2.2 1.583 6.943 6.943 0 0 0 2.879.577 7.129 7.129 0 0 0 2.906-.577 6.486 6.486 0 0 0 2.225-1.583 7.111 7.111 0 0 0 1.415-2.376 8.422 8.422 0 0 0 .5-2.906" transform="translate(-8.148 -14.788)"/><path d="m50.97 94.618a10.8 10.8 0 0 1 -4.04-.745 9.641 9.641 0 0 1 -3.213-2.09 9.542 9.542 0 0 1 -2.118-3.2 11.363 11.363 0 0 1 0-8.163 9.266 9.266 0 0 1 2.12-3.176 9.657 9.657 0 0 1 3.213-2.049 11.573 11.573 0 0 1 8.088 0 9.633 9.633 0 0 1 3.228 2.049 9.429 9.429 0 0 1 2.132 3.176 11.169 11.169 0 0 1 0 8.165 9.7 9.7 0 0 1 -2.129 3.2 9.607 9.607 0 0 1 -3.228 2.09 10.9 10.9 0 0 1 -4.053.745m0-19.476a10.29 10.29 0 0 0 -3.789.682 8.959 8.959 0 0 0 -2.99 1.905 8.592 8.592 0 0 0 -1.965 2.947 10.7 10.7 0 0 0 0 7.649 8.869 8.869 0 0 0 1.967 2.973 8.967 8.967 0 0 0 2.99 1.941 10.1 10.1 0 0 0 3.787.7 10.212 10.212 0 0 0 3.8-.7 8.927 8.927 0 0 0 3-1.941 9.047 9.047 0 0 0 1.98-2.979 10.5 10.5 0 0 0 0-7.647 8.779 8.779 0 0 0 -1.977-2.948 8.971 8.971 0 0 0 -3-1.9 10.393 10.393 0 0 0 -3.8-.683m0 17.147a7.311 7.311 0 0 1 -3.019-.607 6.933 6.933 0 0 1 -2.31-1.664 7.476 7.476 0 0 1 -1.481-2.481 8.749 8.749 0 0 1 -.518-3.022 8.581 8.581 0 0 1 .518-2.984 7.783 7.783 0 0 1 1.464-2.475 6.842 6.842 0 0 1 2.314-1.694 7.807 7.807 0 0 1 6.092 0 6.967 6.967 0 0 1 2.323 1.693 7.667 7.667 0 0 1 1.481 2.477 8.612 8.612 0 0 1 .518 2.984 8.783 8.783 0 0 1 -.518 3.022 7.469 7.469 0 0 1 -1.482 2.481 6.836 6.836 0 0 1 -2.34 1.665 7.481 7.481 0 0 1 -3.041.606m0-14.869a6.591 6.591 0 0 0 -2.752.558 6.159 6.159 0 0 0 -2.09 1.52 7.112 7.112 0 0 0 -1.332 2.265 7.872 7.872 0 0 0 -.476 2.749 8.094 8.094 0 0 0 .476 2.786 6.812 6.812 0 0 0 1.347 2.259 6.239 6.239 0 0 0 2.087 1.5 6.653 6.653 0 0 0 2.741.547 6.806 6.806 0 0 0 2.768-.548 6.162 6.162 0 0 0 2.112-1.5 6.793 6.793 0 0 0 1.345-2.258 8.141 8.141 0 0 0 .476-2.79 7.955 7.955 0 0 0 -.476-2.749 6.961 6.961 0 0 0 -1.349-2.259 6.294 6.294 0 0 0 -2.1-1.529 6.661 6.661 0 0 0 -2.779-.558" transform="translate(-8.065 -14.705)"/><path d="m75.985 91.7h8.273v2.3h-10.864v-18.528h2.591z" transform="translate(-14.494 -14.904)"/><path d="m84.514 94.261h-11.542v-19.211h3.268v16.23h8.274zm-10.865-.677h10.187v-1.626h-8.273v-16.231h-1.914z" transform="translate(-14.41 -14.821)"/><path d="m110.806 84.6a10.146 10.146 0 0 1 -.746 3.94 9.338 9.338 0 0 1 -2.06 3.086 9.239 9.239 0 0 1 -3.115 2.015 11.035 11.035 0 0 1 -7.841 0 9.079 9.079 0 0 1 -5.144-5.1 11.017 11.017 0 0 1 0-7.906 8.9 8.9 0 0 1 2.042-3.062 9.282 9.282 0 0 1 3.1-1.977 11.234 11.234 0 0 1 7.841 0 9.271 9.271 0 0 1 3.117 1.972 9.052 9.052 0 0 1 2.054 3.062 10.229 10.229 0 0 1 .746 3.966m-2.8 0a8.235 8.235 0 0 0 -.5-2.866 7.271 7.271 0 0 0 -1.414-2.369 6.6 6.6 0 0 0 -2.212-1.611 7.472 7.472 0 0 0 -5.812 0 6.46 6.46 0 0 0 -2.2 1.611 7.4 7.4 0 0 0 -1.4 2.369 8.2 8.2 0 0 0 -.5 2.866 8.384 8.384 0 0 0 .5 2.906 7.109 7.109 0 0 0 1.413 2.37 6.563 6.563 0 0 0 2.2 1.583 6.943 6.943 0 0 0 2.879.577 7.13 7.13 0 0 0 2.906-.577 6.486 6.486 0 0 0 2.225-1.583 7.111 7.111 0 0 0 1.414-2.37 8.422 8.422 0 0 0 .501-2.902" transform="translate(-18.004 -14.788)"/><path d="m100.878 94.618a10.806 10.806 0 0 1 -4.04-.745 9.428 9.428 0 0 1 -5.331-5.291 11.361 11.361 0 0 1 0-8.162 9.3 9.3 0 0 1 2.12-3.177 9.658 9.658 0 0 1 3.213-2.049 11.576 11.576 0 0 1 8.089 0 9.645 9.645 0 0 1 3.227 2.049 9.435 9.435 0 0 1 2.132 3.176 11.18 11.18 0 0 1 0 8.165 9.7 9.7 0 0 1 -2.13 3.2 9.6 9.6 0 0 1 -3.227 2.09 10.9 10.9 0 0 1 -4.054.745m0-19.476a10.3 10.3 0 0 0 -3.789.682 8.985 8.985 0 0 0 -2.99 1.905 8.626 8.626 0 0 0 -1.965 2.947 10.7 10.7 0 0 0 0 7.65 8.732 8.732 0 0 0 4.957 4.918 10.113 10.113 0 0 0 3.787.7 10.221 10.221 0 0 0 3.8-.7 8.935 8.935 0 0 0 3-1.941 9.055 9.055 0 0 0 1.981-2.979 10.526 10.526 0 0 0 0-7.647 8.767 8.767 0 0 0 -1.979-2.948 8.95 8.95 0 0 0 -3-1.9 10.394 10.394 0 0 0 -3.8-.683m0 17.147a7.306 7.306 0 0 1 -3.017-.607 6.948 6.948 0 0 1 -2.312-1.664 7.5 7.5 0 0 1 -1.479-2.481 8.731 8.731 0 0 1 -.518-3.022 8.563 8.563 0 0 1 .518-2.984 7.778 7.778 0 0 1 1.464-2.475 6.828 6.828 0 0 1 2.312-1.694 7.807 7.807 0 0 1 6.092 0 6.954 6.954 0 0 1 2.324 1.693 7.659 7.659 0 0 1 1.48 2.477 8.612 8.612 0 0 1 .518 2.984 8.783 8.783 0 0 1 -.518 3.022 7.49 7.49 0 0 1 -1.481 2.481 6.851 6.851 0 0 1 -2.34 1.665 7.486 7.486 0 0 1 -3.042.606m0-14.869a6.6 6.6 0 0 0 -2.752.558 6.178 6.178 0 0 0 -2.087 1.516 7.089 7.089 0 0 0 -1.341 2.265 7.89 7.89 0 0 0 -.476 2.749 8.094 8.094 0 0 0 .476 2.786 6.8 6.8 0 0 0 1.346 2.259 6.283 6.283 0 0 0 2.087 1.5 6.649 6.649 0 0 0 2.741.547 6.808 6.808 0 0 0 2.77-.548 6.167 6.167 0 0 0 2.111-1.5 6.82 6.82 0 0 0 1.347-2.259 8.141 8.141 0 0 0 .476-2.79 7.955 7.955 0 0 0 -.476-2.749 6.957 6.957 0 0 0 -1.347-2.259 6.27 6.27 0 0 0 -2.1-1.529 6.656 6.656 0 0 0 -2.779-.558" transform="translate(-17.921 -14.705)"/><path d="m125.568 94.006h-2.591v-18.534h5.943a11.4 11.4 0 0 1 2.539.274 6.314 6.314 0 0 1 2.108.877 4.323 4.323 0 0 1 1.426 1.584 5.042 5.042 0 0 1 .523 2.4 4.459 4.459 0 0 1 -1.256 3.3 5.85 5.85 0 0 1 -3.247 1.6l5.184 8.508h-3.14l-4.712-8.247h-2.776zm0-10.419h2.985a8.7 8.7 0 0 0 1.7-.156 4.288 4.288 0 0 0 1.375-.511 2.842 2.842 0 0 0 .929-3.717 2.627 2.627 0 0 0 -.9-.9 3.955 3.955 0 0 0 -1.322-.484 8.541 8.541 0 0 0 -1.6-.144h-3.168z" transform="translate(-24.285 -14.904)"/><path d="m136.715 94.261h-3.94l-4.712-8.246h-2.24v8.246h-3.269v-19.211h6.282a11.839 11.839 0 0 1 2.614.282 6.666 6.666 0 0 1 2.221.926 4.671 4.671 0 0 1 1.536 1.706 5.384 5.384 0 0 1 .564 2.555 4.8 4.8 0 0 1 -1.357 3.537 6.043 6.043 0 0 1 -2.945 1.594zm-3.546-.677h2.342l-5.129-8.418.49-.083a5.54 5.54 0 0 0 3.065-1.5 4.1 4.1 0 0 0 1.156-3.058 4.723 4.723 0 0 0 -.483-2.237 3.993 3.993 0 0 0 -1.315-1.462 6.007 6.007 0 0 0 -2-.828 11.1 11.1 0 0 0 -2.463-.266h-5.6v17.851h1.915v-8.245h3.31zm-4.7-9.741h-3.323v-6.594h3.506a8.932 8.932 0 0 1 1.661.15 4.328 4.328 0 0 1 1.432.527 2.964 2.964 0 0 1 1.018 1.018 3.028 3.028 0 0 1 -1.046 4.182 4.619 4.619 0 0 1 -1.482.553 9.037 9.037 0 0 1 -1.766.163m-2.646-.677h2.646a8.316 8.316 0 0 0 1.634-.15 3.933 3.933 0 0 0 1.267-.469 2.3 2.3 0 0 0 .814-.8 2.715 2.715 0 0 0 0-2.45 2.287 2.287 0 0 0 -.788-.788 3.629 3.629 0 0 0 -1.209-.442 8.261 8.261 0 0 0 -1.534-.138h-2.829z" transform="translate(-24.202 -14.821)"/><path d="m24.788 107.919a4.246 4.246 0 0 0 -1.447-1.263 4.434 4.434 0 0 0 -2.133-.478 4.593 4.593 0 0 0 -1.3.2 3.809 3.809 0 0 0 -1.2.6 3.093 3.093 0 0 0 -.87 1.018 3.006 3.006 0 0 0 -.331 1.446 2.686 2.686 0 0 0 .317 1.374 3.036 3.036 0 0 0 .844.919 4.856 4.856 0 0 0 1.2.625c.447.165.916.327 1.405.491q.905.294 1.823.637a6.575 6.575 0 0 1 1.65.895 4.342 4.342 0 0 1 1.2 1.4 4.424 4.424 0 0 1 .465 2.146 4.765 4.765 0 0 1 -.5 2.244 4.71 4.71 0 0 1 -1.287 1.557 5.34 5.34 0 0 1 -1.81.907 7.322 7.322 0 0 1 -2.048.295 7.89 7.89 0 0 1 -1.569-.159 7.152 7.152 0 0 1 -1.5-.478 6.1 6.1 0 0 1 -1.324-.81 5.892 5.892 0 0 1 -1.079-1.128l1.521-1.128a4.643 4.643 0 0 0 1.582 1.557 4.472 4.472 0 0 0 2.391.626 4.633 4.633 0 0 0 1.349-.209 3.8 3.8 0 0 0 1.239-.637 3.527 3.527 0 0 0 .906-1.055 3.267 3.267 0 0 0 0-2.968 3.177 3.177 0 0 0 -.944-1.006 5.785 5.785 0 0 0 -1.348-.674c-.506-.179-1.039-.36-1.595-.539q-.858-.27-1.693-.613a5.745 5.745 0 0 1 -1.5-.9 4.17 4.17 0 0 1 -1.067-1.361 4.974 4.974 0 0 1 .1-4.143 4.541 4.541 0 0 1 1.311-1.5 5.51 5.51 0 0 1 1.791-.859 7.278 7.278 0 0 1 1.936-.27 6.68 6.68 0 0 1 3.017.625 5.184 5.184 0 0 1 1.888 1.484z" transform="translate(-3.021 -20.672)"/><path d="m49.789 119.665a7.212 7.212 0 0 1 -1.067 1.251 6.938 6.938 0 0 1 -1.447 1.039 8.051 8.051 0 0 1 -1.815.709 8.511 8.511 0 0 1 -2.17.261 9.446 9.446 0 0 1 -3.63-.685 8.485 8.485 0 0 1 -4.745-4.782 9.666 9.666 0 0 1 -.674-3.654 9.5 9.5 0 0 1 .686-3.655 8.612 8.612 0 0 1 4.769-4.781 9.28 9.28 0 0 1 3.593-.687 8.933 8.933 0 0 1 3.6.759 7.306 7.306 0 0 1 1.471.868 5.091 5.091 0 0 1 1.1 1.144l-1.46 1.08a4.333 4.333 0 0 0 -.724-.833 4.916 4.916 0 0 0 -1.067-.737 6.755 6.755 0 0 0 -1.336-.515 5.969 5.969 0 0 0 -1.557-.2 7.194 7.194 0 0 0 -3.029.612 6.8 6.8 0 0 0 -2.269 1.65 7.192 7.192 0 0 0 -1.418 2.411 8.474 8.474 0 0 0 -.49 2.884 8.3 8.3 0 0 0 .5 2.884 7.325 7.325 0 0 0 1.434 2.407 6.8 6.8 0 0 0 2.269 1.651 7.133 7.133 0 0 0 3 .612 6.807 6.807 0 0 0 2.845-.613 5.408 5.408 0 0 0 2.256-1.962z" transform="translate(-6.762 -20.672)"/><path d="m62.226 121.024h9.294v1.57h-11.06v-17.363h10.766v1.57h-9v5.96h8.411v1.569h-8.411z" transform="translate(-11.939 -20.781)"/><path d="m93.915 120.019h.05v-14.787h1.765v17.362h-2.208l-10.1-14.934h-.05v14.934h-1.772v-17.362h2.208z" transform="translate(-16.115 -20.781)"/><path d="m113.078 122.594h-1.766v-15.794h-5.812v-1.569h13.39v1.569h-5.813z" transform="translate(-20.834 -20.781)"/><path d="m135.1 107.919a4.245 4.245 0 0 0 -1.447-1.263 4.434 4.434 0 0 0 -2.133-.478 4.593 4.593 0 0 0 -1.3.2 3.809 3.809 0 0 0 -1.2.6 3.093 3.093 0 0 0 -.87 1.018 3.006 3.006 0 0 0 -.331 1.446 2.686 2.686 0 0 0 .317 1.374 3.036 3.036 0 0 0 .844.919 4.855 4.855 0 0 0 1.2.625c.447.165.916.327 1.405.491q.905.294 1.823.637a6.575 6.575 0 0 1 1.65.895 4.342 4.342 0 0 1 1.2 1.4 4.424 4.424 0 0 1 .465 2.146 4.765 4.765 0 0 1 -.5 2.244 4.71 4.71 0 0 1 -1.287 1.557 5.34 5.34 0 0 1 -1.81.907 7.322 7.322 0 0 1 -2.048.295 7.89 7.89 0 0 1 -1.569-.159 7.153 7.153 0 0 1 -1.5-.478 6.1 6.1 0 0 1 -1.324-.81 5.893 5.893 0 0 1 -1.079-1.128l1.521-1.128a4.643 4.643 0 0 0 1.582 1.557 4.472 4.472 0 0 0 2.391.626 4.633 4.633 0 0 0 1.349-.209 3.8 3.8 0 0 0 1.239-.637 3.527 3.527 0 0 0 .906-1.055 3.267 3.267 0 0 0 0-2.968 3.177 3.177 0 0 0 -.944-1.006 5.785 5.785 0 0 0 -1.348-.674c-.506-.179-1.039-.36-1.595-.539q-.858-.27-1.693-.613a5.745 5.745 0 0 1 -1.5-.9 4.17 4.17 0 0 1 -1.067-1.361 4.974 4.974 0 0 1 .1-4.143 4.541 4.541 0 0 1 1.311-1.5 5.51 5.51 0 0 1 1.791-.859 7.278 7.278 0 0 1 1.936-.27 6.68 6.68 0 0 1 3.017.625 5.183 5.183 0 0 1 1.888 1.484z" transform="translate(-24.804 -20.672)"/></g><path d="m147.44 136.875a2.053 2.053 0 0 1 .168-.827 2.11 2.11 0 0 1 .459-.674 2.2 2.2 0 0 1 .677-.453 2.117 2.117 0 0 1 1.656 0 2.2 2.2 0 0 1 .678.453 2.124 2.124 0 0 1 .459.674 2.067 2.067 0 0 1 .169.827 2.04 2.04 0 0 1 -.169.823 2.143 2.143 0 0 1 -3.929 0 2.026 2.026 0 0 1 -.168-.823m.336 0a1.735 1.735 0 0 0 .14.693 1.84 1.84 0 0 0 .384.575 1.787 1.787 0 0 0 2.544 0 1.853 1.853 0 0 0 .384-.575 1.749 1.749 0 0 0 .14-.693 1.769 1.769 0 0 0 -.14-.7 1.787 1.787 0 0 0 -.954-.954 1.822 1.822 0 0 0 -1.4 0 1.788 1.788 0 0 0 -.954.954 1.755 1.755 0 0 0 -.14.7m.964-1.206h.842a1.425 1.425 0 0 1 .327.037.862.862 0 0 1 .286.122.638.638 0 0 1 .2.215.652.652 0 0 1 .075.327.607.607 0 0 1 -.149.425.753.753 0 0 1 -.4.22l.645 1.047h-.523l-.562-1h-.308v1h-.43zm.776 1.047a.921.921 0 0 0 .356-.07.278.278 0 0 0 .169-.286.255.255 0 0 0 -.155-.262.822.822 0 0 0 -.323-.066h-.392v.683z" fill="#00194a" transform="translate(-29.116 -26.61)"/></g></svg>