<svg enable-background="new 0 0 402.5 43.3" viewBox="0 0 402.5 43.3" xmlns="http://www.w3.org/2000/svg"><path d="m125.4 18.3c-.9-1.1-2.1-1.9-3.5-2.5s-2.9-.9-4.6-.9-3.2.3-4.6.9c-1.3.6-2.5 1.5-3.4 2.5-.9 1.1-1.7 2.3-2.2 3.7s-.8 2.9-.8 4.5.3 3.2.8 4.6 1.3 2.7 2.2 3.7 2.1 1.9 3.4 2.5 2.9.9 4.5.9c1.7 0 3.2-.3 4.6-.9s2.5-1.4 3.5-2.5 1.7-2.3 2.2-3.7.8-3 .8-4.6-.3-3.1-.8-4.5c-.4-1.3-1.2-2.6-2.1-3.7z" fill="none"/><path d="m59.2 18.3c-.9-1.1-2.1-1.9-3.5-2.5s-2.9-.9-4.6-.9-3.2.3-4.5.9-2.5 1.5-3.5 2.5c-.9 1.1-1.7 2.3-2.2 3.7s-.8 2.9-.8 4.5.3 3.2.8 4.6 1.3 2.7 2.2 3.7c1 1 2.1 1.9 3.5 2.5 1.3.6 2.9.9 4.5.9s3.2-.3 4.6-.9 2.5-1.4 3.5-2.5 1.7-2.3 2.2-3.7.8-3 .8-4.6-.3-3.1-.8-4.5c-.5-1.3-1.2-2.6-2.2-3.7z" fill="none"/><path d="m155.2 23.9c.8-.2 1.5-.4 2.1-.8.6-.3 1-.8 1.3-1.3s.5-1.2.5-2-.2-1.5-.5-2-.8-1-1.3-1.3c-.6-.3-1.2-.6-2-.7-.8-.2-1.6-.2-2.5-.2h-4.7v8.7h4.4c1-.1 1.9-.2 2.7-.4z" fill="none"/><g fill="#00205c"><path d="m24.5 34.6c-.9 1.2-2 2.2-3.3 2.8-1.3.7-2.8 1-4.5 1s-3.2-.3-4.6-.9-2.4-1.5-3.4-2.5c-.9-1-1.7-2.3-2.2-3.7s-.8-3-.8-4.7.3-3.1.8-4.5 1.3-2.7 2.2-3.7c1-1.1 2.1-1.9 3.5-2.5s2.9-.9 4.6-.9c1.5 0 2.9.3 4.2 1 1.3.6 2.3 1.4 3 2.4l.3.5 4.3-3.3-.3-.6c-.6-.8-1.3-1.5-2.2-2.2-.8-.6-1.8-1.1-2.8-1.6-1-.4-2.1-.7-3.2-.9-3.6-.7-7-.3-10 .9-2 .8-3.9 1.9-5.4 3.4s-2.7 3.2-3.5 5.2c-.9 2-1.3 4.3-1.3 6.8s.4 4.7 1.2 6.7 2 3.8 3.5 5.3 3.2 2.6 5.3 3.4c2 .8 4.3 1.2 6.7 1.2 2.8 0 5.2-.5 7.2-1.6s3.7-2.5 4.9-4.2l.3-.5-4.3-3z"/><path d="m63.2 14.6c-1.5-1.5-3.3-2.6-5.3-3.4s-4.3-1.2-6.7-1.2-4.6.4-6.7 1.2-3.8 1.9-5.3 3.4-2.7 3.2-3.5 5.2-1.2 4.3-1.2 6.8.4 4.7 1.2 6.7 2 3.8 3.5 5.3 3.3 2.6 5.3 3.4 4.3 1.2 6.7 1.2 4.7-.4 6.7-1.2c2.1-.8 3.8-2 5.3-3.5s2.7-3.2 3.5-5.3c.8-2 1.3-4.3 1.3-6.7s-.4-4.7-1.3-6.8c-.8-1.9-2-3.7-3.5-5.1zm-1 12c0 1.6-.3 3.2-.8 4.6s-1.3 2.7-2.2 3.7c-.9 1.1-2.1 1.9-3.5 2.5s-2.9.9-4.6.9-3.1-.3-4.5-.9c-1.3-.6-2.5-1.4-3.5-2.5-1-1-1.7-2.3-2.2-3.7s-.8-3-.8-4.6.3-3.1.8-4.5 1.3-2.7 2.2-3.7c.9-1.1 2.1-1.9 3.5-2.5 1.3-.6 2.9-.9 4.5-.9s3.2.3 4.6.9c1.3.6 2.5 1.5 3.5 2.5 1 1.1 1.7 2.3 2.2 3.7.6 1.4.8 2.9.8 4.5z"/><path d="m82.4 10.8h-5.4v31.7h19.1v-4.9h-13.7z"/><path d="m129.4 14.6c-1.5-1.5-3.3-2.6-5.3-3.4-2.1-.8-4.3-1.2-6.7-1.2s-4.6.4-6.7 1.2-3.8 1.9-5.3 3.4c-1.5 1.4-2.7 3.2-3.5 5.2s-1.2 4.3-1.2 6.8.4 4.7 1.2 6.7 2 3.8 3.5 5.3 3.3 2.6 5.3 3.4 4.3 1.2 6.7 1.2 4.6-.4 6.7-1.2 3.8-2 5.3-3.5 2.7-3.2 3.5-5.3c.9-2 1.3-4.3 1.3-6.7s-.4-4.7-1.3-6.8c-.9-1.9-2.1-3.7-3.5-5.1zm-1 12c0 1.6-.3 3.2-.8 4.6s-1.3 2.7-2.2 3.7c-.9 1.1-2.1 1.9-3.5 2.5s-2.9.9-4.6.9-3.2-.3-4.5-.9-2.5-1.4-3.4-2.5c-.9-1-1.7-2.3-2.2-3.7s-.8-3-.8-4.6.3-3.1.8-4.5 1.3-2.7 2.2-3.7c.9-1.1 2.1-1.9 3.4-2.5s2.9-.9 4.6-.9 3.2.3 4.6.9 2.5 1.5 3.5 2.5 1.7 2.3 2.2 3.7c.4 1.4.7 2.9.7 4.5z"/><path d="m157.5 28.3c1.9-.5 3.6-1.3 4.9-2.6 1.5-1.5 2.2-3.5 2.2-5.8 0-1.7-.3-3.1-.9-4.2s-1.5-2.1-2.5-2.8-2.3-1.2-3.7-1.5-2.8-.5-4.3-.5h-10.4v31.7h5.4v-13.7h3.7l7.8 13.6h6.5zm-9.3-12.8h4.7c.9 0 1.7.1 2.5.2s1.4.4 2 .7c.5.3 1 .8 1.3 1.3s.5 1.2.5 2-.2 1.5-.5 2-.8 1-1.3 1.3c-.6.3-1.3.6-2.1.8s-1.7.2-2.7.2h-4.4z"/><path d="m236 16.3c-.7-.9-1.5-1.7-2.6-2.2-1-.6-2.3-.8-3.8-.8-.8 0-1.5.1-2.3.3s-1.5.6-2.1 1.1-1.1 1.1-1.5 1.8-.6 1.6-.6 2.5.2 1.8.6 2.4.9 1.2 1.5 1.6c.6.5 1.3.8 2.1 1.1s1.6.6 2.5.9c1.1.3 2.1.7 3.2 1.1s2.1.9 2.9 1.6 1.6 1.5 2.1 2.5c.6 1 .8 2.3.8 3.8s-.3 2.8-.9 4c-.6 1.1-1.3 2-2.3 2.8-.9.7-2 1.2-3.2 1.6-1.2.3-2.4.5-3.6.5-.9 0-1.9-.1-2.8-.3s-1.8-.5-2.6-.8c-.8-.4-1.6-.8-2.3-1.4s-1.4-1.2-1.9-2l2.7-2c.7 1.1 1.6 2 2.8 2.8 1.2.7 2.6 1.1 4.2 1.1.8 0 1.6-.1 2.4-.4.8-.2 1.5-.6 2.2-1.1.6-.5 1.2-1.1 1.6-1.9.4-.7.6-1.6.6-2.6 0-1.1-.2-2-.6-2.7s-1-1.3-1.7-1.8-1.5-.9-2.4-1.2-1.8-.6-2.8-1c-1-.3-2-.7-3-1.1s-1.9-.9-2.6-1.6-1.4-1.5-1.9-2.4c-.5-1-.7-2.1-.7-3.5 0-1.5.3-2.7.9-3.8s1.4-2 2.3-2.6 2-1.2 3.2-1.5c1.1-.3 2.3-.5 3.4-.5 2.1 0 3.9.4 5.3 1.1 1.5.7 2.6 1.6 3.3 2.6z"/><path d="m273.5 37c-.5.8-1.1 1.5-1.9 2.2-.7.7-1.6 1.3-2.5 1.8-1 .5-2 .9-3.2 1.2s-2.4.5-3.8.5c-2.3 0-4.4-.4-6.4-1.2s-3.6-1.9-5.1-3.3-2.5-3.1-3.3-5.1-1.2-4.1-1.2-6.4.4-4.5 1.2-6.4 1.9-3.7 3.4-5.1 3.1-2.5 5.1-3.3 4.1-1.2 6.3-1.2c1.1 0 2.2.1 3.3.3s2.1.6 3 1c1 .4 1.8.9 2.6 1.5s1.4 1.3 2 2l-2.6 1.9c-.3-.5-.7-1-1.3-1.5s-1.2-.9-1.9-1.3-1.5-.7-2.4-.9-1.8-.3-2.8-.3c-2 0-3.8.4-5.3 1.1s-2.9 1.7-4 2.9-1.9 2.6-2.5 4.2-.9 3.3-.9 5.1.3 3.5.9 5.1 1.4 3 2.5 4.2 2.4 2.2 4 2.9 3.3 1.1 5.3 1.1c1.8 0 3.4-.4 5-1.1s2.9-1.9 4-3.5z"/><path d="m286.3 39.2h16.4v2.8h-19.5v-30.7h19v2.8h-15.9v10.5h14.8v2.8h-14.8z"/><path d="m334.8 37.4.1-26.1h3.1v30.7h-3.9l-17.8-26.3h-.1v26.3h-3.1v-30.7h3.9s17.8 26.1 17.8 26.1z"/><path d="m360.3 42h-3.1v-27.9h-10.2v-2.8h23.6v2.8h-10.2v27.9z"/><path d="m392.1 16.3c-.7-.9-1.5-1.7-2.5-2.2-1-.6-2.3-.8-3.8-.8-.8 0-1.5.1-2.3.3s-1.5.6-2.1 1.1-1.1 1.1-1.5 1.8-.6 1.6-.6 2.5.2 1.8.6 2.4.9 1.2 1.5 1.6 1.3.8 2.1 1.1 1.6.6 2.5.9c1.1.3 2.1.7 3.2 1.1s2 .9 2.9 1.6 1.6 1.5 2.1 2.5.8 2.3.8 3.8-.3 2.8-.9 4c-.6 1.1-1.3 2-2.3 2.8-.9.7-2 1.2-3.2 1.6-1.2.3-2.4.5-3.6.5-.9 0-1.9-.1-2.8-.3s-1.8-.5-2.6-.8c-.8-.4-1.6-.8-2.3-1.4s-1.4-1.2-1.9-2l2.7-2c.7 1.1 1.6 2 2.8 2.8 1.2.7 2.6 1.1 4.2 1.1.8 0 1.6-.1 2.4-.4.8-.2 1.5-.6 2.2-1.1.6-.5 1.2-1.1 1.6-1.9.4-.7.6-1.6.6-2.6 0-1.1-.2-2-.6-2.7s-1-1.3-1.7-1.8-1.5-.9-2.4-1.2-1.8-.6-2.8-1c-1-.3-2-.7-3-1.1s-1.9-.9-2.6-1.6c-.8-.7-1.4-1.5-1.9-2.4s-.7-2.1-.7-3.5c0-1.5.3-2.7.9-3.8s1.4-2 2.3-2.6 2-1.2 3.2-1.5c1.1-.3 2.3-.5 3.4-.5 2.1 0 3.9.4 5.3 1.1 1.5.7 2.6 1.6 3.3 2.6z"/><path d="m396.8 13.6c0-.4.1-.8.2-1.1s.4-.6.6-.9.6-.5.9-.6.7-.2 1.1-.2.8.1 1.1.2.6.3.9.6.5.5.6.9c.1.3.2.7.2 1.1s-.1.8-.2 1.1-.4.6-.6.9-.6.5-.9.6c-.4.2-.7.2-1.1.2s-.8-.1-1.1-.2c-.4-.2-.6-.3-.9-.6s-.5-.5-.6-.9-.2-.7-.2-1.1zm.5 0c0 .3.1.6.2.9s.3.5.5.8.5.4.8.5.6.2.9.2.6-.1.9-.2.5-.3.8-.5.4-.5.5-.8.2-.6.2-.9-.1-.6-.2-.9-.3-.5-.5-.8c-.2-.2-.5-.4-.8-.5s-.6-.2-.9-.2-.6.1-.9.2-.5.3-.8.5-.4.5-.5.8c-.1.2-.2.5-.2.9zm3.1 1.5-.7-1.2h-.5v1.2h-.8v-3.2h1.4.4s.3.1.4.2.2.2.3.3.1.3.1.5-.1.4-.2.5-.3.2-.5.3l.9 1.3h-.8zm-.6-1.8c.1 0 .2 0 .3-.1s.1-.2.1-.3 0-.2-.2-.3c-.1-.1-.2-.1-.3-.1h-.6v.8z"/><path d="m178.2 12.1c0-.2.2-.4.4-.4l3.6-.2c2-.1 3.8-.9 5.2-2.3s2.2-3.3 2.3-5.2l.2-3.6c0-.2.2-.4.4-.4s.4.2.4.4l.2 3.6c.1 2 .9 3.8 2.3 5.2s3.3 2.2 5.2 2.3l3.6.2c.2 0 .4.2.4.4s-.2.4-.4.4l-3.6.2c-2 .1-3.8.9-5.2 2.3s-2.2 3.3-2.3 5.2l-.2 3.6c0 .2-.2.4-.4.4s-.4-.2-.4-.4l-.2-3.6c-.1-2-.9-3.8-2.3-5.2s-3.3-2.2-5.2-2.3l-3.6-.2c-.2 0-.4-.2-.4-.4zm12.1-6.4c-.4 1.5-1.2 3-2.3 4.1s-2.6 1.9-4.1 2.3c1.6.4 3 1.2 4.1 2.3s1.9 2.6 2.3 4.1c.4-1.5 1.2-3 2.3-4.1s2.6-1.9 4.1-2.3c-1.6-.4-3-1.2-4.1-2.3s-1.9-2.6-2.3-4.1z"/><path d="m215.9 28.7-3.2-.1c-1.7-.1-3.4-.8-4.6-2s-1.9-2.9-2-4.6l-.1-3.2c0-.2-.2-.3-.3-.3s-.3.1-.3.3l-.1 3.2c-.1 1.7-.8 3.4-2 4.6s-2.9 2-4.6 2l-3.2.1c-.2 0-.3.2-.3.3s.1.3.3.3l3.2.1c1.7.1 3.4.8 4.6 2s1.9 2.9 2 4.6l.1 3.2c0 .2.2.3.3.3s.3-.1.3-.3l.1-3.2c.1-1.7.8-3.4 2-4.6s2.9-2 4.6-2l3.2-.1c.2 0 .3-.2.3-.3s-.1-.3-.3-.3z"/><path d="m187.2 27.7-1.7-.1c-1.9-.1-3.4-1.6-3.4-3.4l-.1-1.7c0-.2-.2-.4-.4-.4s-.4.2-.4.4l-.1 1.7c-.1 1.9-1.6 3.4-3.4 3.4l-1.7.1c-.2 0-.4.2-.4.4s.2.4.4.4l1.7.1c1.9.1 3.4 1.6 3.4 3.4l.1 1.7c0 .2.2.4.4.4s.4-.2.4-.4v-1.7c.1-1.9 1.6-3.4 3.4-3.4l1.7-.1c.2 0 .4-.2.4-.4s-.1-.4-.3-.4z"/></g></svg>