<svg enable-background="new 0 0 154.7 173.1" viewBox="0 0 154.7 173.1" xmlns="http://www.w3.org/2000/svg"><path d="m83.1 8.4c-1.7-1-3.7-1.5-5.7-1.5s-4 .5-5.7 1.5l-59.1 34.2c-3.5 2-5.7 5.8-5.7 9.8v68.3c0 4 2.2 7.8 5.7 9.8l59.1 34.1c3.5 2 7.9 2 11.4 0l59.1-34.1c3.5-2 5.7-5.8 5.7-9.8v-68.3c0-4.1-2.2-7.8-5.7-9.8z" fill="#00205c"/><path d="m145.6 36.6-59.1-34.1c-2.8-1.6-5.9-2.5-9.1-2.5s-6.4.9-9.1 2.5l-59.2 34.1c-5.6 3.2-9.1 9.3-9.1 15.8v68.3c0 6.5 3.5 12.6 9.1 15.8l59.1 34.1c2.8 1.6 5.9 2.4 9.1 2.4s6.4-.9 9.1-2.4l59.1-34.1c5.6-3.2 9.1-9.3 9.1-15.8v-68.3c.1-6.5-3.4-12.6-9-15.8zm3.7 84c0 4.6-2.5 8.8-6.4 11.1l-59.1 34.1c-1.9 1.1-4.2 1.7-6.4 1.7s-4.5-.6-6.4-1.7l-59.1-34.1c-4-2.3-6.4-6.6-6.4-11.1v-68.2c0-4.6 2.5-8.8 6.4-11.1l59.1-34.2c4-2.3 8.9-2.3 12.8 0l59.1 34.1c4 2.3 6.4 6.5 6.4 11.1z" fill="#00205c"/><path d="m142.9 41.3-59.1-34.2c-4-2.3-8.9-2.3-12.8 0l-59.2 34.2c-4 2.3-6.4 6.5-6.4 11.1v68.3c0 4.6 2.5 8.8 6.4 11.1l59.2 34.1c1.9 1.1 4.2 1.7 6.4 1.7s4.5-.6 6.4-1.7l59.1-34.1c4-2.3 6.4-6.6 6.4-11.1v-68.3c0-4.6-2.4-8.8-6.4-11.1zm5 11.1v68.3c0 4.1-2.2 7.8-5.7 9.8l-59.1 34.1c-3.5 2-7.8 2-11.4 0l-59.1-34.1c-3.5-2-5.7-5.8-5.7-9.8v-68.3c0-4.1 2.2-7.8 5.7-9.8l59.1-34.2c1.7-1 3.7-1.5 5.7-1.5s4 .5 5.7 1.5l59.1 34.1c3.5 2.1 5.7 5.8 5.7 9.9z" fill="#fff"/><path d="m59.8 34.5c0-.3.2-.5.5-.5l4.7-.2c2.6-.1 5-1.2 6.8-3s2.9-4.2 3-6.8l.2-4.7c0-.3.2-.5.5-.5s.5.2.5.5l.2 4.7c.1 2.5 1.2 5 3 6.8s4.2 2.9 6.8 3l4.7.2c.3 0 .5.2.5.5s-.4.5-.7.5l-4.7.2c-2.6.1-5 1.2-6.8 3s-2.9 4.2-3 6.8l-.2 4.7c0 .3-.2.5-.5.5s-.5-.2-.5-.5l-.1-4.7c-.1-2.6-1.2-5-3-6.8s-4.2-2.9-6.8-3l-4.6-.2c-.3 0-.5-.2-.5-.5z" fill="#fff"/><path d="m108.5 56-4.1-.2c-2.2-.1-4.4-1-5.9-2.6-1.6-1.6-2.5-3.7-2.6-5.9l-.2-4.1c0-.2-.2-.4-.4-.4s-.4.2-.4.4l-.2 4.1c-.1 2.2-1 4.4-2.6 5.9-1.6 1.6-3.7 2.5-5.9 2.6l-4.4.2c-.2 0-.4.2-.4.4s.2.4.4.4l4.1.2c2.2.1 4.4 1 5.9 2.6s2.5 3.7 2.6 5.9l.2 4.1c0 .2.2.4.4.4s.4-.2.4-.4l.2-4.1c.1-2.2 1-4.4 2.6-5.9 1.6-1.6 3.7-2.5 5.9-2.6l4.1-.2c.2 0 .4-.2.4-.4s.1-.4-.1-.4z" fill="#fff"/><path d="m71.4 54.7-2.2-.1c-2.4-.1-4.3-2-4.4-4.4l-.1-2.2c0-.3-.2-.5-.5-.5s-.5.2-.5.5l-.1 2.2c-.1 2.4-2 4.3-4.4 4.4l-2.2.1c-.3 0-.5.2-.5.5s.2.5.5.5l2.2.1c2.4.1 4.3 2 4.4 4.4l.1 2.2c0 .3.2.5.5.5s.5-.2.5-.5l.1-2.2c.1-2.4 2-4.3 4.4-4.4l2.2-.1c.3 0 .5-.2.5-.5s-.2-.5-.5-.5z" fill="#fff"/><path d="m59.6 80.7c-.7-.8-1.6-1.4-2.6-1.9s-2.2-.7-3.5-.7-2.4.2-3.4.7-1.9 1.1-2.6 1.9-1.3 1.8-1.7 2.8c-.4 1.1-.6 2.2-.6 3.4s.2 2.4.6 3.5 1 2 1.7 2.8 1.6 1.4 2.6 1.9 2.2.7 3.4.7 2.4-.2 3.4-.7 1.9-1.1 2.6-1.9 1.3-1.7 1.7-2.8.6-2.2.6-3.5c0-1.2-.2-2.4-.6-3.4s-.9-1.9-1.6-2.8z" fill="none"/><path d="m109.5 80.7c-.7-.8-1.6-1.4-2.6-1.9s-2.2-.7-3.5-.7-2.4.2-3.4.7-1.9 1.1-2.6 1.9-1.3 1.8-1.7 2.8c-.4 1.1-.6 2.2-.6 3.4s.2 2.4.6 3.5 1 2 1.7 2.8 1.6 1.4 2.6 1.9c1 .4 2.1.7 3.4.7s2.4-.2 3.4-.7 1.9-1.1 2.6-1.9 1.3-1.7 1.7-2.8.6-2.2.6-3.5c0-1.2-.2-2.4-.6-3.4s-.9-1.9-1.6-2.8z" fill="none"/><path d="m134.6 80.3c-.2-.4-.6-.7-1-1s-.9-.4-1.5-.6c-.6-.1-1.2-.2-1.9-.2h-3.5v6.5h3.3c.7 0 1.4-.1 2-.2s1.1-.3 1.6-.6c.4-.3.8-.6 1-1s.4-.9.4-1.5-.2-1-.4-1.4z" fill="none"/><g fill="#fff"><path d="m33.4 93c-.7.9-1.5 1.7-2.5 2.2s-2.1.7-3.4.7-2.4-.2-3.4-.7c-1-.4-1.9-1.1-2.6-1.9s-1.3-1.7-1.7-2.8-.6-2.3-.6-3.5.2-2.4.6-3.4c.4-1.1 1-2 1.7-2.8s1.6-1.4 2.6-1.9 2.2-.7 3.5-.7c1.1 0 2.2.2 3.2.7s1.7 1.1 2.2 1.8l.2.4 3.2-2.5-.2-.3c-.5-.6-1-1.2-1.7-1.6-.6-.5-1.3-.9-2.1-1.2s-1.6-.6-2.4-.7c-2.7-.5-5.3-.2-7.5.7-1.5.6-2.9 1.5-4 2.6s-2 2.4-2.7 4c-.6 1.5-1 3.2-1 5.1 0 1.8.3 3.5 1 5.1.6 1.5 1.5 2.9 2.6 4s2.5 2 4 2.6 3.2.9 5 .9c2.1 0 3.9-.4 5.5-1.2s2.8-1.9 3.7-3.1l.3-.3-3.3-2.2z"/><path d="m62.5 77.9c-1.1-1.1-2.5-1.9-4-2.6-1.5-.6-3.2-.9-5.1-.9s-3.5.3-5 .9-2.9 1.5-4 2.6-2 2.4-2.6 4c-.6 1.5-.9 3.2-.9 5.1s.3 3.5.9 5.1c.6 1.5 1.5 2.9 2.6 4s2.5 2 4 2.6 3.2.9 5 .9 3.5-.3 5.1-.9 2.9-1.5 4-2.6 2-2.4 2.7-4c.6-1.5 1-3.2 1-5.1s-.3-3.6-1-5.1-1.5-2.9-2.7-4zm-.7 9.1c0 1.2-.2 2.4-.6 3.5s-1 2-1.7 2.8-1.6 1.4-2.6 1.9c-1 .4-2.2.7-3.4.7s-2.4-.2-3.4-.7c-1-.4-1.9-1.1-2.6-1.9s-1.3-1.7-1.7-2.8-.6-2.2-.6-3.5.2-2.4.6-3.4c.4-1.1.9-2 1.7-2.8.7-.8 1.6-1.4 2.6-1.9s2.2-.7 3.4-.7 2.4.2 3.5.7c1 .5 1.9 1.1 2.6 1.9s1.3 1.8 1.7 2.8c.3 1 .5 2.2.5 3.4z"/><path d="m77.1 75.1h-4.1v23.9h14.4v-3.7h-10.3z"/><path d="m112.4 77.9c-1.1-1.1-2.5-1.9-4-2.6-1.5-.6-3.2-.9-5.1-.9s-3.5.3-5 .9-2.9 1.5-4 2.6-2 2.4-2.6 4c-.6 1.5-.9 3.2-.9 5.1s.3 3.5.9 5.1c.6 1.5 1.5 2.9 2.6 4s2.5 2 4 2.6 3.2.9 5 .9 3.5-.3 5.1-.9 2.9-1.5 4-2.6 2-2.4 2.6-4c.6-1.5 1-3.2 1-5.1s-.3-3.6-1-5.1c-.5-1.6-1.4-2.9-2.6-4zm-.7 9.1c0 1.2-.2 2.4-.6 3.5s-1 2-1.7 2.8-1.6 1.4-2.6 1.9c-1 .4-2.2.7-3.4.7s-2.4-.2-3.4-.7c-1-.4-1.9-1.1-2.6-1.9s-1.3-1.7-1.7-2.8-.6-2.2-.6-3.5.2-2.4.6-3.4c.4-1.1.9-2 1.7-2.8s1.6-1.4 2.6-1.9 2.2-.7 3.4-.7 2.4.2 3.5.7c1 .5 1.9 1.1 2.6 1.9s1.3 1.8 1.7 2.8c.3 1 .5 2.2.5 3.4z"/><path d="m133.7 88.3c1.5-.3 2.7-1 3.7-2 1.1-1.1 1.7-2.6 1.7-4.4 0-1.2-.2-2.3-.7-3.2s-1.1-1.6-1.9-2.1-1.7-.9-2.8-1.1c-1-.2-2.1-.4-3.3-.4h-7.8v23.9h4.1v-10.3h2.8l5.9 10.3h4.9zm.9-4.9c-.2.4-.6.7-1 1-.5.3-1 .5-1.6.6s-1.3.2-2 .2h-3.3v-6.5h3.5c.7 0 1.3.1 1.9.2s1.1.3 1.5.6c.4.2.7.6 1 1 .2.4.4.9.4 1.5s-.2 1-.4 1.4z"/><path d="m27.1 108.7c-.5-.6-1.1-1.2-1.8-1.6s-1.6-.6-2.7-.6c-.5 0-1.1.1-1.6.2s-1 .4-1.5.8-.8.8-1.1 1.3-.4 1.1-.4 1.8.1 1.3.4 1.7.6.8 1 1.1.9.6 1.5.8 1.1.4 1.8.6c.8.2 1.5.5 2.3.8s1.5.7 2.1 1.1c.6.5 1.1 1 1.5 1.7s.6 1.6.6 2.7-.2 2-.6 2.8-1 1.4-1.6 1.9-1.4.9-2.2 1.1-1.7.4-2.5.4c-.7 0-1.3-.1-2-.2s-1.3-.3-1.9-.6-1.1-.6-1.7-1c-.5-.4-1-.9-1.3-1.4l1.9-1.4c.5.8 1.1 1.4 2 1.9s1.8.8 3 .8c.5 0 1.1-.1 1.7-.3s1.1-.4 1.5-.8c.5-.4.8-.8 1.1-1.3s.4-1.1.4-1.8c0-.8-.2-1.4-.4-1.9-.3-.5-.7-.9-1.2-1.2s-1-.6-1.7-.8-1.3-.4-2-.7c-.7-.2-1.4-.5-2.1-.8s-1.3-.7-1.9-1.1c-.5-.5-1-1-1.3-1.7s-.5-1.5-.5-2.5.2-1.9.6-2.7 1-1.4 1.6-1.9c.7-.5 1.4-.8 2.2-1.1.8-.2 1.6-.3 2.4-.3 1.5 0 2.7.3 3.8.8 1 .5 1.8 1.1 2.3 1.8z"/><path d="m53.6 123.3c-.4.6-.8 1.1-1.3 1.6s-1.1.9-1.8 1.3-1.4.7-2.3.9c-.8.2-1.7.3-2.7.3-1.6 0-3.1-.3-4.5-.9s-2.6-1.4-3.6-2.4-1.8-2.2-2.3-3.6-.8-2.9-.8-4.6.3-3.2.9-4.6 1.4-2.6 2.4-3.6 2.2-1.8 3.6-2.4 2.9-.9 4.5-.9c.8 0 1.6.1 2.3.2s1.5.4 2.2.7 1.3.7 1.8 1.1c.6.4 1 .9 1.4 1.4l-1.8 1.3c-.2-.4-.5-.7-.9-1s-.8-.6-1.3-.9-1.1-.5-1.7-.6c-.6-.2-1.2-.2-1.9-.2-1.4 0-2.7.2-3.8.8-1.1.5-2.1 1.2-2.8 2.1-.8.9-1.4 1.9-1.8 3s-.6 2.3-.6 3.6.2 2.5.6 3.6 1 2.1 1.8 3 1.7 1.6 2.8 2.1 2.4.8 3.7.8c1.2 0 2.4-.3 3.5-.8s2.1-1.3 2.8-2.4z"/><path d="m62.7 124.9h11.6v2h-13.8v-21.6h13.4v2h-11.2v7.4h10.5v2h-10.5z"/><path d="m97 123.7.1-18.4h2.2v21.6h-2.8l-12.6-18.6h-.1v18.6h-2.2v-21.6h2.8z"/><path d="m115 126.9h-2.2v-19.7h-7.2v-2h16.7v2h-7.3z"/><path d="m137.4 108.7c-.5-.6-1.1-1.2-1.8-1.6s-1.6-.6-2.7-.6c-.5 0-1.1.1-1.6.2-.6.2-1.1.4-1.5.8-.5.3-.8.8-1.1 1.3s-.4 1.1-.4 1.8.1 1.3.4 1.7.6.8 1.1 1.1c.4.3.9.6 1.5.8s1.1.4 1.8.6c.8.2 1.5.5 2.3.8s1.4.7 2.1 1.1c.6.5 1.1 1 1.5 1.7s.6 1.6.6 2.7-.2 2-.6 2.8-1 1.4-1.6 1.9c-.7.5-1.4.9-2.2 1.1s-1.7.4-2.6.4c-.6 0-1.3-.1-2-.2-.6-.1-1.3-.3-1.9-.6s-1.1-.6-1.6-1-1-.9-1.3-1.4l1.9-1.4c.5.8 1.1 1.4 2 1.9s1.8.8 3 .8c.5 0 1.1-.1 1.7-.3s1.1-.4 1.5-.8c.5-.4.8-.8 1.1-1.3s.4-1.1.4-1.8c0-.8-.1-1.4-.4-1.9s-.7-.9-1.2-1.2-1-.6-1.7-.8-1.3-.4-2-.7c-.7-.2-1.4-.5-2.1-.8s-1.3-.7-1.9-1.1c-.6-.5-1-1-1.3-1.7s-.5-1.5-.5-2.5.2-1.9.6-2.7 1-1.4 1.6-1.9c.7-.5 1.4-.8 2.2-1.1.8-.2 1.6-.3 2.4-.3 1.5 0 2.7.3 3.8.8 1 .5 1.8 1.1 2.4 1.8z"/></g><path d="m147.4 137.4c0-.4.1-.7.2-1s.3-.6.6-.8c.2-.2.5-.4.8-.6.3-.1.7-.2 1-.2.4 0 .7.1 1 .2s.6.3.8.6.4.5.6.8.2.7.2 1-.1.7-.2 1-.3.6-.6.8c-.2.2-.5.4-.8.6-.3.1-.7.2-1 .2-.4 0-.7-.1-1-.2s-.6-.3-.8-.6c-.2-.2-.4-.5-.6-.8s-.2-.6-.2-1zm.5 0c0 .3.1.6.2.9s.3.5.5.7.4.4.7.5.6.2.9.2.6-.1.9-.2.5-.3.7-.5.4-.4.5-.7.2-.6.2-.9-.1-.6-.2-.9-.3-.5-.5-.7-.4-.4-.7-.5-.6-.2-.9-.2-.6.1-.9.2-.5.3-.7.5-.4.4-.5.7-.2.6-.2.9zm1.2-1.5h1.1c.1 0 .3 0 .4.1s.2.1.4.1c.1.1.2.2.2.3s.1.2.1.4-.1.4-.2.5-.3.2-.5.3l.8 1.3h-.6l-.7-1.2h-.4v1.2h-.5zm.9 1.3c.2 0 .3 0 .4-.1s.2-.2.2-.4-.1-.3-.2-.3-.3-.1-.4-.1h-.5v.9z" fill="#00205c"/></svg>