<svg enable-background="new 0 0 40 40" viewBox="0 0 40 40" xmlns="http://www.w3.org/2000/svg"><g fill="#1857a5"><circle cx="20" cy="20" r="4"/><path d="m29.3 13c-.2-.6-.5-.9-.9-1.4-.4-.4-.8-.7-1.4-.9-.4-.2-1-.4-2.2-.4-1.3-.1-1.6-.1-4.8-.1h-1.1c-2.2 0-2.6 0-3.7.1-1.2.1-1.8.2-2.2.4-.6.2-.9.5-1.4.9s-.6.9-.9 1.4c-.2.4-.4 1-.4 2.2-.1 1.3-.1 1.6-.1 4.8s0 3.5.1 4.8c.1 1.2.2 1.8.4 2.2.2.6.5.9.9 1.4.4.4.8.7 1.4.9.4.2 1 .4 2.2.4 1.3.1 1.6.1 4.8.1s3.5 0 4.8-.1c1.2-.1 1.8-.2 2.2-.4.6-.2.9-.5 1.4-.9.4-.4.7-.8.9-1.4.2-.4.4-1 .4-2.2.1-1.3.1-1.6.1-4.8s0-3.5-.1-4.8c-.1-1.1-.3-1.8-.4-2.2zm-9.3 13.1c-3.4 0-6.1-2.7-6.1-6.1s2.7-6.1 6.1-6.1c3.4 0 6.1 2.7 6.1 6.1s-2.7 6.1-6.1 6.1zm6.3-11c-.8 0-1.4-.6-1.4-1.4s.6-1.4 1.4-1.4 1.4.6 1.4 1.4-.6 1.4-1.4 1.4z"/><path d="m20 0c-11 0-20 9-20 20s9 20 20 20 20-9 20-20-9-20-20-20zm11.8 24.9c-.1 1.3-.3 2.1-.6 2.9s-.7 1.4-1.4 2.1-1.3 1.1-2.1 1.4-1.6.5-2.9.6-1.7.1-4.9.1-3.6 0-4.9-.1-2.1-.3-2.9-.6-1.4-.7-2.1-1.4-1.1-1.3-1.4-2.1-.5-1.6-.6-2.9-.1-1.7-.1-4.9 0-3.6.1-4.9.3-2.1.6-2.9.7-1.4 1.4-2.1 1.3-1.1 2.1-1.4 1.6-.5 2.9-.6 1.7-.1 4.9-.1c3.2 0 3.6 0 4.9.1s2.1.3 2.9.6 1.4.7 2.1 1.4 1.1 1.3 1.4 2.1.5 1.6.6 2.9.1 1.7.1 4.9 0 3.6-.1 4.9z"/></g></svg>